/* XPM */
static char *e6a2c2bbe3b34cdeddfe89eb0654cd6dTRDscXVKxIS21GFe[] = {
/* columns rows colors chars-per-pixel */
"75 75 184 2 ",
"   c #1A174E",
".  c #0F1D5A",
"X  c #171C56",
"o  c #131E5C",
"O  c #1B1D5C",
"+  c #221F56",
"@  c #20195F",
"#  c #152256",
"$  c #1C2456",
"%  c #17215E",
"&  c #18205E",
"*  c #152A59",
"=  c #232357",
"-  c #20215A",
";  c #0E1D60",
":  c #171D67",
">  c #1A1E62",
",  c #171F69",
"<  c #181F6D",
"1  c #211C60",
"2  c #0F2262",
"3  c #152464",
"4  c #1A2264",
"5  c #17246B",
"6  c #1C236D",
"7  c #172B68",
"8  c #242568",
"9  c #472A87",
"0  c #472F8F",
"q  c #4C2C8D",
"w  c #4D2A84",
"e  c #542F85",
"r  c #532A8E",
"t  c #5C2E8B",
"y  c #47308A",
"u  c #4C348D",
"i  c #4F398C",
"p  c #463384",
"a  c #53328C",
"s  c #4E2794",
"d  c #452F94",
"f  c #4C2D93",
"g  c #442C9B",
"h  c #4C2D9A",
"j  c #542E94",
"k  c #5A2E93",
"l  c #532C9B",
"z  c #5A2D9A",
"x  c #463195",
"c  c #4D3393",
"v  c #4C3897",
"b  c #46339C",
"n  c #4C339B",
"m  c #533393",
"M  c #5A3491",
"N  c #543B94",
"B  c #52339B",
"V  c #59369A",
"C  c #51389B",
"Z  c #58389B",
"A  c #603795",
"S  c #603899",
"D  c #4C2FA5",
"F  c #532EA2",
"G  c #502CA8",
"H  c #4534A3",
"J  c #4D33A3",
"K  c #5333A2",
"L  c #5A33A3",
"P  c #5532AA",
"I  c #6230A3",
"U  c #BC4EBE",
"Y  c #B053BE",
"T  c #BB57BC",
"R  c #BC5ABF",
"E  c #C354BD",
"W  c #CC57BF",
"Q  c #C35EBC",
"!  c #D977AA",
"~  c #DC7DAE",
"^  c #DA79A4",
"/  c #CC7BBD",
"(  c #DC75B4",
")  c #D67CB5",
"_  c #DE7BB6",
"`  c #DB76BC",
"'  c #D47EBF",
"]  c #DE7CBA",
"[  c #E479A5",
"{  c #E37CAE",
"}  c #E377B1",
"|  c #E07DB6",
" . c #E575BF",
".. c #E17CBA",
"X. c #EA7ABB",
"o. c #ED7CB4",
"O. c #B54EC4",
"+. c #BB4EC5",
"@. c #B74CCD",
"#. c #BB4ECB",
"$. c #AE56C7",
"%. c #AD5AC6",
"&. c #AC56CB",
"*. c #B553C5",
"=. c #BE54C6",
"-. c #BD5AC6",
";. c #B552C9",
":. c #BF53CA",
">. c #B75ACC",
",. c #BD59CA",
"<. c #B54DD6",
"1. c #BB4ED2",
"2. c #B556D4",
"3. c #BD53D2",
"4. c #BC5CD0",
"5. c #BD55DB",
"6. c #BA5ADB",
"7. c #C24EC4",
"8. c #C24ECA",
"9. c #C154C6",
"0. c #CA52C4",
"q. c #C25BC4",
"w. c #C859C0",
"e. c #C153CA",
"r. c #C35ACC",
"t. c #C958CE",
"y. c #C04DD3",
"u. c #C64BDA",
"i. c #C352D3",
"p. c #C15AD3",
"a. c #CF7CC2",
"s. c #DD76C3",
"d. c #D77EC0",
"f. c #DC7CC3",
"g. c #D677C8",
"h. c #DB78CB",
"j. c #D47CD2",
"k. c #E177C3",
"l. c #E27CC1",
"z. c #E87BC1",
"x. c #E47ACB",
"c. c #E69F9D",
"v. c #EFA695",
"b. c #EEA59D",
"n. c #EDAC9B",
"m. c #F1A597",
"M. c #F3AA97",
"N. c #F2AC9D",
"B. c #DD82AB",
"V. c #CD80B8",
"C. c #DD81B4",
"Z. c #D781BD",
"A. c #DD82BD",
"S. c #E282AD",
"D. c #EE9DA6",
"F. c #F09DA5",
"G. c #F09EAA",
"H. c #E381B4",
"J. c #E482BB",
"K. c #E688BA",
"L. c #EC82B3",
"P. c #F081B4",
"I. c #E7A5A6",
"U. c #EBA6A2",
"Y. c #EDADA2",
"T. c #EDABA3",
"R. c #EEAAAB",
"E. c #EBA4AA",
"W. c #F4A6A2",
"Q. c #F3ACA4",
"!. c #F9AAA3",
"~. c #F2A7A9",
"^. c #F3A5AC",
"/. c #F7A8AB",
"(. c #F2AAAD",
"). c #F9ACAB",
"_. c #EDA4B7",
"`. c #E9ABB6",
"'. c #EFA3BF",
"]. c #F5A5B2",
"[. c #F4AAB3",
"{. c #F2AAB9",
"}. c #DD83C4",
"|. c #E581C3",
/* pixels */
"~ _ H..._ ] l.] C...C.X.} J.| ] ...._ .._ ....| ..| ..| ..] | .._ ......_ ..] | | ....| .._ ..| ..| ..| ....| ..x.] | ..| J.! ] _ A.^ | X.| _ * % & & ",
"] f.....| _ H.{ _ .._ ....] H.( | | | | | | | | _ | | _ | | | | | | | | | | | | ..| _ | | | | | | _ | _ | | | _ { | | ] ..z...l.z..._ }.] ] k.O o & & ",
"] ....| ] ......x.( K.B._ K.] l.................................................................................~ | ] _ ] | .._ ] _ C.{ } H.A.# & & & ",
"s.] l...f.J.] A.l.~ l._ ( ( | | _ ..| ] _ ] | ] .._ | ] | ] | ] _ _ .._ ..( | ] _ | ] _ _ ] .._ | ] | ] _ _ .._ ..l...J...S.] _ ]  .}.^ ] ] A.O & & & ",
"C.C.| | ` | ) ` ) B.s.| J....._ ..J._ | ..| ....| ....| | | J._ ..H.] J.....| | J...H.] | | ......| ..| | ..J.] H...` ..` H.f.C._ X.g.o.X._ V.= & & & ",
"d._ ..| J./.^.).!.I.M b J F 6.=.:.e.:.:.e.:.:.:.9.:.:.:.:.e.:.:.:.:.:.e.9.:.:.e.:.:.:.:.e.:.:.:.:.9.:.:.:.e.:.:.=.e.9.q.Q F.^.M.n.Y.N d J K f 3 & & & ",
"f.S.| ~ ) Q.U.Q.(.~.j j M t =.T e.:.:.:.:.:.:.e.:.:.:.e.:.e.:.e.:.:.:.:.3.:.:.:.:.:.:.:.:.:.:.:.:.e.3.:.:.:.:.e.9.9.:.#.*./.[.n.{.T.d K p c h & & & & ",
"` | l...f.(.T.n.U.Q.b b B c 1.i.-.=.:.9.=.:.=.:.:.=.:.:.:.=.:.=.=.:.=.9.=.9.=.:.9.=.:.e.=.:.:.9.:.=.9.=.=.9.:.=.3.9.:.p.*.).E.Y.W.!.h j C j K & & & & ",
"j.{ } l.L._.m.Q.N.`.t v h J T ,.:.:.:.:.:.:.:.:.:.9.:.:.:.:.:.:.:.:.e.:.9.:.:.:.:.:.:.:.:.:.:.:.:.:.:.9.:.9.:.:.1.9.*.u.t.'.v.N.T.].w K n h B # & & & ",
"..[ H.' / a C g v 9 J q a j 0.1.:.:.9.:.#.:.:.:.:.:.:.:.:.8.:.:.:.:.:.:.:.:.:.:.:.:.:.9.:.:.:.:.:.:.:.:.e.#.:.9.9.9.-.=.%.M v b d M H C e u f 4 & & & ",
"] ..| | | r K B l M P n C g r.y.:.:.:.:.e.:.:.9.:.:.:.:.:.:.:.:.:.e.:.:.:.:.:.:.:.:.:.:.:.:.:.:.:.:.:.:.:.:.:.:.8.;.e.E q.q K l B j K J f B P @ & & & ",
"_ ..] | _ V b d b N f q v K Y 9.:.:.e.:.e.:.:.:.:.:.:.:.:.:.:.:.:.:.:.:.:.:.:.:.:.:.:.:.:.9.:.:.:.:.:.:.:.:.:.:.E >.#.e.9.K h x j V r k B q H # & & & ",
"}.] f.k.l.j j M D l j m B h 4.:.:.:.:.:.:.:.9.#.:.:.:.9.:.:.:.e.:.:.:.:.:.:.:.9.:.9.:.:.:.:.:.:.e.:.:.:.:.:.:.:.i.2.1.9.8.f j V H H c a n B g # & & & ",
"_ { _ A.) a C q j u m v l z 3.7.:.9.:.:.:.:.e.:.:.:.:.:.:.:.:.:.:.:.:.e.:.:.:.:.:.:.e.:.:.:.:.:.:.:.:.:.9.:.:.:.0.r.*.:.=.m B f r q B c g j L % & & & ",
"' X.~ | X.;.5.3.y.;.t.=.=.:.8.r.:.:.:.:.:.:.:.:.:.:.:.:.:.:.:.:.:.:.:.=.:.:.:.:.:.:.:.:.:.:.:.e.:.:.:.:.:.:.:.:.=.p.#.8.i.&.4.=.>.8.:.E p.9.=.O O 3 & ",
"Z.} l.( } ,.8.9.9.4.8.#.t.=.e.*.:.:.:.:.:.e.:.e.:.:.:.:.:.:.9.:.:.e.:.:.e.:.:.:.:.:.:.:.:.9.#.e.:.:.:.e.:.:.:.:.=.#.p.E 7.p.y.9.=.0.5.=.@.i.=.2 % O & ",
"] _ .._ | :.:.=.:.:.:.:.:.:.:.:.:.:.e.:.e.:.:.:.:.:.:.:.:.:.:.:.:.:.:.:.e.#.9.:.:.e.:.:.:.:.:.:.:.9.:.:.:.9.#.:.e.:.:.:.:.:.:.e.9.:.:.9.=.,.=.o O & & ",
"] ] ..| | e.:.=.:.:.e.:.:.:.:.:.:.e.#.:.:.:.:.:.:.:.:.9.:.:.:.:.:.:.:.9.e.:.:.:.:.9.#.:.:.:.:.9.:.:.#.:.:.:.e.:.:.:.:.:.:.:.:.:.9.;.:.e.:.3.=.% 4 o & ",
"] _ .._ ] e.:.:.:.:.:.:.:.9.:.:.:.:.:.9.:.:.:.:.:.:.e.#.:.:.:.:.:.:.:.:.:.:.:.:.:.:.:.:.:.:.:.:.:.:.e.9.:.:.e.:.:.:.:.:.9.:.:.:.9.:.3.9.=.4.=.% & & & ",
"] ....| | e.:.=.:.e.:.:.:.:.:.:.:.:.:.:.:.:.:.9.e.:.:.9.:.:.:.e.e.:.:.:.:.:.:.:.:.e.:.e.:.:.:.:.:.:.:.:.:.:.:.:.:.:.9.:.:.:.:.:.e.:.:.9.=.:.=.> & & & ",
"] _ ..| | :.:.=.:.#.e.:.e.:.:.:.e.:.:.:.:.:.:.e.:.:.:.:.:.:.:.:.:.:.:.:.:.:.e.:.:.:.:.:.:.e.:.:.:.:.:.:.:.:.:.:.:.:.:.:.:.:.:.:.9.:.;.9.:.:.=.> & & & ",
"] ] ..| | e.:.=.:.:.9.:.:.:.:.:.:.:.:.:.:.:.:.:.:.:.:.:.9.:.:.:.:.:.:.:.:.:.:.:.:.:.e.:.:.:.:.:.e.:.e.:.:.:.:.:.:.:.:.:.:.:.:.:.:.:.:.9.:.:.=.% & & & ",
"] ] ] | ] e.:.:.:.:.:.:.:.:.:.:.:.:.:.:.:.:.:.:.:.e.:.:.:.:.e.:.:.:.:.9.:.:.:.9.:.:.:.:.:.:.:.:.:.:.:.:.:.:.:.:.:.:.:.8.:.:.:.:.9.:.:.9.=.>.=.% & & & ",
"] ....| | e.:.=.:.:.9.:.:.:.:.:.:.:.:.:.9.:.:.:.:.:.:.:.:.:.:.:.:.:.:.:.:.:.:.:.:.:.:.:.:.:.:.:.:.:.:.:.:.9.:.:.:.:.:.:.:.:.:.e.9.:.>.9.:.:.=.% & & & ",
"] ....| | :.:.=.:.:.:.:.:.:.:.:.:.e.:.:.9.e.:.:.e.:.:.:.:.:.:.:.:.:.9.#.e.e.:.:.:.:.:.:.:.9.:.9.:.:.:.:.:.:.:.:.:.:.:.9.:.:.:.:.9.:.:.e.=.:.=.O & & O ",
"] ] .._ ..:.:.:.:.:.:.9.:.:.:.9.:.:.:.:.#.:.:.:.:.:.:.:.:.:.:.:.:.:.:.:.:.:.:.:.:.e.:.:.e.#.:.:.:.:.:.9.e.:.:.:.:.:.:.:.:.:.:.:.9.;.:.e.:.4.=.4 & % % ",
"] A...| | 9.:.:.:.:.:.:.:.:.:.:.:.e.:.:.:.:.:.:.:.:.:.:.9.:.:.:.e.:.:.:.:.:.:.:.:.:.:.:.:.:.:.:.:.:.:.:.:.:.:.:.9.:.:.:.:.:.:.:.9.:.:.9.=.:.=.o & & & ",
".._ .._ ] 9.:.=.:.:.:.:.e.:.:.:.:.9.#.:.:.:.:.9.:.:.:.e.:.:.:.:.:.:.:.:.:.9.:.:.:.:.:.:.:.e.:.:.e.:.:.:.:.:.e.:.:.:.:.:.:.:.8.:.:.:.:.9.:.>.8.% & & & ",
"] _ ] | | 9.:.=.:.:.:.:.:.:.e.:.:.:.:.:.:.:.:.:.:.:.:.e.:.:.e.:.:.:.:.:.:.:.:.:.:.:.9.:.:.:.:.:.:.:.:.:.9.:.:.:.:.:.:.:.:.:.:.:.9.:.:.9.:.:.=.4 & & & ",
"] ....| | :.:.:.:.e.:.:.:.:.9.#.:.9.e.:.:.:.:.:.9.:.:.:.:.:.e.#.:.:.:.:.:.:.e.:.:.:.:.:.:.:.9.:.:.:.:.:.e.#.:.:.:.:.e.:.:.:.:.:.=.:.>.9.=.:.=.o & & & ",
"] ....| | 9.:.=.:.:.:.9.:.e.:.:.:.:.:.:.:.e.:.:.:.:.:.:.:.:.9.:.e.:.:.:.:.:.:.:.:.:.:.:.:.:.:.:.e.:.:.9.:.:.:.9.:.:.:.:.:.:.:.:.8.:.:.9.:.>.9.% & & o ",
"] ] ] | | :.1.9.:.:.:.:.:.:.:.:.:.:.:.:.:.:.:.:.:.:.:.:.:.:.:.:.:.:.9.:.:.:.:.:.:.:.e.:.:.:.:.:.:.e.#.:.:.:.:.:.:.:.:.:.:.9.:.:.9.>.:.9.:.:.=.& & & 4 ",
"] ....| ] :.:.:.:.:.#.:.:.e.:.:.:.:.:.:.:.:.e.#.:.:.:.:.:.:.:.:.:.:.:.:.:.:.9.:.:.:.:.:.:.:.:.#.9.:.:.:.:.:.:.:.:.:.:.:.:.:.:.:.9.:.:.9.:.:.9.o O O % ",
"] ] ] | | 9.:.=.:.e.e.:.:.:.:.:.:.e.:.:.:.:.e.:.:.8.:.:.:.:.:.:.:.:.:.:.:.:.:.:.:.:.e.:.:.:.:.:.e.:.e.:.:.:.9.:.:.:.:.:.:.9.:.:.9.r.>.9.=.3.=.% 4 % % ",
"] ] .._ | 9.:.:.:.:.9.:.:.:.:.:.:.:.:.:.9.:.:.:.:.:.:.:.9.:.:.:.:.e.:.e.:.:.:.:.:.:.9.:.:.9.:.:.:.:.:.:.:.:.#.:.:.:.:.:.e.:.:.:.9.;.:.e.=.>.9.% & & o ",
"] ....| ] e.:.=.:.:.:.:.:.:.:.:.:.:.:.:.:.:.:.:.:.:.:.:.:.:.9.:.#.9.:.:.e.:.:.:.:.:.:.:.:.:.:.:.:.:.:.:.:.e.e.:.:.:.e.:.:.:.:.:.9.:.:.9.:.:.+.4 & & & ",
"] | ..| | :.:.=.:.:.:.:.:.:.:.:.:.:.:.:.:.:.:.:.:.:.:.:.:.:.:.:.:.:.:.:.:.:.:.:.:.:.:.:.e.:.:.:.:.e.:.:.:.:.:.9.:.:.:.9.:.:.:.:.9.:.:.9.9.>.=.& & & % ",
"] ] ] | | :.:.:.9.:.:.:.:.:.:.9.9.:.:.:.:.:.:.9.:.:.:.:.:.:.:.:.:.:.:.8.:.:.:.:.e.:.:.:.:.:.:.:.:.:.:.:.:.:.:.:.:.:.:.:.:.:.9.:.9.:.>.e.#.:.9.4 & & % ",
"] _ ..| ..9.:.=.:.:.:.:.:.:.:.:.:.:.:.:.:.:.:.:.:.:.:.9.:.:.:.:.:.:.:.:.:.:.:.9.:.:.9.#.:.:.:.:.:.:.:.:.:.:.:.:.:.:.:.:.:.:.#.e.9.:.:.e.=.:.=.o & & 4 ",
"] ] ..| _ e.:.:.:.e.:.:.:.e.:.:.:.e.:.:.:.e.:.:.:.:.:.:.:.:.:.8.:.:.:.:.:.:.:.:.:.:.e.:.:.:.:.:.:.:.:.9.e.:.:.:.:.:.:.:.:.e.:.:.9.;.:.9.=.3.9.& & & O ",
"] ..] | | :.#.9.9.:.:.:.:.:.:.:.:.:.:.9.#.:.e.:.:.e.:.:.:.:.:.:.:.:.:.9.:.:.:.:.:.:.:.:.:.:.:.9.:.:.:.e.:.:.:.:.:.e.:.:.:.:.:.:.9.:.:.9.:.:.9.o & & % ",
"] ] ..| | 9.:.:.:.:.:.:.#.:.:.:.:.:.:.:.e.:.:.:.:.:.:.:.:.:.:.:.:.:.:.:.:.:.9.:.:.:.:.:.:.:.:.:.:.:.:.:.:.:.:.:.:.:.:.:.:.:.:.e.9.>.:.:.#.4.=.% & & % ",
"] ....| ..:.:.:.:.:.:.e.e.:.:.e.:.:.:.:.:.9.:.:.:.:.e.:.:.:.:.:.:.:.:.:.:.:.:.:.:.:.:.e.:.:.:.:.:.:.:.:.e.:.9.e.:.:.:.:.#.:.:.:.9.:.:.9.=.3.=.4 & & O ",
"] ] .._ _ 9.:.=.:.:.:.:.9.:.:.:.:.e.:.:.:.:.:.:.:.:.:.:.9.:.:.:.:.:.:.:.:.e.:.:.:.:.:.:.e.:.:.:.9.:.:.:.:.:.#.:.:.:.:.9.9.:.:.:.:.:.:.e.=.:.=.o & & & ",
"] ....| | :.:.:.:.:.:.:.:.:.9.#.:.:.:.:.:.:.:.:.:.:.:.:.e.#.:.:.:.e.:.:.:.#.:.:.:.:.:.:.9.:.:.:.:.:.:.:.:.:.9.:.:.e.:.:.e.:.e.:.9.:.:.9.:.:.=.4 % O % ",
"] ] ] | | 9.:.:.:.:.:.:.:.:.e.:.:.:.:.:.:.:.:.:.:.:.:.:.:.9.:.:.:.:.:.:.e.e.:.:.#.9.:.:.:.:.:.e.:.:.:.:.:.:.:.:.:.:.:.:.:.:.:.:.9.:.>.9.=.:.=.& O 3 & ",
"] ] .._ ..e.:.=.9.:.:.:.e.:.:.:.:.:.9.:.:.:.:.e.9.:.:.:.:.e.:.:.:.:.:.:.:.:.9.:.e.e.:.:.:.:.:.:.:.:.:.:.:.:.e.:.:.:.:.:.:.9.:.:.9.:.:.9.:.>.=.o O % & ",
"] | ..| _ :.:.=.:.:.:.:.:.:.:.:.:.e.:.:.:.:.:.:.:.:.:.:.:.:.:.:.:.:.:.9.:.:.:.:.:.:.:.:.:.:.:.:.:.:.:.e.:.:.:.:.:.:.:.:.:.:.:.:.9.;.:.9.:.:.9.% 3 & & ",
"] ....| | 9.:.:.:.:.:.9.:.:.:.:.:.:.:.:.:.:.:.:.:.:.:.:.:.:.:.e.:.:.:.:.:.:.:.:.:.:.:.e.9.:.:.:.:.:.9.#.:.:.9.:.:.e.:.:.:.:.:.e.9.:.>.9.=.:.9.o O & & ",
"] ] .._ ] e.:.:.:.:.:.:.:.:.:.:.:.e.:.:.:.e.:.:.:.:.e.:.:.:.:.:.:.:.8.:.:.:.:.:.:.:.:.:.:.:.:.:.:.:.:.e.:.:.#.e.:.:.:.:.:.:.:.:.9.:.:.e.=.3.=.% 4 % & ",
"] | ..| | 9.:.:.:.:.:.:.:.:.:.:.:.:.e.#.:.:.:.9.:.:.:.:.:.:.:.:.:.:.:.:.:.e.9.:.:.:.:.:.:.:.:.:.:.:.:.e.:.:.e.:.:.:.:.:.:.:.:.:.9.e.:.e.:.4.=.4 % % & ",
"] ] .._ ] :.:.9.:.:.:.:.:.:.:.9.:.:.9.:.:.:.:.:.:.:.:.:.:.:.9.:.:.:.:.:.:.:.:.:.9.:.:.:.:.:.:.e.:.:.:.:.:.:.:.:.:.:.:.9.9.:.:.:.9.;.:.9.=.:.=.o % O & ",
"] ] ] | | 9.#.9.:.:.e.:.:.:.:.:.:.:.:.:.:.:.:.:.9.:.9.:.:.:.:.:.:.:.:.:.:.:.:.:.#.:.e.:.:.:.:.:.:.:.:.:.:.:.:.:.:.e.:.:.:.:.:.:.9.:.>.e.:.:.9.& O % & ",
"] ....| | :.:.=.:.:.:.:.:.:.#.9.:.9.:.:.:.:.:.:.#.:.:.:.:.:.:.:.:.:.:.:.:.e.:.:.e.:.:.:.:.:.:.:.:.9.e.:.:.:.:.:.:.:.:.:.:.:.:.:.=.:.:.9.:.:.=.& O % & ",
"] ....| | 9.:.=.:.:.:.:.:.:.e.:.:.:.:.:.:.:.:.9.e.:.:.:.:.:.:.:.:.:.9.:.:.:.:.:.:.9.:.:.:.:.:.:.:.:.:.:.:.9.:.:.:.:.:.:.:.:.:.:.9.:.:.e.=.>.=.o 3 % & ",
"] ] ] | | :.3.=.:.:.:.:.:.:.9.:.:.:.:.:.:.e.:.:.e.:.:.:.:.:.:.e.:.:.:.:.:.:.:.:.:.:.:.:.9.:.:.:.:.:.:.:.:.:.:.:.:.:.e.9.#.:.:.e.=.:.:.9.=.3.9.3 O % & ",
"h.| { ..H.=.:.i.;.;.i.9.9.e.=.5.:.e.:.:.:.:.:.:.e.:.:.:.:.:.:.e.:.:.:.e.:.#.9.e.:.:.:.:.:.:.:.:.:.:.:.:.:.:.:.9.y.e.=.r.9.e.=.3.p.#.t.T 8.1.:.2 % % & ",
"` { | ` ] =.:.e.9.r.+.9.=.=.=.=.:.:.:.:.9.#.:.:.:.:.:.:.:.:.:.:.9.:.:.:.:.:.:.:.:.:.e.:.:.:.e.e.:.:.:.:.:.:.:.:.:.e.=.#.=.3.9.=.7.9.*.*.p.i.U = & O & ",
"C.H.J...f.:.e.9.e.+.r.;.:.p.+.9.:.:.:.:.e.:.:.:.:.:.:.:.:.:.:.:.:.:.:.:.:.e.:.:.:.:.9.:.:.9.:.#.e.:.:.:.:.:.:.:.q.:.r.:.3.e.:.=.p.+.4.r.8.:.;.o & & & ",
"] ` | | A.=.;.#.i.#.p.:.3.;.i.9.:.:.:.9.:.:.:.e.:.:.:.:.:.9.:.:.:.:.:.:.:.:.:.:.:.:.:.:.:.:.:.:.:.:.:.9.:.:.:.:.:.#.:.9.:.=.1.=.+.8.5.:.:.;.,.1 % & & ",
"A.] .._ s.R ,.,.>.E *.9.9.R y.*.:.:.:.:.:.:.:.:.:.e.:.:.9.:.:.:.:.:.:.:.:.:.:.:.:.:.:.:.e.9.:.:.:.:.:.e.:.:.:.:.e.=.:.=.@.Q >.-.*.w.1.0.W =.%.@ O % & ",
"] l.X.{ K.D.Q.W.!.U.a x J l 6.9.:.:.:.:.:.:.:.:.:.:.:.:.:.:.:.:.9.:.:.:.:.:.:.9.:.e.:.:.:.#.:.:.:.:.:.:.:.:.:.:.:.:.i.e.q.^.].N.Y.R.N 9 h B n 6 3 O & ",
"_ |.] ] f.].[.(._.T.j a M t =.=.e.:.:.:.:.e.9.:.#.9.:.:.:.:.#.:.:.:.e.:.:.:.:.:.:.:.:.:.:.:.:.:.:.:.:.:.:.:.:.:.:.r.e.3.;.]._.Q.T.R.d M B c y # % % & ",
"] ..~ H.A.M.n.n.n.N.J b n l *.p.:.:.:.:.:.:.:.:.e.:.:.:.:.e.e.:.:.:.:.:.:.:.:.:.:.:.:.:.e.:.:.:.9.:.:.:.:.:.:.:.:.e.+.r.*.N.T.n.W.).f j K h K , O O % ",
"' ..) ..C.b.).T.(.b.C b k B =.=.:.:.:.;.:.:.:.:.;.e.:.:.:.:.;.e.:.:.:.:.>.:.:.:.=.:.:.;.:.:.:.:.;.e.:.:.=.:.:.;.,.=.p.1.4.W.[.n.R.R.f N c v j % O % % ",
"..} { z.z.R.b.R.n.Q.m h D D #.=.:.9.e.e.e.e.:.e.e.e.9.8.:.e.e.e.e.9.:.e.8.9.e.:.:.:.e.e.e.e.e.e.e.e.e.:.:.:.e.e.e.e.7.8.w.U.(.N.Y.b.V j F G l o 3 O & ",
"] f._ ) a.u C x K m J e a M t.4.:.>.:.:.>.:.-.:.:.:.>.>.>.:.:.:.>.:.:.;.>.:.>.:.:.>.:.:.;.:.,.:.-.:.>.:.:.>.:.:.e.=.,.2.O.u j H h A H y M i f 3 & & & ",
"l.C.o...f.n a B x n j M l B +.;.e.e.e.:.e.:.e.e.:.e.e.8.e.:.:.:.e.e.e.:.8.e.8.e.e.e.e.:.e.:.:.e.e.e.e.e.e.e.e.:.8.e.;.3.9.K j J v f b f F j l O & & & ",
"] ) o.( f.b u B z G a u b v 9.t.:.:.:.;.,.:.:.;.:.>.:.:.:.>.:.:.:.>.:.:.:.:.>.:.:.:.;.e.:.:.:.:.>.:.:.e.:.:.:.:.w.-.=.=.E D e v l l C B l c H * & & & ",
"] f...C.}.f L l m D m B B s r.O.:.;.=.=.-.:.=.=.=.-.=.=.:.=.=.=.=.=.:.=.*.=.=.=.:.;.=.=.=.-.*.=.=.=.-.*.:.*.-.:.y.3.5.=.-.l t n N l q v n B d O % & & ",
"4 O & O > * & # o , o X O 7   6 > > > > > > > > > > > > > > > > > > > > 4 > > > 4 > > > 4 > > > > > > > > > > > X $ X : > 5 # % . , % * X O 8 * & & & ",
"$ 4 3 $ & # < # # * % 2 $ : $ , & & & & & & % & 4 o & & o 4 o % & & & & & & % % & & & & % o & 4 3 O % O 4 o % % < O O $ # & X 3 = 4 & # & > > > & % O ",
"% % O % & & & & & & & & % O % O 3 O % % 3 O % O O % & & & & & O & & & 3 O % 3 O & & % O % O & & O & & & & & & & & O 3 O & & & O o & & & & & & & & & & ",
"% % O % & & & & & & & & 4 & % % O & & O O % % & & % & & & & O 3 % O % O & & O % & & % & % 3 O & % & O % % % & & & & % % % % & & & & & & & & & & & & & ",
"% % 3 O & & & & & & & O & & & & % % & % % & & & & & & & & & % % O 3 % & & % O % & & & & & & & & & % 3 O % O & & & & & & 3 O O & & & & & & & & & & & & "
};
