/* XPM */
static char *_9c9490068744090c3c99f6897714029AoTCL6fjuinCQbRo[] = {
/* columns rows colors chars-per-pixel */
"255 75 19 1 ",
"  c white",
". c black",
"X c #909090",
"o c #484848",
"O c gray94",
"+ c #181818",
"@ c gray19",
"# c #FEFEFE",
"$ c gray66",
"% c #606060",
"& c gray37",
"* c gray",
"= c #8D8D8D",
"- c #D8D8D8",
"; c gray47",
": c gray65",
"> c #C0C0C0",
", c gray93",
"< c #D5D5D5",
/* pixels */
"                                                                                                                                                                                                                                                               ",
"                                                                                                                                                                                                                                                               ",
"  ...........................................................................................................................................................................................................................................................  ",
"  ...........................................................................................................................................................................................................................................................  ",
"  ...........................................................................................................................................................................................................................................................  ",
"  ...........................................................................................................................................................................................................................................................  ",
"  ...........................................................................................................................................................................................................................................................  ",
"  ...........................................................................................................................................................................................................................................................  ",
"  ...........................................................................................................................................................................................................................................................  ",
"  ...........................................................................................................................................................................................................................................................  ",
"  ...........................................................................................................................................................................................................................................................  ",
"  ...........................................................................................................................................................................................................................................................  ",
"  ...........................................................................................................................................................................................................................................................  ",
"  ...........................................................................................................................................................................................................................................................  ",
"  ...........................................................................................................................................................................................................................................................  ",
"  ...........................................................................................................................................................................................................................................................  ",
"  ...........................................................................................................................................................................................................................................................  ",
"  ...........................................................................................................................................................................................................................................................  ",
"  ...........................................................................................................................................................................................................................................................  ",
"  ...........................................................................................................................................................................................................................................................  ",
"  ...........................................................................................................................................................................................................................................................  ",
"  ...........................................................................................................................................................................................................................................................  ",
"  ...........................................................................................................................................................................................................................................................  ",
"  .....Xo.....O ..o.....+o...X+.....@#$...%+......@&*=...X*@..........-##*.....;**+.....%o......##...+  #;...$@....@ o.+&:=....@  :..........................................................................................................................  ",
"  ..... #.....  +o $....O o.. O.....% O..X  #o...+#   %..   X........>  # >...O   X..... #......  ...  #  %.. -....> %.    X..+#   +.........................................................................................................................  ",
"  .....  %....  .. #....> %..  +....X  ..O -  @...  >;...  O @.......  +.# @..  %o......  ;....o  ..@  .+ #..-#....> %.  >X+..O %............................................................................................................................  ",
"  .....  #....  ..  ....> +..  X....>  ..  .+  ...  .....  @ -......o -..o -..  ........  O....%  ..X X..$ ;.$ @...> ..# ..... #.............................................................................................................................  ",
"  .....# #....  ..  ....> ...  O....-  ..  ..> ...  .....  .  ......% ;...  ..- ........  #....X  ..> @..@ >.% %...> ..# .....  .............................................................................................................................  ",
"  ..... O ;...  ..  ....> ...  #....   ..  ..% @.. #.....  .# ......> %...O ..> ........   @...>  ..  ....  .+ >...O#..> .....  .............................................................................................................................  ",
"  ..... > O...  ..  ....> ...   @...   ..- ..$ +..  ..... >.  ......> +...> @.> o.......   X...   .. #.... #.. #...  ..> .....##.............................................................................................................................  ",
"  ..... >-#...  .. #....> %..   X..+   ..> ..# ...  ..... >o O......> ....% %.> %.......   -...   ..  ....> .. #... O..> .....O o..........>$................................................................................................................  ",
"  ..... >; o..  ..  ....% %.. > O..%   ..> .@ >...  ..... >$ ;......> ....% ;.$ %.......   #..+   ..  ....> +.- ... >..> .....% -.........@  ................................................................................................................  ",
"  ..... >+ >..  ..  ....% %.. >##..>   ..> .# +...  ..... #  .......> ....+ >.% %.......  > ..%   ..  ....% %.$ %.. $..> ...... #+.........$;................................................................................................................  ",
"  ..... >.# ..  ..  ....% %.. >> ..##  ..> , o....  +@...   -.......> ..... >.% <:;.....  % %.>   ..  ....% %.% X.o %..> .@....$ >...........................................................................................................................  ",
"  ..... >.- ..  ..  ....% %.. >% %. - #..>  #;....    @..   >.......> ..... >.%   #.....  . $.##O ..  ....% %.+ >.% o..>   o...+ #+..........................................................................................................................  ",
"  ..... >.% %.  ..  ..... X.. >. $@ X  ..> ;> ;...  #O...   O.......> ..... >.%  ;@.....  . O. -> @.  ....% %..  .> ...> #O+....> >..........................................................................................................................  ",
"  ..... >.. >.  ..  ..... >.. >. OX @  ..> %.-#+..  .....  O .......> ..... >.% >.......  .-#@ ;> %.  ....% %.. #.> ...> .......+ #+.........................................................................................................................  ",
"  ..... >..# .  ..  %.... >.. >.- - .  ..> %.+ $..  .....  ; .......$ @.... >.% >.......  .; X @> %.##....% %..- .  ...> ........- X.........................................................................................................................  ",
"  ..... >..X .  ..  X.... >.. >.> #O.  ..> %..  ..  .....  . ;......% %.... >.+ >.......  .% # .> %.> ....% %..$ o##...> ........o #.........................................................................................................................  ",
"  .....  ..@ %  ..> >.... >.. >.X  >.  ..> %..- ..  .....  . -......% X.... %.. -.......  .o  #.> %.> @...% +..% ; >...> .........  .........................................................................................................................  ",
"  .....  ...#>  ..X >.... >.. >.%  %.  ..> %..> +.  .....  .$#......+ >...@ %..  .......  ..  >.> %.; %...; ...+ O $...> .........  .........................................................................................................................  ",
"  .....  ...-#  ..% O.... >.. >.o  o.  ..> %..> o.  .....  .o o......  ...% %..  .......  ..  X.> %.o >...> .... # %...> .........  o........................................................................................................................  ",
"  .....  ...o   ... #.... >.. >..  ..  o.> %..- ..  .....  .. -...... #...% +..  .......  ..  o.> %.. O...>#....   @...> .........  +.....%#$................................................................................................................  ",
"  .....- .... # ...O @... >.+ O..X;..  %.> %.. #..  .....  .. #......> o..> ...  .......  ..o>..> %.. #...  ....>  ....> .........  ......$ #................................................................................................................  ",
"  .....- ....O  ...% >... >.%  ......  %.> %.O @..  .....  ..> o.....o -..# ...  .......  ......> >..$ ;.. #....;  ....> ........; O.......%+................................................................................................................  ",
"  .....  ....o  ....  o.@ %.@  ......  %.> ,# >...  , *+.  ..X -...... #o@ O...  .......  ......> >..+ #+X X....@ -....> < <@.o..# %.........................................................................................................................  ",
"  .....  ..... #....+##<##...#$......  +.$   $....O    %. #..o >......%  # @...-#.......>-......> %...> # #...... X....$    ;X ## >..........................................................................................................................  ",
"  ............o@.....+;>X............;>...%%.......@%%...@+...o@.......%  o.....................o#.....$ #@......;+.....@%%..+$#-%...........................................................................................................................  ",
"  ...........................................................................................................................................................................................................................................................  ",
"  ...........................................................................................................................................................................................................................................................  ",
"  ...........................................................................................................................................................................................................................................................  ",
"  ...........................................................................................................................................................................................................................................................  ",
"  ...........................................................................................................................................................................................................................................................  ",
"  ...........................................................................................................................................................................................................................................................  ",
"  ...........................................................................................................................................................................................................................................................  ",
"  ...........................................................................................................................................................................................................................................................  ",
"  ...........................................................................................................................................................................................................................................................  ",
"  ...........................................................................................................................................................................................................................................................  ",
"  ...........................................................................................................................................................................................................................................................  ",
"  ...........................................................................................................................................................................................................................................................  ",
"  ...........................................................................................................................................................................................................................................................  ",
"  ...........................................................................................................................................................................................................................................................  ",
"  ...........................................................................................................................................................................................................................................................  ",
"  ...........................................................................................................................................................................................................................................................  ",
"  ...........................................................................................................................................................................................................................................................  ",
"  ...........................................................................................................................................................................................................................................................  ",
"  ...........................................................................................................................................................................................................................................................  ",
"  ...........................................................................................................................................................................................................................................................  ",
"  ...........................................................................................................................................................................................................................................................  ",
"  ...........................................................................................................................................................................................................................................................  ",
"  ...........................................................................................................................................................................................................................................................  ",
"  ...........................................................................................................................................................................................................................................................  ",
"  ...........................................................................................................................................................................................................................................................  ",
"                                                                                                                                                                                                                                                               ",
"                                                                                                                                                                                                                                                               "
};
