/* XPM */
static char *_efa2a4e5f234ec18a79b4342b2fb667Y2HCUcaDnneLbpQU[] = {
/* columns rows colors chars-per-pixel */
"75 75 203 2 ",
"   c #000000",
".  c #0B0204",
"X  c #0B0609",
"o  c #0C0A0C",
"O  c #070809",
"+  c #130202",
"@  c #130209",
"#  c #1C030D",
"$  c #120A0E",
"%  c #1C0303",
"&  c #150C12",
"*  c #1A0E15",
"=  c #1C0C1D",
"-  c #0D1213",
";  c #18171B",
":  c #0D0F11",
">  c #250407",
",  c #380606",
"<  c #240310",
"1  c #2D0415",
"2  c #3B051B",
"3  c #330518",
"4  c #22131C",
"5  c #2A1723",
"6  c #331C2A",
"7  c #301A27",
"8  c #2C132E",
"9  c #23282C",
"0  c #262D31",
"q  c #3D2232",
"w  c #2B363A",
"e  c #4A0807",
"r  c #4C0808",
"t  c #460707",
"y  c #530809",
"u  c #5B0909",
"i  c #42061E",
"p  c #59081E",
"a  c #630A0B",
"s  c #6C0B0A",
"d  c #780C0B",
"f  c #7B0B17",
"g  c #4A0622",
"h  c #470621",
"j  c #520726",
"k  c #5B072A",
"l  c #570828",
"z  c #63072D",
"x  c #64082E",
"c  c #69082F",
"v  c #6C0832",
"b  c #740835",
"n  c #7C0937",
"m  c #7B0838",
"M  c #7B0B29",
"N  c #48283B",
"B  c #3C1B40",
"V  c #343C41",
"C  c #431E48",
"Z  c #4F2C41",
"A  c #532E44",
"S  c #5B324B",
"D  c #6B3B58",
"F  c #723F5D",
"G  c #703176",
"H  c #3B454B",
"J  c #3C4E53",
"K  c #424E55",
"L  c #73405D",
"P  c #4E5861",
"I  c #535E67",
"U  c #7B4465",
"Y  c #784263",
"T  c #56636C",
"R  c #576872",
"E  c #5A737B",
"W  c #840D0C",
"Q  c #8B0E0D",
"!  c #940E0E",
"~  c #9C0F0E",
"^  c #9C0E16",
"/  c #A40F0F",
"(  c #A8100F",
")  c #A80F17",
"_  c #B20F1C",
"`  c #AC1010",
"'  c #BC1113",
"]  c #B51019",
"[  c #8D0B2E",
"{  c #9E0C27",
"}  c #9A0C28",
"|  c #940C2C",
" . c #850A33",
".. c #890B32",
"X. c #A30D24",
"o. c #C51111",
"O. c #864A6D",
"+. c #8E4F75",
"@. c #98547C",
"#. c #7B3683",
"$. c #657A82",
"%. c #8F3F97",
"&. c #853B8E",
"*. c #9E5882",
"=. c #A65C88",
"-. c #BA6799",
";. c #AE618F",
":. c #9D44A7",
">. c #BA4FBE",
",. c #B452BF",
"<. c #BD54BD",
"1. c #BE59BE",
"2. c #A648B1",
"3. c #C46D9F",
"4. c #C156BD",
"5. c #C259BD",
"6. c #C66EA3",
"7. c #D879AC",
"8. c #DF7CB5",
"9. c #D77BBC",
"0. c #DC7EB9",
"q. c #DA74B8",
"w. c #D26FB1",
"e. c #E17DB5",
"r. c #E177B9",
"t. c #E07CB8",
"y. c #BB4EC6",
"u. c #BC4ECB",
"i. c #B54DC8",
"p. c #B754C3",
"a. c #BD53C4",
"s. c #BE5AC4",
"d. c #B752CC",
"f. c #BE53CA",
"g. c #B759CB",
"h. c #BF59CA",
"j. c #B64BD7",
"k. c #BB4ED1",
"l. c #BB4DDA",
"z. c #BD52D2",
"x. c #BE58D5",
"c. c #B951D3",
"v. c #C14DCE",
"b. c #C24FC6",
"n. c #C155C5",
"m. c #C15AC4",
"M. c #C154CC",
"N. c #C35ACB",
"B. c #C24FD2",
"V. c #C254D3",
"C. c #C359D0",
"Z. c #DD7BC2",
"A. c #C361C4",
"S. c #E17EC4",
"D. c #E27DC9",
"F. c #68818B",
"G. c #6A8891",
"H. c #7A8C97",
"J. c #7A9BA6",
"K. c #7CA1AE",
"L. c #81A2AE",
"P. c #88ADBA",
"I. c #85A9B6",
"U. c #8EB0BC",
"Y. c #ECAB9E",
"T. c #ECA69B",
"R. c #F1A39F",
"E. c #F3AB9D",
"W. c #F4AB93",
"Q. c #DE81B9",
"!. c #DE82B4",
"~. c #DF80AC",
"^. c #E380BA",
"/. c #E381B5",
"(. c #EC95AE",
"). c #ECA5A3",
"_. c #EEAAA5",
"`. c #EFA7AA",
"'. c #EEA9A9",
"]. c #F2A5A4",
"[. c #F1AAA5",
"{. c #F2A4AC",
"}. c #F1AAA8",
"|. c #F9ABA9",
" X c #EDAAB2",
".X c #F0A8B3",
"XX c #F3A5B4",
"oX c #F6B2A5",
"OX c #96BFCC",
"+X c #8FBCCB",
"@X c #98C2CF",
"#X c #97C1CE",
"$X c #97C7D5",
"%X c #9AC5D2",
"&X c #A7CBD6",
"*X c #B4D2DC",
"=X c #BFDCE5",
"-X c #C3DCE3",
";X c #CEE3E9",
":X c #EAF3F5",
">X c #FEFEFE",
",X c #F4F8FA",
"<X c #E4EEF2",
/* pixels */
"V.f.a.N.n.M.a.V.N.f.f.x.f.f.f.n.M.a.M.f.n.f.a.M.a.f.f.M.f.n.f.M.a.M.M.a.M.a.M.f.M.a.M.f.n.f.f.M.a.f.a.M.M.a.M.f.a.a.M.n.k.a.z.N.a.N.M.a.n.V.k.a.M.f.M.",
"u.n.f.u.u.V.a.a.a.a.a.N.f.d.z.f.f.f.f.f.f.f.M.f.M.f.f.f.f.f.f.f.f.f.f.f.f.f.f.M.f.f.f.f.f.f.f.f.f.M.f.f.f.M.f.f.N.u.u.n.f.1.n.y.V.y.M.M.V.y.M.a.f.h.f.",
"n.M.N.f.f.V.h.s.k.V.f.a.a.a.n.f.f.f.f.f.f.a.M.f.M.a.a.M.a.M.f.f.f.a.f.f.M.a.a.M.a.M.f.f.M.f.a.f.a.f.M.a.f.a.f.f.a.a.u.f.z.f.z.k.V.k.N.M.M.a.n.M.a.f.a.",
"M.u.f.n.f.s.k.d.M.N.z.4.a.f.f.z.M.f.M.N.M.M.M.f.M.f.M.M.M.f.M.N.M.M.M.M.M.M.f.M.f.M.M.N.M.f.N.M.M.M.M.M.f.M.M.N.f.a.V.M.N.s.C.M.a.N.a.k.n.f.y.z.M.f.M.",
"N.f.k.f.i.m.z.s.p.M.j.m.M.M.u.M.f.f.f.f.f.f.f.f.f.f.f.f.f.f.f.f.M.V.f.f.:.&.#.G G &.%.2.f.f.f.h.f.y.N.f.f.u.M.f.M.M.V.k.s.p.d.d.a.h.a.V.M.f.h.f.a.f.s.",
"f.f.N.n.4.{.{.E.W.].N.a.k.B.4.e.t.t.t.t.t.t.t.t.t.t.t.t.t.t.t.7.U 6 &                     $ 7 *.t.t.t.t.t.t.t.t.0.8.t.Q.].[.[.E.].A.s.k.z.s.).]._.`.`.",
"a.M.f.k.d.XXXX_.}.{.x.a.M.V.M.S.e.e.e.e.e.e.e.e.e.t.e.e.e.e.D X                                 & *.^.t.t.e.e.t.t.t.e.Q.[.[.[.T.{.j.M.n.V.p.|. X'._.'.",
"z.M.a.N.p.E.[.Y.[._.d.a.n.M.>.e.S.t.t.t.S.r.t.t.t.t.t.S.w.4                                         A 0.t.S.t.t.t.e.t.0.[.'.'.`.E.g.y.m.M.a.[.Y.].[.[.",
"N.a.z.f.p.W.'._.[.[.k.p.f.V.a.8.t.t.t.t.t.t.t.t.t.t./.q.5             . + % > , > , , > .             6 t.t.t.t.r.8.e.e.[.XX_.Y.|.p.f.M.u.f.{.[.}._.[.",
"y.n.V.M.M.].XXT.[.R.h.h.f.V.V.8.t.t.t.t.t.t.t.t.t.t.e.A         . t W ` ' o.o.o.o.o.o.' ` W e .         S t.t.t.r.S.e.t.].].E.[.{.s.a.a.V.f.R.Y._._._.",
"a.a.f.u.j.N.x.z.f.h.l.N.y.n.V.0.t.t.e.t.e.t.t.t.t.t.@.        > ` o.o.o.o.o.o.o.o.o.o.o.o.o.o.! %         =.t.t.e.e.e.S.s.z.f.z.m.j.k.<.M.x._. X_._._.",
"z.f.a.5.m.a.a.a.f.p.f.M.M.a.M.8.8.r.e.t.t.t.t.t.0.7.$       + / o.o.o.o.o.o.o.o.o.o.o.o.o.o.o.o.` +       = e.t.t.t.e.e.d.z.f.f.n.V.M.n.f.a.W.Y._.[._.",
"g.C.f.a.f.k.M.n.M.M.y.a.M.m.M./.t.t.t.t.8.t.t.t.t.F         W o.o.o.o.o.o.o.o.o.' ~ d s r t , e y e         =.0.t.0.q.e.a.a.5.f.M.a.y.v.k.x.[. X_.[._.",
"f.f.a.f.M.B.M.M.v.V.n.n.m.y.y.r.0.e.t.t.t.t.t.t.q.X       t o.o.o.o.o.o.o.o.~ y +                           q 7.e.t.t.t.f.f.a.V.V.u.<.N.a.a.Y.'._.`._.",
"M.f.a.f.f.<.f.a.a.N.V.V.a.M.N.S.t.t.t.t.t.t.t.t.+.      + ` o.o.o.o.o.o.' y .                                 X L t.t.e.N.d.u.M.a.f.a.z.a.5.[.E.[._._.",
"<.V.n.k.N.e.S.e.e.q.e./.7.S.Z.7.t.t.t.t.t.t.t.t.7       y o.o.o.o.o.o.` %                                         4 6.e.r.e.e.e.e.D.e.8.e.Z.{._._._._.",
"f.M.M.f.M.t.e.t.t.8.t.t.t.t.t.t.t.t.t.t.t.t.t.7.        ! o.o.o.o.o.' >           ; K E F.G.G.$.R J 0 -             X 3.8.t.t.t.^.0.e.t.t.0.]._._._.`.",
"f.f.a.f.f.t.e.t.t.t.t.t.t.t.t.t.t.t.t.t.t.t.0.=.      > ' o.o.o.o.o.s         w J.@X$X@X@X@X*X-X-X*X&XU.G.J o         * 7.0.t.t.t.t.e.t.t.0.}._.`._._.",
"f.f.f.f.f.e.e.t.t.t.t.t.t.t.t.t.t.t.8.t.r.8.t.F       t o.o.o.o.o.' .       H OX#X@X@X@X%X:X>X>X>X>X>X:X;X*XK.0         Z 0.t.8.t.t.e.t.t.0.[._._.[._.",
"n.f.M.f.f.0.^.r.t.t.t.t.t.t.t.8.t.t.t.t.0.e.0.q       s o.o.o.o.o.Q       o E @X@X@X@X@X&X>X>X>X>X>X>X>X>X>X=X+Xw       . 7.t.t.t.t.e.S.e.0.}._._._._.",
"f.f.f.f.M.e.e.0.t.t.t.t.t.t.t.t.t.t.t.t.t.e.8.&       Q o.o.o.o.o.a       w T P.@X@X@X@X@X-X<X:X,X>X>X>X>X>X;X$XP.-       O.t.t.t.t.t.t.8.8.}._._.}._.",
"M.f.n.f.f.0.t.r.t.t.e.t.t.t.t.t.t.;.S 4 4 4 4       . ( o.o.o.o.o.u       H T $.@X@X@X@X@X@X@X@X@X%X&X&X*X*X%X$X$XJ       F 0.t.t.t.e.t.8.Q.{._._._.}.",
"a.M.f.f.M.t.e.t.t.t.t.t.t.t.t.8.Z                   . ' o.o.o.o.o.a       V T T K.@X@X@X@X@X@X@X@X@X@X@X@X@X@X$X$XE       F t.t.e.t.e.t.0.9._._._._._.",
"f.M.f.N.f.t.t.t.t.t.t.t.8.t.t.L                     . o.o.o.o.o.o.d       9 T T R J.@X@X@X@X@X@X@X@X@X@X@X@X@X@XK.w       F t.t.t.t.e.t.8.Q._._.[._._.",
"f.f.a.M.f.t.e.t.t.t.t.t.t.t.q.                      > o.o.o.o.o.o.~ . .   O P T T R F.J.L.L.I.I.P.P.P.I.L.H.$.R R -       U 0.t.^.t.e.t.t.0.{._._._.[.",
"f.M.f.f.f.t.e.r.t.t.t.t.t.t.+.      . s d d a       , o.o.o.o.o.o.o.>       0 T T T T T R T T T R T T T T T T T V         ;.t.t.t.t.e.t.t.0.}._.}._._.",
"f.M.n.f.f.8.e.Z.t.0.t.t.t.t.A       r o.o.o.~       r o.o.o.o.o.o.o.s         H T T T T T T T T T T T T T T I 9         * t.t.t.t.t.e.t.t.0.}._._._._.",
"a.f.f.f.N.e.e.t.t.t.t.t.t.e.q       d o.o.o.!       e o.o.o.o.o.o.o.' >       O w T T T T T T T T T T T K 0             =.t.0.e.t.t.e.S.8.0.[._.[._._.",
"M.f.M.f.f.e.e.t.t.t.t.t.t.t.6       W o.o.o.f       r o.o.o.o.o.o.o.o./ .         ; K T T T T T P K 9 *               O.t.t.t.t.t.t.e.t.8.8.`._._._.}.",
"M.f.f.f.f.e.e.S.t.t.e.t.t.t.5       W ] | n l       u o.o.o.o.o.o.o.o.o.W .           o ; ; ; : .                   Z t.t.t.t.t.t.t.8.t.0.Q.{._._._._.",
"a.f.f.f.f.t.e.t.t.t.t.t.t.t.*       z n n m j       u o.o.o.o.o.o.o.o.o.o.W +                                       A 8.t.t.8.t.t.t.e.t.8.9.[._._._._.",
"M.f.n.f.f.e.e.t.t.t.t.t.t.t.&       z n n n g       u o.o.o.o.o.o.o.o.o.o.o.( t .                       + t y       q t.t.t.t.t.e.t.t.t.e.Q.[.`._.]._.",
"f.f.a.M.M.e.e.S.e.t.t.t.t.t.$       c m m m h       a o.o.o.o.o.o.o.o.o.o.o.o.o./ u > +       . % , u ~ ' o.W       7 e.t.t.t.t.t.t.t.t.t.^.[._._.`._.",
"a.f.M.f.f.e.e.t.t.t.t.t.t.t.X       v m m m 2       l o.o.o.o.o.o.o.o.o.o.o.o.o.o.o.o.` ! Q Q / ' o.o.o.o.o.Q       4 e.t.t.t.t.t.t.e.t.t.0.}._._._.`.",
"M.f.f.f.f.t.e.0.t.t.t.t.e.t.        v m m m 3       l ' o.o.o.o.o.o.o.o.o.o.o.o.o.o.o.o.o.o.o.o.o.o.o.o.o.o.~       * t.t.t.t.t.e.t.e.S.t.0.}._._.[._.",
"a.M.M.f.f.e.t.r.t.t.t.t.0.8.O     . b m m m 1       c } o.o.o.o.o.o.o.o.o.o.o.o.o.o.o.o.o.o.o.o.o.o.o.o.o.o./       X t.t.t.t.e.t.t.e.t.t.0.]._._._._.",
"M.f.M.f.f.t.e.t.t.t.t.t.t.6..     X b m m m #       v  .' o.o.o.o.o.o.o.o.o.o.o.o.o.o.o.o.o.o.o.o.o.o.o.o.o.^       X t.t.t.t.t.t.t.t.t.8.0._._._._.}.",
"f.f.a.f.f.8.e.t.t.t.t.t.t.;.      X m m m b X       b m } o.o.o.o.o.o.o.o.o.o.o.o.o.o.o.o.o.o.o.o.o.o.o.o.o.M .       t.t.t.t.t.t.t.e.t.8.Q.[._._.}._.",
"f.f.M.f.M.e.t.t.t.t.t.8.8.=.      @ m n m b .     . m m n _ o.o.o.o.o.o.o.o.o.o.o.o.o.o.o.o.o.o.o.o.o.o.o.] v .       t.t.t.8.t.e.t.t.t.8.0.`._._._._.",
"M.f.n.f.f.t.e.t.t.t.t.t.e.+.      # m m m c       # m m m ..' o.o.o.o.o.o.o.o.o.o.o.o.o.o.o.o.o.o.o.o.o.o.{ v .       t.t.t.t.t.t.t.e.0.0.0._._._.[._.",
"a.M.M.f.M.e.e.8.e.t.t.t.t.O.      # m m m g       1 n m m m } o.o.o.o.o.o.o.o.o.o.o.o.o.o.o.o.o.o.o.o.o.o.[ b .       t.t.8.t.t.t.t.e.t.t.0.{._._.[._.",
"f.f.a.f.f.t.t.r.t.t.t.t.8.+.      < m m m 2       g n m m m m } o.o.o.o.o.o.o.o.o.o.o.o.o.o.o.o.o.o.o.o.'  .m X       t.t.e.t.t.t.t.e.t.t.Q.}._._._.'.",
"f.f.f.f.N.e.e.0.t.t.t.t.0.O.      1 n m m <       z m m m m m m } o.o.o.o.o.o.o.o.o.o.o.o.o.o.o.o.o.o.o._ m n @       t.t.t.t.t.e.t.t.S.t.0.]._._.}.}.",
"n.f.f.M.M.t.t.t.t.t.t.t.t.D       3 m m n .       b m m m m m m n | o.o.o.o.o.o.o.o.o.o.o.o.o.o.o.o.o.o.{ m n X       t.t.t.t.8.e.t.t.t.t.0.}._._._._.",
"f.M.M.f.h.t.e.r.t.t.e.t.0.A       3 m n x       @ m m m m m m m m m  ._ o.o.o.o.o.o.o.o.o.o.o.o.o.o.o.'  .m m         t.t.t.t.t.t.t.e.t.8.8._._._._._.",
"f.f.a.f.f.t.t.0.t.t.t.t.t.q       i m n 2       2 m m m m m m m m m m n X.o.o.o.o.o.o.o.o.o.o.o.o.o.o.X.m m b         t.t.t.t.t.0.^.e.t.8.Q.`._.]._.[.",
"a.M.f.f.f.e.t.t.t.t.e.t.t.A       # b n @       l m m m m m m m m m m m m { o.o.o.o.o.o.o.o.o.o.o.o.o.[ m m v       X t.t.t.8.t.t.t.t.t.Q.0.{.`.}._._.",
"M.f.f.f.N.t.t.t.t.t.t.t.t.=.        @ 1       . m m m m m m m m m m m m m m _ o.o.o.o.o.o.o.o.o.o.o.] m m m h       * t.t.t.t.t.t.t.e.0.8.8.]._._._._.",
"a.f.f.2.B 5 q A D U +.=.=.=.&                 2 n m m m m m m m m m m m m m ..o.o.o.o.o.o.o.o.o.o.o._  .m m @       N 0.0.e.t.t.^.t.e.t.t.0.}._._._._.",
"M.f.%.                                        b n n m m m m m m m m m m m m m ] o.o.o.o.o.o.o.o.o.o._ m m j         -.t.t.t.t.t.t.t.8.t.t.Q.}._._._._.",
"M.f.8                                       j m m m m m m m m m m m m m m m m _ o.o.o.o.o.o.o.o.o.o._ m m <       7 t.t.t.t.t.t.t.t.e.t.t.0.}.`._._._.",
"f.M.=                                 . 1 c m m m m m m m m m m m m m m m m m _ o.o.o.o.o.o.o.o.o.o.X.m b .       =.t.t.t.t.t.t.t.t.e.S.8.0.]._._._.[.",
"a.M.G           . < # @ @ @ @ # 1 i l v m m m m m m m m m m m m m m m m m m m o.o.o.o.o.o.o.o.o.o.]  .m k       X t.t.t.t.t.t.t.t.t.8.t.0.8.`._.}._._.",
"f.f.M.8           3 b m m m m n m m m m m m m m m m m m m m m m m m m m m m [ o.o.o.o.o.}  .n n  . .m m g       5 t.t.t.8.t.t.t.t.^.e.t.8.0._._._._._.",
"M.f.f.M.C           # c m n m m m m m m m m m m m m m m m m m m m m m m m  .] o.o.o.o.[ m m m m m m m m 2       q t.t.t.t.t.t.t.t.t.t.t.t.0.[._.}._.[.",
"a.M.f.f.f.Y .           2 v m m m m m m m m m m m m m m m m m m m m m m n X.o.o.o.o.[ m m m m m m m m m 3       N 8.t.t.8.t.t.t.t.t.8.t.e.8.[._._._._.",
"f.f.a.f.M.0.*.X           . 1 k v v b b n n m m m m m m m m m m m m m m m o.o.o.X.[ n n n n m m m n m b .       O.8.8.8.S.t.8.9.t.t.t.e.t.e._.R.[.'.}.",
"a.f.a.n.M.8.8.3.7                   .   # 2 z b m m m m m m m m m m m m m | {  .m m x g h 2 h j x v j @         8.8.8.e.t.t.t.t.e.e.e.t.t.Q.).]._._._.",
"V.u.v.V.V.t./.0.8.U O                         @ g b m m m m m m m m m m m m m m k < .                         Z r.8.e.e.t.e.e.e.9.e.8.S.r.^.'.Y.'.]._.",
"n.n.M.f.c.8.8.9.9./.w.S                           # v m m m m m m m m m m m m k .                           * t.e.e.0.Z.t.0.t.q.e.9.8.^.e.e.Y._._._._.",
"f.f.f.f.N.].[.[.[.].m.u.y.G 8 X O .                 @ v m m m m m m m m m m g                             7 8.t.e.t.e.t.].'.].E.].N.M.a.v.x._.E._.[._.",
"a.s.g.a.p._.[._. X}.d.z.m.N.d.^.t.t.8.-.U 6           < b m m m m m m m m 2           * Z S N 5 & $ * q -.t.0.t.t.e.e.0.[.}.`._.[.k.M.4.n.d._.]._._.[.",
"M.n.B.d.z.[._.`.[.E.f.f.<.n.f.e.t.t.t.t.e.0.-.4         3 b m m m m m x <           D 8.t.8./.e.t.t.t.t.t.t.t.t.8.t.e.e.Y.`.'._.Y.k.f.a.b.f._._._.[._.",
"M.a.B.M.f.E.Y._._._.x.M.M.v.M.8.e.t.t.t.t.t.8.q.*         X 3 h h 2 < .           Y t.t.t.t.t.t.t.t.t.t.t.t.t.t.9.t./.S.Y.`.[.[._.C.f.k.n.N._.[._._._.",
"k.m.<.z.1.XX].].|.{.n.y.a.V.<.t.t.t.t.t.t.t.t.t.-.O                           X @.t.t.t.t.t.t.t.t.t.t.t.t.t.t.t.t.0.9.^.).].Y._.].m.z.f.M.k.}.`._.}._.",
"v.n.n.v.y.N.<.s.,.s.j.f.n.f.z.D.t.t.t.t.t.t.r.t.t.=.O                       4 -.S.t.^.t.t.t.t.S.t.t.t.t.^.S.t.t.r.e.e.q.M.V.z.f.h.i.a.5.n.z._._._._.[.",
"V.z.x.m.s.a.i.g.f.f.x.M.f.a.f.t.e.t.t.e.t.e.t.t.t.t.7.N                 & Y q.e.e.t.t.8.e.8.8.t.t.t.e.t.e.t.t.e.e.e.e.e.M.a.f.f.k.a.f.B.a.p.Y._._.}.].",
"a.z.x.,.p.z.x.m.n.>.<.a.M.n.M.t.r.t.r.t.t.t.t.t.t.t.r.t.q.@.F F F F U 6.t.t.8.e.t.r.t.t.r.t.t.t.t.t.r.t.t.t.r.t.e.8.Z.e.M.4.a.z.f.1.z.V.m.1.E.'._._._.",
"4.M.M.M.v.B.v.b.u.V.M.f.k.n.,.e.t.t.e.0.t.t.e.t.t.e.0.8.e.0.e.t.e.0.0.t.e.e.e.e.t.t.e.0.e.t.e.e.t.t.t.0.t.t.t.t.e.t.S./.v.b.n.n.M.a.M.a.l.h.}.XX}._._.",
"y.f.h.h.f.N.n.n.a.N.M.f.k.m.4.9.Q.Q.0.0.0.0.Q.9.^.9.0.Q.t.^.Q.0.Q.0.e.0.0.Q.9.Q.0.Q.Q.9.0.e.Q.9.Q.e.0.Q.Q.0.0.Q.0.0.t.8.z.z.z.u.z.d.a.<.z.m.`.T._._._.",
"_.'.)._._.`.`.[.{.[.[.W.[.[._.{.}.}.{._.[.[.[.}.[.[.`.}.}.}.[.].}.`.}.}.[.].].{.}.}.}.}.[.}.{.[.[.}._._.{.}.[.]._._.`.E.}._._._.].[.E.Y.'.).|.).}._._.",
"_.[._._._.'.}.E.[.Y. X_. X).oX)._._._._._._._._._._._._._._._._._._._._._._._._._._._._._._._._._._._._._.'._._.[.[.[.'.[.[._.'.`.Y._. X X_._._._._._.",
"'.Y.'.[._._._._._._._.}.[._._._.}._._.]._.[._.[._._.}._._._._._._._.[._.[._._.'._._._.'._._._._._._._._._._._._._._.'.]._._._._._._._._._._.}._.}._.[.",
"_.'._.].]._._._.[._._._.].'._._._._._._._.[.'.'._._._._._.}.}._._._._._._._.}._.[._.[._.[._.}._._._._._.[._.}._._.}._._.[._.'.[._.[.}._._._._._._._._.",
"_._._.].[._._._._.[._._.}._._._._._.]._._._._._._.[._._.[._._._._._.[.].}._._._._.'._.}._._.}._._._.}._._._._.}._._.[._._._.}._.}._._._._.[._._.[._._."
};
