/* XPM */
static char *_4b8e25150024ed6b2151b3d95f40486tX7hBpX6L8Te4TvA[] = {
/* columns rows colors chars-per-pixel */
"75 75 190 2 ",
"   c #010101",
".  c #0A0303",
"X  c #0B060A",
"o  c #07090A",
"O  c #0B0C0D",
"+  c #060708",
"@  c #130303",
"#  c #1B0303",
"$  c #110A0E",
"%  c #150C12",
"&  c #190E15",
"*  c #1C0C1D",
"=  c #0D1214",
"-  c #1C1017",
";  c #111619",
":  c #1E1018",
">  c #13191C",
",  c #240404",
"<  c #2C0505",
"1  c #330506",
"2  c #3C0606",
"3  c #23141D",
"4  c #261522",
"5  c #2C1924",
"6  c #281721",
"7  c #331D2A",
"8  c #381F2E",
"9  c #1D262B",
"0  c #222D32",
"q  c #3D2333",
"w  c #253237",
"e  c #39202F",
"r  c #430707",
"t  c #4A0707",
"y  c #4C0708",
"u  c #530808",
"i  c #5C0809",
"p  c #500708",
"a  c #640909",
"s  c #6B0A0A",
"d  c #770A0A",
"f  c #7A0A0A",
"g  c #452739",
"h  c #4B293D",
"j  c #432537",
"k  c #471F4C",
"l  c #522D43",
"z  c #563047",
"x  c #5C344C",
"c  c #552C4E",
"v  c #61374F",
"b  c #653953",
"n  c #6B3C58",
"m  c #723F5E",
"M  c #324249",
"N  c #384C53",
"B  c #3D535B",
"V  c #41555E",
"C  c #73415F",
"Z  c #445C65",
"A  c #465F68",
"S  c #764261",
"D  c #7A4464",
"F  c #7D476B",
"G  c #4A646E",
"H  c #47606A",
"J  c #4D6873",
"K  c #516D78",
"L  c #53707B",
"P  c #840C0C",
"I  c #8D0D0D",
"U  c #940D0D",
"Y  c #9C0E0E",
"T  c #A20E0E",
"R  c #AC0F0F",
"E  c #B30F0F",
"W  c #B51010",
"Q  c #BC1010",
"!  c #B01010",
"~  c #C51111",
"^  c #82486B",
"/  c #8D4E74",
"(  c #925277",
")  c #94527A",
"_  c #99557F",
"`  c #793481",
"'  c #5D7B87",
"]  c #803888",
"[  c #9C5881",
"{  c #A85D8A",
"}  c #AC608C",
"|  c #BB6799",
" . c #BE699C",
".. c #B46393",
"X. c #BA4EBE",
"o. c #BD54BD",
"O. c #BE59BE",
"+. c #B452BF",
"@. c #AE4BB9",
"#. c #C06B9E",
"$. c #C156BD",
"%. c #C259BD",
"&. c #C56DA2",
"*. c #C96FA5",
"=. c #CE73AA",
"-. c #CA70A6",
";. c #D375AD",
":. c #DD7DAD",
">. c #DC7DA7",
",. c #DE7CB6",
"<. c #DB74BC",
"1. c #DC7EB9",
"2. c #D679B4",
"3. c #E17DB5",
"4. c #E07CB9",
"5. c #E177B9",
"6. c #BB4EC6",
"7. c #B64CCC",
"8. c #BC4ECC",
"9. c #B54FC4",
"0. c #B754C3",
"q. c #BD53C4",
"w. c #BE5AC4",
"e. c #B752CC",
"r. c #BE53CA",
"t. c #BF5ACA",
"y. c #B759CB",
"u. c #B64BD7",
"i. c #BC4ED1",
"p. c #BB4DDA",
"a. c #BD52D2",
"s. c #BA53D3",
"d. c #C14ECC",
"f. c #C155C5",
"g. c #C15AC4",
"h. c #C154CC",
"j. c #C35ACB",
"k. c #C254D3",
"l. c #C359D0",
"z. c #C24FD2",
"x. c #C761C8",
"c. c #DD7BC2",
"v. c #E17EC4",
"b. c #E27DC9",
"n. c #688A98",
"m. c #6F93A2",
"M. c #7499A9",
"N. c #7CA2B3",
"B. c #82AABC",
"V. c #EDAA9C",
"C. c #ECA699",
"Z. c #F2AA9D",
"A. c #F2A897",
"S. c #DE81B9",
"D. c #DE84B4",
"F. c #E281B5",
"G. c #E381BA",
"H. c #F29FB1",
"J. c #E990AD",
"K. c #ECA5A3",
"L. c #EEAAA5",
"P. c #EDAAAA",
"I. c #EEA7AA",
"U. c #F2A5A3",
"Y. c #F2A9A6",
"T. c #F2A4AB",
"R. c #F3A9AB",
"E. c #F9ABA9",
"W. c #F6B2A5",
"Q. c #EDAAB2",
"!. c #F2A9B4",
"~. c #F4A5B5",
"^. c #85AEC0",
"/. c #8AB5C8",
"(. c #90BBCE",
"). c #97C5DA",
"_. c #98C7DC",
"`. c #9CC9DD",
"'. c #93C1D5",
"]. c #A2CCDF",
"[. c #A5CEE0",
"{. c #ACD2E3",
"}. c #BDDBE9",
"|. c #B8D8E7",
" X c #C3DFEB",
".X c #C8E1EC",
"XX c #DAEBF2",
"oX c #E1EFF5",
"OX c #FBFDFD",
"+X c #EDF6F9",
/* pixels */
"k.r.q.j.h.h.q.a.h.h.q.a.r.t.r.f.h.q.h.q.h.r.r.q.h.h.q.h.q.h.r.q.r.h.r.h.q.r.r.f.r.r.r.r.r.q.r.q.h.h.q.h.q.h.q.r.q.r.k.f.8.q.a.h.f.j.h.6.f.k.i.q.h.h.f.",
"8.f.r.8.8.h.q.f.f.o.w.h.e.h.a.r.r.r.r.r.h.r.h.r.r.r.r.r.r.h.r.h.r.r.r.h.h.r.r.r.h.r.h.r.r.h.r.h.r.r.r.r.r.h.h.r.r.r.8.f.r.O.f.q.k.7.h.f.h.6.f.r.r.y.r.",
"f.h.j.r.r.k.r.f.a.a.h.q.q.q.f.h.q.h.r.r.q.r.r.q.r.r.r.q.r.t.r.r.q.r.h.q.r.q.r.r.r.r.r.r.f.r.q.r.q.r.r.f.r.r.q.r.q.q.r.r.r.e.a.i.k.r.j.h.j.r.h.h.r.r.r.",
"q.8.h.f.r.w.i.e.h.l.a.$.r.8.r.a.r.h.h.h.h.h.h.h.h.h.h.h.r.h.h.r.h.h.h.r.h.h.h.h.h.r.r.a.h.r.h.h.h.h.r.h.h.h.h.r.r.q.k.r.t.w.k.j.6.j.q.i.f.r.8.8.f.h.r.",
"j.r.r.r.7.g.s.w.0.j.u.g.h.h.8.h.r.r.r.r.r.r.r.r.r.r.q.r.@.` k * + +           X % % X $ 4 c ` +.r.r.r.r.r.r.r.r.h.f.k.i.t.0.e.e.o.r.q.k.t.a.w.t.r.q.q.",
"r.r.h.f.%.H.R.Z.A.U.j.q.8.z.%.,.4.4.4.4.4.4.4.4.4.4.,.| q X                                 & q ^ =.4.4.4.4.4.4.4.,.1.S.U.Y.E.Z.Y.x.t.i.p.o.U.R.I.L.L.",
"r.h.r.a.e.R.~.L.I.T.s.r.h.l.r.v.3.3.3.3.3.3.3.3.3.3.( -                                         . 5 } 3.4.3.3.3.4.3.,.S.Z.Y.Y.V.!.u.r.f.k.o.E.Q.L.L.P.",
"a.h.q.h.+.W.L.V.V.Y.e.r.f.h.X.3.v.4.4.4.v.4.4.4.4.{ %             , < , < 1 < 1 1 1 , +             X v ,.1.4.v.5.,.4.1.U.P.Q.L.V.y.q.f.h.o.L.V.Y.Y.Y.",
"h.o.k.r.0.A.R.L.Y.Y.e.e.r.h.q.3.3.4.4.4.4.1.4.4.#.X         # f ~ ~ ~ ~ ~ ~ ~ ~ ~ ~ ~ W d #             l *.4.3.v.,.:.1.Y.~.L.L.E.+.r.h.8.r.T.L.Y.L.L.",
"r.q.k.h.g.U.!.V.Y.Z.j.g.r.k.k.<.4.3.4.3.4.3.4.4.h       . t R ~ ~ ~ ~ ~ ~ ~ ~ ~ ~ ~ ~ ~ ~ ! d #           z *.4.4.4.G.G.U.U.Z.Y.H.w.q.q.h.j.Z.V.L.L.L.",
"q.q.r.i.u.j.a.s.a.t.u.h.q.f.l.1.3.<.,.4.4.4.4.{ .       2 R ~ ~ ~ ~ ~ ~ ~ ~ ~ ~ ~ ~ ~ ~ ~ ~ ~ I #         X x 4.3.5.3.5.g.y.e.a.j.u.a.X.h.r.I.Q.L.L.L.",
"a.r.q.$.g.q.X.r.q.q.a.h.f.q.k.3.4.4.4.4.3.4.=.6       # Q ~ ~ ~ ~ ~ ~ ~ ~ ~ ~ ~ ~ ~ ~ ~ ~ ~ ~ ~ R ,           ( ,.4.3.3.8.a.q.h.f.k.j.f.r.r.A.K.L.L.Y.",
"e.l.r.r.h.i.h.f.h.h.6.6.j.f.h.:.4.3.4.4.4.,.{ X     . s ~ ~ ~ ~ ~ ~ ~ ~ ~ ~ ~ ~ ~ ~ ~ ~ Q Q Q Q ~ U ,         6 } 1.<.3.r.q.$.r.f.6.q.h.a.s.W.P.Y.L.L.",
"r.t.q.r.h.h.h.h.d.k.f.f.f.8.8.4.4.3.4.3.4.3.C       < R ~ ~ ~ ~ ~ ~ ~ ~ ~ ~ T I d s i i u u u u i s <           z <.4.4.r.r.r.h.k.8.q.f.q.q.L.K.L.L.L.",
"h.8.o.r.r.O.r.f.q.k.h.k.6.k.j.v.3.<.,.4.4.2.e       s ~ ~ ~ ~ ~ ~ ~ Q a < .                                     . ^ 3.,.h.e.r.h.q.h.r.h.q.O.U.Y.L.L.Y.",
"o.k.f.i.k.,.v.:.F.<.,.F.:.v.1.>.4.4.4.3.,.| 3     . P ~ ~ ~ ~ ~ ~ T r                   + O ; ; ; ; O             % #.3.4.,.3.4.3.b.3.1.,.c.R.P.L.L.L.",
"h.r.r.h.r.3.3.4.4.4.3.3.1.4.4.3.4.4.4.3.4.[ %     # U ~ ~ ~ ~ ~ Q 2           + w Z ' m.M.N.N.B.^.B.N.n.M O         g ,.4.4.,.4.3.4.,.4.4.S.L.L.L.L.L.",
"r.r.r.r.r.3.4.1.4.3.4.4.3.4.4.4.,.4.4.4.4.^ X     1 Y ~ ~ ~ ~ ~ I         O ' /.)._._._.`.}..X.X.X}..X}.[.^.V         D ,.4.3.4.4.4.,.4.<.S.L.L.L.L.L.",
"f.r.h.r.h.3.3.4.3.4.4.4.4.3.<.3.4.<.3.3.3.z       u T ~ ~ ~ ~ ~ u       = L _._.)._._.[.oXOXOXOXOXOXOXOXOXoX{.N +     $ ..4.1.4.4.G.4.5.3.S.Y.L.L.L.L.",
"r.r.q.h.r.4.4.4.<.4.3.4.4.4.3.4.4.3.4.4.=.-       a T ~ ~ ~ ~ ~ r       M n._._._._._.|.OXOXOXOXOXOXOXOXOXOX+X(.V       l ;.3.4.4.4.3.4.3.S.T.L.Y.L.L.",
"r.r.f.r.r.1.3.4.<.3.3.3.4.4.1.,.4.4.4.-.b         d Y ~ ~ ~ ~ ~ r     = B K '._._._._.{.+XOXOXOXOXOXOXOXOXOXOX`.B.>     % [ 4.3.F.4.1.4.,.1.P.L.L.L.L.",
"f.r.r.r.h.3.4.4.4.4.4.4.4.3.=.( S b q X         @ d Y ~ ~ ~ ~ ~ 1     9 A G M.)._._._._.`.}.}.|..XXXoXXXXXXX}._._.'       h 4.4.4.4.3.4.,.1.L.L.L.L.L.",
"r.r.h.r.h.3.3.4.4.3.4.4.2._ e %                 , d Y ~ ~ ~ ~ ~ <     0 G G L N.)._._._._._._._._.`.[.[._.`._._._.B.      3 4.3.3.4.3.4.<.S.Y.L.L.L.L.",
"r.r.r.r.r.4.4.4.4.4.3.4./ .                     < d Y ~ ~ ~ ~ ~ 1     0 G G J L N._._._._._._._._._._._._._._._.B.' O       <.4.4.4.3.4.,.S.P.L.L.Y.L.",
"h.r.r.r.r.3.3.4.4.<.4...3           . .         r d U ~ ~ ~ ~ ~ 2     9 Z G G G G m.'._._._._._._.'.).'._./.N.' J G O       ,.1.3.4.4.4.4.S.L.L.L.L.L.",
"q.h.q.h.h.1.3.4.4.4.4.C         1 Y ~ ~ W       t d U ~ ~ ~ ~ ~ u     = B G G G G G K m.^./././.^.N.m.n.J G J G G G O     & 4.3.4.4.,.4.1.S.L.L.L.Y.L.",
"r.r.h.r.h.3.3.v.3.4.3.l       @ Y ~ ~ ~ W       u d U ~ ~ ~ ~ ~ P       w H G G G G G G J K K J J G G G G G G G G N       j 4.4.F.4.4.4.3.,.Y.L.L.L.L.",
"h.h.q.r.r.3.3.4.4.4.4.g       < Q ~ ~ ~ T       a d I ~ ~ ~ ~ ~ T .     O N G G G G G G G G G G G G G G G G G J Z ;       n 4.3.4.4.4.5.4.1.T.L.L.Y.L.",
"q.h.f.r.r.3.,.1.4.3.3.j       a ~ ~ ~ ~ U       i d I ~ ~ ~ ~ ~ ~ r       o V G G G G G G G G G G G G G J G A w O       3 ..<.3.F.4.1.4.,.1.L.L.L.L.L.",
"r.r.r.r.r.3.G.4.4.1.<.q       P ~ ~ ~ ~ I       a d P Q ~ ~ ~ ~ ~ P @       > M H G G G G G G G G G G H B w >           x ,.3.4.4.4.3.4.<.1.L.L.L.L.R.",
"r.r.r.r.r.4.3.4.4.4.4.j       f W ~ ~ ~ P       i d f W ~ ~ ~ ~ ~ W u         o 0 B G J G G G G G B M 0 +             X { 4.4.4.3.4.3.4.3.S.T.L.L.L.L.",
"f.r.r.h.r.4.3.4.3.4.3.j       d d f P f t       a d f T ~ ~ ~ ~ ~ ~ Q ,             + ; > ; O +                       n ,.4.4.3.4.4.,.4.,.S.Y.L.L.L.L.",
"f.r.q.r.r.,.3.v.4.4.3.h     . d d d d d t       a d d Y ~ ~ ~ ~ ~ ~ ~ I <                                 # < @       ..3.4.3.<.4.4.3.4.4.S.L.L.L.L.L.",
"r.r.h.h.h.,.F.4.3.4.,.j     @ d d d d d t       a d d P ~ ~ ~ ~ ~ ~ ~ ~ W I ,                       @ r U R ~ i       { ,.4.4.3.4.4.,.4.<.S.L.L.L.L.L.",
"r.r.r.r.r.3.4.4.<.F.1.q     @ f d d d d p       s d d d ~ ~ ~ ~ ~ ~ ~ ~ ~ ~ ~ R d u t r 2 r u s P T ~ ~ ~ ~ ~ i       F 4.3.4.3.3.4.3.v.3.1.Y.L.Y.L.L.",
"h.r.r.r.r.4.4.4.4.4.,.8     @ d d d d d p       s d d d R ~ ~ ~ ~ ~ ~ ~ ~ ~ ~ ~ ~ ~ ~ ~ ~ ~ ~ ~ ~ ~ ~ ~ ~ ~ ~ t       h ,.4.4.4.3.4.3.4.3.S.R.L.L.L.L.",
"q.r.r.h.r.4.3.4.3.1.3.5     @ d d d d d p       a d d d Y ~ ~ ~ ~ ~ ~ ~ ~ ~ ~ ~ ~ ~ ~ ~ ~ ~ ~ ~ ~ ~ ~ ~ ~ ~ ~ r       7 2.4.4.4.4.4.3.4.,.,.L.L.L.L.L.",
"h.r.q.r.r.3.3.4.4.4.4.3     @ f d d d d r       s d d d U Q ~ ~ ~ ~ ~ ~ ~ ~ ~ ~ ~ ~ ~ ~ ~ ~ ~ ~ ~ ~ ~ ~ ~ ~ W r       3 =.3.4.,.4.4.,.4.1.1.P.L.L.L.Y.",
"h.r.h.r.r.4.4.4.3.4.4.&     # d d d d d r       s d d d d R ~ ~ ~ ~ ~ ~ ~ ~ ~ ~ ~ ~ ~ ~ ~ ~ ~ ~ ~ ~ ~ ~ ~ ~ R r       3 *.4.4.4.3.4.3.4.,.1.I.L.Y.L.L.",
"q.h.q.r.h.3.3.4.4.4.4.:     , d d d d d r       s d d d d T ~ ~ ~ ~ ~ ~ ~ ~ ~ ~ ~ ~ ~ ~ ~ ~ ~ ~ ~ ~ ~ ~ ~ ~ Y u .     3 *.3.<.3.4.4.3.4.,.1.L.L.L.L.L.",
"h.r.q.h.r.4.3.4.4.,.4.:     < d d d d d r       a d d d d U ~ ~ ~ ~ ~ ~ ~ ~ ~ ~ ~ ~ ~ ~ ~ ~ ~ ~ ~ ~ ~ ~ ~ Q I a @     & #.4.3.4.3.4.3.4.4.S.R.L.L.L.L.",
"r.r.h.r.r.3.4.4.4.3.4.X     1 d d d d d y       a d d d d P Q ~ ~ ~ ~ ~ ~ ~ ~ ~ ~ ~ ~ ~ ~ ~ ~ ~ ~ ~ ~ ~ ~ W P i @     $ | 4.4.4.4.4.3.4.4.1.L.L.L.L.Y.",
"h.r.r.r.h.1.3.4.4.4.4.X     < d d d d d y       a d d d d d R ~ ~ ~ ~ ~ ~ ~ ~ ~ ~ ~ ~ ~ ~ ~ ~ ~ ~ ~ ~ ~ ~ R d p .     %  .4.,.4.4.4.4.4.<.S.Y.L.L.Y.L.",
"q.h.q.h.r.,.G.4.4.3.4.      , f d d d d p       s d d d d d P ~ ~ ~ ~ ~ ~ ~ ~ ~ ~ ~ ~ ~ ~ ~ ~ ~ ~ ~ ~ ~ Q I d y .     : &.1.3.4.4.4.3.4.3.S.Y.L.L.L.L.",
"q.r.q.h.r.,.3.4.3.4.4.      , d d d d d u       s f d d d d d T ~ ~ ~ ~ ~ ~ ~ ~ ~ ~ ~ ~ ~ ~ ~ ~ ~ ~ ~ ~ R f d y .     6 ;.3.4.4.3.4.1.4.,.1.L.P.L.L.Y.",
"h.r.h.r.h.3.4.4.<.3.3.$     , d d d d d i       d f d d d d d d Y ~ ~ ~ ~ ~ ~ ~ ~ ~ ~ ~ ~ ~ ~ ~ ~ ~ ~ Q f d d 2       7 2.3.3.4.4.4.3.4.,.1.I.L.L.L.L.",
"r.h.r.r.r.,.3.4.4.4.4.&     , d d d d d a       s f d d d d d d f U Q ~ ~ ~ ~ ~ ~ ~ ~ ~ ~ ~ ~ ~ ~ ~ W U d d d 1       j 3.4.4.<.3.4.3.4.,.1.Y.L.Y.L.L.",
"q.r.r.h.r.3.3.v.4.3.4.3     # d d d d d a       s d d d d d d d f f P R Q ~ ~ ~ ~ ~ ~ ~ ~ ~ ~ ~ Q T P d d d d ,       x 4.3.4.3.4.4.,.4.,.S.R.L.L.L.L.",
"h.r.r.r.r.4.3.4.4.1.4.j     . d d d d d a       a d d d d d d d d d d d d d P I U Y Y T T T U P d d d d d d d #       ( 4.,.4.4.G.4.,.4.4.S.L.L.L.L.L.",
"q.h.r.h.r.3.F.4.4.4.4.n       s d d d d s       a d d d d d d d d d d d d d d d d d d d d d d d d d d d d d d @       #.4.4.3.4.4.4.,.4.1.1.L.L.L.L.L.",
"r.r.q.h.r.4.3.v.4.4.3./ $     1 d d d d d       i d d d d d d d d d d d d d d d d d d d d d d d d d d d d d s       $ ,.4.4.<.3.3.4.4.4.3.1.Y.L.L.Y.L.",
"q.h.r.r.r.3.3.4.4.4.4.&.6     . t d d d d       u d d d d d d d d d d d d d d d d d d d d d d d d d d d d d p       5 4.3.3.4.4.4.4.3.4.3.1.T.L.L.L.L.",
"h.r.h.r.r.3.3.4.3.<.3.4.x         # i a r       p d d d d d d d d d d d d s d d d d d d d d d d d d d d d d 2       h 3.4.,.4.4.4.G.,.4.,.1.L.L.L.L.L.",
"h.r.r.r.r.3.3.c.3.4.4.4.{ %                     t d d d d d d d d d d s 1 @ @ # , 2 r y u u p y r t d d d a #       C 4.4.4.3.4.4.4.,.4.<.1.L.L.Y.L.L.",
"q.r.r.r.r.3.3.4.4.4.3.4.2.F X                   r d d d d d d d d d d t                         . p d d d u         ) 3.3.4.1.4.3.4.,.4.3.S.Y.L.L.L.L.",
"h.r.f.r.r.3.3.4.3.4.4.3.3.4.#.l X               1 d d d d d d d d d d ,                     . 1 s d d d d r         #.<.4.4.4.3.4.4.3.4.,.S.Y.L.L.L.Y.",
"r.r.q.r.r.1.4.,.4.v.:.5.F.1.,.;.{ C l h 6       < d d d d d d d d d d ,       $ & X       < i d d d d d d 2       . 2.,.4.4.1.1.4.4.4.F.4.1.L.Z.Y.L.L.",
"q.r.f.f.h.,.F.,.5.4.5.3.4.4.v.4.3.4.<.3.|       @ d d d d d d d d d d ,       D &.h       y d d d d d d d 1       6 4.3.3.3.3.<.4.3.3.4.5.F.K.Y.L.L.L.",
"k.8.d.k.k.4.S.,.:.,.3.3.5.3.3.3.3.4.3.4.,.+     . d d d d d d d d d d ,       m 4.b       u d d d d d d d <       q 1.<.3.3.3.3.2.3.,.b.4.S.K.Y.L.L.L.",
"f.f.h.8.i.,.1.1.1.G.c.3.4.3.5.3.4.4.4.4.4.:       d d d d d d d d d d ,       v 3.x       i d d d d d d d <       z 4.c.F.1.c.4.D.<.,.F.3.,.V.K.L.L.Y.",
"r.r.r.r.t.U.Y.Y.Y.U.g.h.r.r.r.<.,.4.4.3.3.7       a d d d d d d d d d ,       l 3.^       u d d d d d d d 1       ^ 3.G.U.L.Y.Z.U.l.j.6.h.s.L.Z.L.L.L.",
"q.w.r.0.w.V.L.L.!.T.e.a.q.j.e.G.4.4.3.<.<.q       i d d d d d d d d d ,       n <.[       y d d d d d d d 2     . } 3.c.U.P.P.L.Y.i.h.$.f.e.W.L.Y.L.L.",
"h.f.k.e.s.Y.L.P.L.Z.e.h.o.h.r.3.3.4.3.1.3.l       2 d d d d d d d d d .       ) 3.;.X     # i d d d d d y @     7 ;.3.1.L.P.P.L.V.a.r.q.f.a.L.L.L.L.L.",
"d.q.k.h.s.Z.V.L.L.Z.a.h.h.h.h.3.4.4.4.4.3.v       , d d d d d d d d i       : ..,.,.h       @ , , , , , .     X F 3.3.1.Z.L.Y.Y.L.r.r.k.h.r.L.Y.L.L.Y.",
"i.g.o.a.w.~.U.R.E.~.w.0.f.k.q.3.3.4.4.4.<.m       . i d d d d d d a #       l =.4.4.{ %                       b ;.1.1.D.U.U.V.L.Y.w.i.r.h.8.R.P.L.L.L.",
"8.f.f.8.6.j.o.q.+.w.u.8.f.d.r.b.4.4.4.4.4.[ %       @ 2 p u u p 1 .         / 4.4.4.4./ 3                 % S 4.5.3.3.<.j.8.i.r.t.7.f.g.f.a.L.L.L.Y.L.",
"k.i.a.g.w.w.e.q.t.q.k.h.h.X.h.4.3.3.<.3.3.;.z           . . @ .           % *.,.3.3.3.2.| / D D F m v b D { ;.,.3.3.F.3.h.r.r.r.i.g.r.a.q.w.C.L.L.L.Y.",
"w.a.l.0.0.a.s.t.f.X.q.q.h.f.h.4.4.4.4.4.4.4.*.6                         & ( 4.4.5.4.4.4.4.4.4.4.3.4.4.4.4.4.4.4.F.<.c.3.h.$.q.a.r.o.i.k.r.O.V.P.L.L.L.",
"$.f.k.h.d.k.z.d.8.h.h.h.i.q.o.,.4.4.,.4.3.4.,.2.n X                   z ..3.4.,.4.4.,.3.4.4.,.1.4.3.4.3.4.4.3.4.4.5.v.:.z.q.h.f.j.o.h.r.p.r.T.Q.L.L.L.",
"r.r.6.t.q.j.o.f.r.r.e.r.s.w.O.c.1.1.1.1.1.S.1.1.S.2.[ b z x x z S [ =.S.1.1.S.S.,.1.1.1.,.1.S.S.1.1.1.1.,.1.1.1.1.S.G.1.a.a.r.r.i.7.w.O.a.g.T.V.L.Y.L.",
"Y.I.V.L.L.L.Y.T.R.Y.L.A.Y.Y.Y.R.Y.Y.Y.P.Y.L.R.L.R.Y.P.L.Y.L.Y.R.L.P.I.L.Y.Y.P.R.R.L.Y.P.Y.P.Y.P.Y.Y.L.P.Y.P.Y.Y.Y.P.L.L.P.Y.L.Y.R.U.V.V.I.K.W.K.L.L.L.",
"K.R.P.L.L.I.R.V.W.V.Q.L.I.K.Z.K.L.L.L.L.L.L.L.L.L.L.L.L.L.L.L.L.L.L.L.L.L.L.L.L.L.L.L.L.L.L.L.L.L.L.L.L.L.L.L.L.Z.Y.L.L.Y.Y.K.P.P.V.L.P.!.K.L.L.L.L.L.",
"L.L.L.L.L.L.L.L.Y.L.L.L.Y.L.L.L.Y.L.L.L.Y.L.L.L.L.L.L.L.L.L.L.L.L.L.L.L.L.L.Y.L.L.L.L.Y.L.L.L.L.L.L.L.L.L.Y.L.L.L.L.L.L.L.L.Y.L.L.L.L.L.L.L.Y.L.L.L.L.",
"L.K.L.L.Y.L.L.L.L.L.L.Y.L.L.L.L.L.L.L.Y.L.L.L.Y.L.L.L.L.Y.L.Y.L.L.L.Y.L.L.L.L.L.Y.L.L.L.Y.L.L.Y.L.L.L.L.L.L.L.L.Y.L.Y.L.L.L.L.L.Y.L.L.L.L.L.L.L.L.Y.L.",
"L.L.Y.L.L.L.L.L.L.L.L.L.L.L.L.Y.L.L.L.L.L.L.L.L.L.L.L.L.L.L.L.L.L.Y.L.L.Y.L.L.L.L.L.L.L.L.L.L.L.L.L.L.L.L.L.Y.L.L.L.L.L.Y.L.L.L.L.L.Y.L.Y.L.L.L.Y.L.L."
};
