/* XPM */
static char *f40a88fc5e1d4ebac1d6a76e0b96bd43UQrrszj6wnYyi0Lk[] = {
/* columns rows colors chars-per-pixel */
"75 75 111 2 ",
"   c #C254D3",
".  c #BE53CA",
"X  c #BD53C4",
"o  c #C35ACB",
"O  c #C155C5",
"+  c #C154CC",
"@  c #BE58D5",
"#  c #BB4ED1",
"$  c #BD52D2",
"%  c #BC4ECB",
"&  c #B752CC",
"*  c #BE59BE",
"=  c #BB4EC6",
"-  c #BF59CA",
";  c #BE5AC4",
":  c #C156BD",
">  c #C359D0",
",  c #B64CCC",
"<  c #C15AC4",
"1  c #B754C3",
"2  c #B64BD7",
"3  c #C259BD",
"4  c #F09EAA",
"5  c #F4A4AD",
"6  c #F2AA9B",
"7  c #F6AC93",
"8  c #F1A1A4",
"9  c #C24FD2",
"0  c #DF7CB5",
"q  c #E07CB8",
"w  c #E380BA",
"e  c #DC7EB9",
"r  c #DE81B9",
"t  c #F4A4A3",
"y  c #F1AAA6",
"u  c #F3AAA3",
"i  c #F4AA9D",
"p  c #F1A7A4",
"a  c #C361C4",
"s  c #BF51D8",
"d  c #EEAAA5",
"f  c #EDA9AA",
"g  c #F4A7B1",
"h  c #F2A8B9",
"j  c #EFACA3",
"k  c #EFA7AA",
"l  c #F1A4AC",
"z  c #E17EC4",
"x  c #E17DB5",
"c  c #E381B5",
"v  c #F3A8A3",
"b  c #F2ACA4",
"n  c #EBA69E",
"m  c #B452BF",
"M  c #F7ABAB",
"N  c #EDAAB2",
"B  c #EDACA6",
"V  c #EFABA8",
"C  c #F5AD9E",
"Z  c #EDAA9C",
"A  c #F0AAA2",
"S  c #B651D0",
"D  c #BA4FBE",
"F  c #E177B9",
"G  c #B759CB",
"H  c #EAACA1",
"J  c #F3A990",
"K  c #EEABA2",
"L  c #DE7EAD",
"P  c #F6ABA6",
"I  c #F1A9B4",
"U  c #EBAB9F",
"Y  c #F9ABA9",
"T  c #F1A39F",
"R  c #E580B8",
"E  c #F3AB9D",
"W  c #F3A3B0",
"Q  c #B74ADB",
"!  c #BD54BD",
"~  c #F0A8B3",
"^  c #EEA791",
"/  c #E283AF",
"(  c #DB74BC",
")  c #C14DCE",
"_  c #ECA5A3",
"`  c #EEA8A8",
"'  c #DC7DA7",
"]  c #DD7BC2",
"[  c #E27DC9",
"{  c #EDAAA4",
"}  c #F1AAA8",
"|  c #5A6988",
" . c #262B44",
".. c #3A4466",
"X. c #D77BBC",
"o. c #8B9BB4",
"O. c #DF80AC",
"+. c #DE82B4",
"@. c #F4A4A5",
"#. c #F2A2A5",
"$. c #EDACA8",
"%. c #C24FC6",
"&. c #F3A0BE",
"*. c #F29FB1",
"=. c #F1A6A2",
"-. c #B44FC7",
";. c #BF4FD9",
":. c #F2AB95",
">. c #F9B3A9",
",. c #F1A9AC",
"<. c #F3B1A1",
/* pixels */
"  . X o O + X   o . . @ . . . O + X + . O . X + X . . + . O . + X + + X + X + . + X + . O . . + X . X + + X + . X X + O # X $ o X o + X O   # X + . + ",
"% O . % %   X X X X X o . & $ . . . . . . . + . + . . . . . . . . . . . . . . + . . . . . . . . . + . . . + . . o % % O . * O =   % + O   = + X . - . ",
"O + o . .   . ; #   . X X X O . . . . . . X + . + X X + X + . . . X . . + X X + X + . . + . X . X . + X . X . . X X % . $ . $ #   # o + + X O + X . X ",
"+ % . O . ; # & + o $ : X . . $ + . + o + + + . + . + + + . + o + + + + + + . + . + + o + . o + + + + + . + + o . X   + - ; > + X o X # O . % $ + . + ",
"o . # . , < $ ; 1 o 2 < + + % + . . . . . . . . . . . . . . . . . + . . . . . . . . . . . . . . . % o . . % . . + +   # ; 1 & & X . X   - . - . X . ; ",
". . o O 3 4 5 6 7 8 o X # 9 : 0 q q q q q q q q q q q q q q q q q q q q q q q q q q q q q q q q q q q q q q w q e 0 q r t y u i p a ; # s * 8 p d f f ",
"X + . # & g h j k l @ X +   + z x x x x x x x x x q c x x w x x x x q w x x x x x x c x x x x x x q w q q x x q q q 0 r v b y n g 2 + O   m M N f B V ",
"$ + X o 1 C j Z j A S X O + D x z q q q z F q q q q q z F q e z z q q q e z q F z F e z q F q q q q q q q z q q q x q e v f f f 6 G = < + X y H v v v ",
"o X $ . 1 J f K y u S X .   X 0 q q q q q q q q q q q 0 q q q q q q q q q q q q q q 0 q q q q q q q q q q q q q F 0 L F P I B U Y m . o % . 5 j y d y ",
"= O   + o 8 g n v T - . .     0 q q q q q q q q q q q x q 0 q q q q q q q q q q q q q q q q q q q q q q q q q q F z x R 8 p E v W ; X X   . T Z d d d ",
"X X . # 2 o @ $ $ - Q o = O   e q q x q 0 q q q q q q q q q q q q q q q q q q q q q q q 0 q q q q q q q q q q q x x x z ; $ . $ < 2 # ! + @ K ~ d d d ",
"$ . X 3 < X X X . 1 . o + X + 0 0 F 0 q q q q q q 0 q q q q q q q q q 0 0 q q q q q q q q q q q q 0 q q 0 q 0 q q q x x & $ . . O   + O . X ^ K d y d ",
"G > . X . # + O + + = X + < + / q q q q 0 q q q q q q q 0 q q q q q q q q q q q x 0 q q q q q q q q q q q q q q 0 e ( x X X 3 . + X = ) # @ b N d v d ",
". . X . + 9 + + )   O O < = % F q 0 q q q q q q q q q q q q q q q q q q q q q q q q q q q q q q q q q q q q q q 0 q q q . . X     % ! o X X K _ d ` d ",
"+ . X . . ! . X X o $   = + o z q q q q q q q q q q q q q q q q q q q q q 0 q q q q q q q q 0 q q q q q q q q q 0 w R 0 o & % + X . X $ X 3 K E y d d ",
"!   O # o 0 z x x ( 0 R ' z ] ' q q q q q q q q q 0 q q q q q q q q 0 q q q q q q q 0 q q q q q q 0 q q q q 0 0 0 z q x F 0 x q x [ x 0 0 ] 5 d d d d ",
". + + . + q x q q 0 q q q q q q q q q q q q q q q q q q x 0 q q q q q q q q q q F 0 q q q q q q q q q q q q q q q q q x 0 q q q w q x q q e p { d d y ",
". . X . . q x q q q q q q q q q q q q q q q q 0 q q q q q q q q q q q q q q q q 0 x q q 0 q q q q q q q q q q q q q q q q q q q q q x q q e } { f d d ",
". . . . . x x q q q q q q q q q q q 0 q q q q | | q q q q q q | | | q q q q q 0 | | | q q q q q q | | | q q q q 0 q q q q q q 0 q q x q q e y d d y d ",
"O . + . . e w F q q q q q q q 0 q q q q q q q | | q q q q q q | | | 0 q q q q q | | | q q q q q q | | | 0 q q q q q q q q q q q q q x z 0 e } d d d d ",
". . . . + x x e q q q q q q q q q q q q q q q | | q q q q 0 q | | | q q q q q q | | | q q q q q q | | | q q q q q q 0 q q q q q q q q q 0 0 } { d y K ",
"+ . O . . q w F q q 0 q q q | | | q q q q q q  . .......q q q  . . ............. . . .0 q q | | |  . . .q q q q q | | | q q 0 q q q x q 0 r l { d d y ",
"X + . . . q x q q q q q q q | | | q q 0 q q q  . .......q q q  . . ............. . . .q q q | | |  . . .q 0 q q q | | | q q q q x q x q e X.} d d d d ",
". . . o . q q q q q q q 0 q  . . .......q q q  . . . . ....... . . . . . . . . . . . ....... . . . . . .q q q | |  . . .q q q q q q x q 0 r y d y d d ",
". . X + . q x q q q q q q q  . . .......q q q  . . . . ....... . . . . . . . . . . . ....... . . . . . .0 q q | |  . . .q q q q w q x q q e l H d d y ",
". + . . . q x F q q q q q q  . . .......q q x  . . . . ....... . . . . . . . . . . . ....... . . . . . .q q q | |  . . .q q q q q q x q q e } { y d d ",
". + O . . 0 x ] o.o.o.q q q  . . . . . ....... . . . . . . . . . . ............. . . . . . . . . . . . ....... . . . . .q q q o.o.o.x q q e } d d d d ",
"X . . . o x x q o.o.o.q q q  . . . . . ....... . . . . . . . . . . ............. . . . . . . . . . . . ....... . . . . .q q q o.o.o.x z 0 e y d y d K ",
"+ . + . . x x q o.o.o.q q q  . . . . . ....... . . . . . . . . . . ............. . . . . . . . . . . . ....... . . . . .q q q o.o.o.x q 0 0 } { d d y ",
"+ . . . . x x z ......| | |  . . . . . . . . . . .q q q q q q q q q | | | ......q q q q q q q q q  . . . . . . . . . . .......o.o.o.0 q e r l { d d d ",
"X . . . . q x q ......| | |  . . . . . . . . . . .0 q q q q q q q q | | | ......q q q q 0 q q q 0  . . . . . . . . . . .......o.o.o.x q 0 X.} d d d d ",
"+ . O . . x x q ......| | |  . . . . . . . . . . .q q q 0 q q q q q | | | ......q q q q q q q q q  . . . . . . . . . . .......o.o.o.q q x r p d d p d ",
". . X + . x x z | | | ...... . . . . . .q q q 0 q q q q q 0 q q q q | | | ......q q q q 0 q 0 q q q q q q q q  . . . . .o.o.o.......q q q r p { d f d ",
"X . + . . x x q | | | ...... . . . . . .q q q q q q q q q x q q q q | | | ......q q q q q q q q q q q q q q q  . . . . .o.o.o.......x q q e } B d d y ",
"+ . . . . q x e | | | ...... . . . . . .q q q q q q q 0 q q q q q q | | | ......q q q 0 q q q q q q q q q q q  . . . . .o.o.o.......x z q e y d d y d ",
"X + + . . x w F | | | ......o.o.o.q q q q q q q q q q q | | | | | | ........................q q q 0 q q q q q 0 q o.o.o....... . . .x q q e p d d d d ",
"+ . + . . q x q | | | ......o.o.o.q q q q q x q q q q q | | | | | | ........................q q q q q q q q q q q o.o.o....... . . .q q 0 e } H d d y ",
". . X . . 0 x q | | | ......o.o.o.0 q q q q 0 q 0 q q q | | | | | | ........................q q q q q q q 0 q q q o.o.o....... . . .x q 0 e p B d y d ",
". . + . + x q q | | | | | | ......| | | q q q o.o.q q q ....................................q q q o.o.o.q q q o.o.o.o.o....... . . .q q 0 e l j d d d ",
"+ . O . . q x q | | | | | | ......| | | q q q o.o.q q q ....................................q q q o.o.o.q q q o.o.o.o.o....... . . .x F e e y B d y d ",
"X + + . + x x 0 | | | | | | ......| | | q q q o.o.q q q ....................................q q q o.o.o.0 q q o.o.o.o.o....... . . .x q q e l H d y d ",
". . X . . q w F | | | | | | ............| | | o.o.| | |  . . . . . .o.o.o.| | |  . . . . . .o.o.o.......| | | .......... . . . . . .x q q r } { d d ` ",
". . . . o x x e | | | | | | ............| | | o.o.| | |  . . . . . .o.o.o.| | |  . . . . . .o.o.o.......| | | .......... . . . . . .q z q e p d d y y ",
"O . . + . q q q | | | | | | ............| | | o.o.| | |  . . . . . .o.o.o.| | |  . . . . . .o.o.o.......| | | .......... . . . . . .q q q e } d d K d ",
". + + . . q x F q q 0 | | | | | | ......................| | | | | | ............| | | | | | ...................... . . . . . .q q q x q 0 0 y H d d d ",
". . X . . q q e q q q | | | | | | ......................| | | | | | ............| | | | | | ...................... . . . . . .q e w x q 0 r l B p d y ",
"X + . . . x q q q q 0 | | | | | | ......................| | | | | | ............| | | | | | ...................... . . . . . .q q q q q e e l B y d d ",
"+ . . . o q w q q q q q q q | | | ............................ . . . . . . . . . . . ......................... . . . . .q q q q q q x q 0 0 p d d d d ",
"X . . + . q x q q q q q q q | | | ............................ . . . . . . . . . . . ......................... . . . . .q 0 q q w q x q q e } { d d d ",
"+ . X . . x x q q q q q q q | | | ............................ . . . . . . . . . . . ......................... . . . . .q q q q q q 0 q q r } { d d d ",
"+ . + . + q x z q q e q q q q q q | | | ................ . . .| | | | | | ...... . . . . . . . . . . . . . . . . .q q q q q q q q q x q q e } d d d d ",
". + X . . x x q q q q q q q q q q | | | ................ . . .| | | | | | ...... . . . . . . . . . . . . . . . . .0 q q q q q q q q x z 0 e p d d d y ",
"X + + . . q x e q q q q q q q q q | | | ................ . . .| | | | | | ...... . . . . . . . . . . . . . . . . .q q q q q q q q q 0 q e 0 f { y d d ",
". . X . . q x F q q q q q q q q q q q q q q 0 q q q q 0  . . ....... . . . . . . . . . . . .0 q q q q q q q q q q q q q 0 q q q q w x q 0 e y { d d d ",
"+ . . + + x x q 0 q q q q 0 q q q q q q q q q q x q q F  . . ....... . . . . . . . . . . . .q q q q q 0 q q q q q q q q q q q q q q q q q e y d y d y ",
"X + . . . q x q q q q q q q q q 0 q q q q q q q 0 q q q q q q  . . . . . . . . . . . .q q q q q q q q q q q 0 q q 0 q q 0 q q q q q 0 q 0 0 y B d d d ",
". . X . + e q 0 F q x F c r 0 x 0 q q q q q q q q q q q q q q  . . . . . . . . . . . .q q q q 0 q 0 q q q q q q x x 0 0 z q 0 X.q q q c q 0 d T y d y ",
"X . X O + 0 x 0 q z x x F e q z q q q q q q q q q q q q q q q  . . . . . . . . . . . .q q q q q q q q q q q q q x q 0 q q q q q 0 x x q q r _ t K d d ",
"  % )     q c e O.x x x q 0 R F q q 0 x q q 0 q q x q 0 q q q q q q q q q 0 q q q q q q q 0 q q q q q q q q q q q q q 0 q x x x X.x 0 z F w _ K ` v d ",
"O O + . # 0 0 X.X.w ( x q x q x q q q q q q q q q 0 q q q q q q q q q q q q q q q q q q q x q q q q q q q q q q x x q ] R e 0 ( +.( 0 w x x U K d d d ",
". . . . - @.b y P 8 < % = . + ( q q q q q q 0 q q q q q q q q q q q q q q q q q q 0 q q q q q q q q q q q q q q 0 q x w t ` v C #.> + X ) @ d A d d d ",
"X ; G X 1 K A f N } & $ < o & w q q q q q q q q q q q q q q q q q 0 q q q q x q q q q q q q q q q q 0 q q q q q q x x e K f f { u # + 3 O & B t d d y ",
"+ O 9 & $ b V f d i . . ! O . x q q q q q q q q q q 0 q 0 q q q q q q q F q 0 q q q q q q 0 x 0 q q q q q q q q 0 q x F U f $.d U # . X %.. K K d y d ",
"+ X 9 + . i U d K K @ + + ) + q 0 q q q q q q q q q q q q q q q q q q q 0 q q q q q q q q q q q q q q q q q q q X.q x z 6 f d v K > . # O o K y d d d ",
"# < ! $ * &.T y Y *.< = X   ! q q q q q q q q q q q q q q q q q q q q q q q q q q q q q q q q q q q q q q q q q q e X.c _ =.U K t ; $ . + # } f d y d ",
") O O ) = o ! ; m ; 2 . O . $ [ q q q q q q F q q q q q z q q q q q q z q q q q z q w q q q q z q q q q w z q q F x x ( +   $ . - , X 3 O $ y H d d d ",
"  $ @ < * X -.G . . @ + . X . q x q q x q x q q q q q q q q q x q x 0 0 q q x x x q q 0 x 0 0 q q q x q x q q x x x x x + X . . # X . 9 X 1 Z j d y p ",
"X $ @ m 1 $ @ < O D ! X + O + q F q F q q q q q q q q q F q q q F q q q q q q F q F q q F q q q q q F q q q F q x 0 ] x + : X $ . * $   O * 6 N d d d ",
": + + + ) 9 ) %.%   + . # X m 0 q q x q q q x q q x q 0 q q q q 0 e q q x x q x q q x q q q x x q q q q q q q q q q z c ) %.O O + X + O ;.. k ~ y d d ",
"% . . - . o O O . o . . $ < : ] r r e e e e r X.r X.r r w r r e r r 0 r e r X.r e r r X.r 0 r X.r 0 e e r e e r e r q 0 @ $ $ % $ & X ! $ < l n d d d ",
"K ` _ j K d f } 5 A v :.u y K 5 } } l y y y y } y u } l } } y p } l } y y @.p l } } } } y } l y y } y y l } y p d f f A k K K d @.v i Z k _ >._ y d d ",
"K } k K K f ,.i j Z N B N _ <._ d { B H d d d { d d { { { { { d { { { d B B d K d d { { d { j { { d d B H B d d v b v ` A v K ` f U H N ~ K { H d d d ",
"` K ` K d d d d d d d y d d d d y d d p d y d y d d y d d d d d d d y d y d K ` d d K ` d d d d d d d d d d d d d d ` v d d d d B d d d d d y d y d y ",
"K ` ` p v ` d d y d d d v ` d d d d d d d d ` d d d d d d y y d d d d d d d y d y d y d y d y d d d d d y d y d d y d d y d d y d y y d d d d d K d d ",
"K d K p y K d ` d y d d y K d d d d y K d d d d d y d d y d d d d d d v y d d d K ` d y d d y d d d y d d d d y d d d d d d y d y d d d d y d d y d d "
};
