/* XPM */
static char *c6a75d8807d041d3c0f26c1eff60a8d4k0jEe44BIu9Em70k[] = {
/* columns rows colors chars-per-pixel */
"75 75 112 2 ",
"   c #C254D3",
".  c #BE53CA",
"X  c #BD53C4",
"o  c #C35ACB",
"O  c #C155C5",
"+  c #C154CC",
"@  c #BE58D5",
"#  c #BB4ED1",
"$  c #BD52D2",
"%  c #BC4ECB",
"&  c #B752CC",
"*  c #BE59BE",
"=  c #BB4EC6",
"-  c #BF59CA",
";  c #BE5AC4",
":  c #C156BD",
">  c #C359D0",
",  c #B64CCC",
"<  c #C15AC4",
"1  c #B754C3",
"2  c #B64BD7",
"3  c #C259BD",
"4  c #F09EAA",
"5  c #F4A4AD",
"6  c #F2AA9B",
"7  c #F6AC93",
"8  c #F1A1A4",
"9  c #C24FD2",
"0  c #DF7CB5",
"q  c #E07CB8",
"w  c #E380BA",
"e  c #DC7EB9",
"r  c #DE81B9",
"t  c #F4A4A3",
"y  c #F1AAA6",
"u  c #F3AAA3",
"i  c #F4AA9D",
"p  c #F1A7A4",
"a  c #C361C4",
"s  c #BF51D8",
"d  c #EEAAA5",
"f  c #EDA9AA",
"g  c #F4A7B1",
"h  c #F2A8B9",
"j  c #EFACA3",
"k  c #EFA7AA",
"l  c #F1A4AC",
"z  c #E17EC4",
"x  c #E17DB5",
"c  c #E381B5",
"v  c #5A6988",
"b  c #181425",
"n  c #F3A8A3",
"m  c #F2ACA4",
"M  c #EBA69E",
"N  c #B452BF",
"B  c #F7ABAB",
"V  c #EDAAB2",
"C  c #EDACA6",
"Z  c #EFABA8",
"A  c #F5AD9E",
"S  c #EDAA9C",
"D  c #F0AAA2",
"F  c #B651D0",
"G  c #BA4FBE",
"H  c #E177B9",
"J  c #B759CB",
"K  c #EAACA1",
"L  c #F3A990",
"P  c #EEABA2",
"I  c #DE7EAD",
"U  c #F6ABA6",
"Y  c #F1A9B4",
"T  c #EBAB9F",
"R  c #F9ABA9",
"E  c #F1A39F",
"W  c #3A4466",
"Q  c #E580B8",
"!  c #F3AB9D",
"~  c #F3A3B0",
"^  c #B74ADB",
"/  c #BD54BD",
"(  c #F0A8B3",
")  c #EEA791",
"_  c #E283AF",
"`  c #262B44",
"'  c #DB74BC",
"]  c #C14DCE",
"[  c #ECA5A3",
"{  c #EEA8A8",
"}  c #DC7DA7",
"|  c #DD7BC2",
" . c white",
".. c #E27DC9",
"X. c #EDAAA4",
"o. c #F1AAA8",
"O. c #D77BBC",
"+. c #DF80AC",
"@. c #DE82B4",
"#. c #F4A4A5",
"$. c #F2A2A5",
"%. c #EDACA8",
"&. c #C24FC6",
"*. c #F3A0BE",
"=. c #F29FB1",
"-. c #F1A6A2",
";. c #B44FC7",
":. c #BF4FD9",
">. c #F2AB95",
",. c #F9B3A9",
"<. c #F1A9AC",
"1. c #F3B1A1",
/* pixels */
"  . X o O + X   o . . @ . . . O + X + . O . X + X . . + . O . + X + + X + X + . + X + . O . . + X . X + + X + . X X + O # X $ o X o + X O   # X + . + ",
"% O . % %   X X X X X o . & $ . . . . . . . + . + . . . . . . . . . . . . . . + . . . . . . . . . + . . . + . . o % % O . * O =   % + O   = + X . - . ",
"O + o . .   . ; #   . X X X O . . . . . . X + . + X X + X + . . . X . . + X X + X + . . + . X . X . + X . X . . X X % . $ . $ #   # o + + X O + X . X ",
"+ % . O . ; # & + o $ : X . . $ + . + o + + + . + . + + + . + o + + + + + + . + . + + o + . o + + + + + . + + o . X   + - ; > + X o X # O . % $ + . + ",
"o . # . , < $ ; 1 o 2 < + + % + . . . . . . . . . . . . . . . . . + . . . . . . . . . . . . . . . % o . . % . . + +   # ; 1 & & X . X   - . - . X . ; ",
". . o O 3 4 5 6 7 8 o X # 9 : 0 q q q q q q q q q q q q q q q q q q q q q q q q q q q q q q q q q q q q q q w q e 0 q r t y u i p a ; # s * 8 p d f f ",
"X + . # & g h j k l @ X +   + z x x x x x x x x x q c x x v v v b b b b b b v v v v v v v v v x x q w q q x x q q q 0 r n m y M g 2 + O   N B V f C Z ",
"$ + X o 1 A j S j D F X O + G x z q q q z H q q q q q z H v v v b b b b b b v v v v v v v v v q q q q q q z q q q x q e n f f f 6 J = < + X y K n n n ",
"o X $ . 1 L f P y u F X .   X 0 q q q q q q q q q q q 0 q v v v b b b b b b v v v v v v v v v q q q q q q q q q H 0 I H U Y C T R N . o % . 5 j y d y ",
"= O   + o 8 g M n E - . .     0 q q q q q q q q q q q v v v v v v v v v v v b b b b b b W W W W W W q q q q q q H z x Q 8 p ! n ~ ; X X   . E S d d d ",
"X X . # 2 o @ $ $ - ^ o = O   e q q x q 0 q q q q q q v v v v v v v v v v v b b b b b b W W W W W W q q q q q q x x x z ; $ . $ < 2 # / + @ P ( d d d ",
"$ . X 3 < X X X . 1 . o + X + 0 0 H 0 q q q q q q 0 q v v v v v v v v v v v b b b b b b W W W W W W q q 0 q 0 q q q x x & $ . . O   + O . X ) P d y d ",
"J > . X . # + O + + = X + < + _ q q q q 0 q q q q q q v v v v v b b b b b b ` ` ` ` ` ` W W W W W W q q q q q q 0 e ' x X X 3 . + X = ] # @ m V d n d ",
". . X . + 9 + + ]   O O < = % H q 0 q q q q q q q q q v v v v v b b b b b b ` ` ` ` ` ` W W W W W W q q q q q q 0 q q q . . X     % / o X X P [ d { d ",
"+ . X . . / . X X o $   = + o z q q q q q q q q q q q v v v v v b b b b b b ` ` ` ` ` ` W W W W W W q q q q q q 0 w Q 0 o & % + X . X $ X 3 P ! y d d ",
"/   O # o 0 z x x ' 0 Q } z |  . . . . . .q q q q 0 q v v W W W ` ` ` ` ` ` b b b b b b W W W W W W q q q  . . . . . .x H 0 x q x ..x 0 0 | 5 d d d d ",
". + + . + q x q q 0 q q q q q  . . . . . .q q q q q q v v W W W ` ` ` ` ` ` b b b b b b W W W W W W q q q  . . . . . .x 0 q q q w q x q q e p X.d d y ",
". . X . . q x q q q q q q q q  . . . . . .q q 0 q q q v v W W W ` ` ` ` ` ` b b b b b b W W W W W W q q q  . . . . . .q q q q q q q x q q e o.X.f d d ",
". . . . . x x q q q q q  . . . . . . . . .q q q 0 q q W W W W W b b b b b b ` ` ` ` ` ` W W W ` ` ` q q q q q q  . . . . .q q 0 q q x q q e y d d y d ",
"O . + . . e w H q q q q  . . . . . . . . .q q q q q q W W W W W b b b b b b ` ` ` ` ` ` W W W ` ` ` q 0 0 q q q  . . . . .q q q q q x z 0 e o.d d d d ",
". . . . + x x e q q q q  . . . . . . . . .q q 0 q q q W W W W W b b b b b b ` ` ` ` ` ` W W W ` ` ` q q q q q q  . . . . .q q q q q q q 0 0 o.X.d y P ",
"+ . O . . q w H q  . . . . . . . . .q q q q q q q 0 q v v W W W ` ` ` ` ` ` b b b b b b W W W ` ` ` q q q q q q  . . . . .q 0 q q q x q 0 r l X.d d y ",
"X + . . . q x q q  . . . . . . . . .q 0 q q q q q q q v v W W W ` ` ` ` ` ` b b b b b b W W W ` ` ` q q q 0 q q  . . . . .q q q x q x q e O.o.d d d d ",
". . . o . q q q q  . . . . . .0 x q q q q q q q q q q W W W W W b b b b b b ` ` ` ` ` ` W W W ` ` ` 0 q q q q q q q q  . . . . .q q x q 0 r y d y d d ",
". . X + . q x q q  . . . . . .q 0 q q q q q q q q q q W W W W W b b b b b b ` ` ` ` ` ` W W W ` ` ` q q 0 q q q q q q  . . . . .w q x q q e l K d d y ",
". + . . . q x H q  . . . . . .q q q q q q q x 0 q q q W W W W W b b b b b b ` ` ` ` ` ` W W W ` ` ` q q q q q q x q q  . . . . .q q x q q e o.X.y d d ",
". + O . . 0 x | q  . . .q q 0 q q q 0 q q q q q q q q W W W W W ` ` ` ` ` ` b b b b b b ` ` ` ` ` ` q q q q q q 0 q q  . . . . .q q x q q e o.d d d d ",
"X . . . o x x q q  . . .q q q q q q q q q q 0 q q q q W W W W W ` ` ` ` ` ` b b b b b b ` ` ` ` ` ` q q q q q q q q q  . . . . .q q x z 0 e y d y d P ",
"+ . + . . x x q q  . . .q q q q q q q q q q q q q q q W W W W W ` ` ` ` ` ` b b b b b b ` ` ` ` ` ` q q q q 0 q q q 0  . . . . .q q x q 0 0 o.X.d d y ",
"+ . . . . x x z q  . . .q q q q q q q q q q q q q q q q q W W W W W W b b b ` ` ` W W W ` ` ` q q q 0 x q q q q q q q q q  . . .q q 0 q e r l X.d d d ",
"X . . . . q x q q  . . .q q x q q 0 q q q q q q q 0 q q q W W W W W W b b b ` ` ` W W W ` ` ` q 0 q q q q q x q q q q q q  . . .q q x q 0 O.o.d d d d ",
"+ . O . . x x q q  . . .q q 0 q q q q q 0 q q q q q q q 0 W W W W W W b b b ` ` ` W W W ` ` ` q q q q q q q 0 q q q q q q  . . .x q q q x r p d d p d ",
". . X + . x x z 0  . . .q q q q q q q q q q q 0 q q q q q W W W W W W ` ` ` b b b W W W ` ` ` q q q q q q q q 0 q q H 0 q q q q q q q q q r p X.d f d ",
"X . + . . x x q q  . . .q q q q q q q 0 q q q q q q q q q W W W W W W ` ` ` b b b W W W ` ` ` q q q q q q q q q q q 0 x q q q q q q x q q e o.C d d y ",
"+ . . . . q x e q  . . .0 q q q q q q q q q q q q q q 0 q W W W W W W ` ` ` b b b W W W ` ` ` q q q q q q q q q q q q q q q q q x q x z q e y d d y d ",
"X + + . . x w H q q q q q q q q q q q q q q q q q q q q q v v v W W W b b b ` ` ` ` ` ` ` ` ` q q 0 q q q q q 0 q q q q q q q 0 q q x q q e p d d d d ",
"+ . + . . q x q q q q q q q q q q q q q q q x q q q q q q v v v W W W b b b ` ` ` ` ` ` ` ` ` q q q q q q q q q q q 0 q q q q q q q q q 0 e o.K d d y ",
". . X . . 0 x q q q q q q q q 0 q 0 q q q q 0 q 0 q q q q v v v W W W b b b ` ` ` ` ` ` ` ` ` q q q q q q 0 q q q q q q q q q q w q x q 0 e p C d y d ",
". . + . + x q q q q q 0 0 q q q q q q q q q q q q q q q q v v v W W W ` ` ` b b b ` ` ` ` ` ` q q q x q q q q q q q q q q q 0 q x q q q 0 e l j d d d ",
"+ . O . . q x q q q q q x q q q q q q q q q q 0 q q q q q v v v W W W ` ` ` b b b ` ` ` ` ` ` q q q 0 q q q q q q q q q q q q q q q x H e e y C d y d ",
"X + + . + x x 0 0 q q q q q q q 0 q q q q q q q q q q q q v v v W W W ` ` ` b b b ` ` ` ` ` ` q q 0 q q 0 q q q q q q q q 0 q q q q x q q e l K d y d ",
". . X . . q w H q q q q q q q q q q q 0 q q q 0 q q q q q v v v W W W b b b ` ` ` ` ` ` b b b 0 q q q q q q q q q q q q q x q q q q x q q r o.X.d d { ",
". . . . o x x e q q q q q q 0 q q q q x q q q q q q q q q v v v W W W b b b ` ` ` ` ` ` b b b q q q q q q q q q q q q q q q q q x q q z q e p d d y y ",
"O . . + . q q q q q q q q q q q q q q q q q q q q q 0 q q v v v W W W b b b ` ` ` ` ` ` b b b q q q q q q q 0 x 0 q q q q q q 0 x q q q q e o.d d P d ",
". + + . . q x H q q 0 q q q 0 q q q q q q H 0 q x 0 q q q q q q ` ` ` ` ` ` b b b ` ` ` q q q 0 q q q q q q q q q q q q q q q q q q x q 0 0 y K d d d ",
". . X . . q q e q q q q q q q q q 0 q q q q q q q q q q q q q q ` ` ` ` ` ` b b b ` ` ` q q q q q q 0 q q q q q q q 0 q q q q q e w x q 0 r l C p d y ",
"X + . . . x q q q q 0 x q q q q q q q q q q q q q q q q q 0 q q ` ` ` ` ` ` b b b ` ` ` q q q q q q q q q q q q q q q q q q 0 q q q q q e e l C y d d ",
"+ . . . o q w q q q q q q q q q q q q q q q q 0 q q q q q q q q ` ` ` ` ` ` b b b b b b x 0 q q q q q q 0 q q q q q q q q q q q q q x q 0 0 p d d d d ",
"X . . + . q x q q q q q q q q q q 0 q q q q q q q q q q q q q 0 ` ` ` ` ` ` b b b b b b q q q q q q x 0 q q q q q q q q q 0 q q w q x q q e o.X.d d d ",
"+ . X . . x x q q q q q q q q q q q q q q q q q q q 0 q q q q q ` ` ` ` ` ` b b b b b b q q q q q q q q q 0 q q x q q q q q q q q q 0 q q r o.X.d d d ",
"+ . + . + q x z q q e q q q q q q q q 0 q q q q q q q q q W W W v v v v v v W W W ` ` ` b b b q q 0 q q q q q q 0 q q q q q q q q q x q q e o.d d d d ",
". + X . . x x q q q q q q q q q q q q x q q 0 q q q q q q W W W v v v v v v W W W ` ` ` b b b q q q q q q q q q H 0 q q q q q q q q x z 0 e p d d d y ",
"X + + . . q x e q q q q q q q q q q q q q q q q q q q q q W W W v v v v v v W W W ` ` ` b b b q q q q q q q q q q q q q q q q q q q 0 q e 0 f X.y d d ",
". . X . . q x H q q q q q q q q q q q q q q 0 q q q q 0 q ` ` ` W W W ` ` ` ` ` ` ` ` ` b b b q q q q q q q q q q q q q 0 q q q q w x q 0 e y X.d d d ",
"+ . . + + x x q 0 q q q q 0 q q q q q q q q q q x q q H q ` ` ` W W W ` ` ` ` ` ` ` ` ` b b b q q q q 0 q q q q q q q q q q q q q q q q q e y d y d y ",
"X + . . . q x q q q q q q q q q 0 q q q q q q q 0 q q q q q q q ` ` ` ` ` ` b b b b b b q q q q q q q q q q 0 q q 0 q q 0 q q q q q 0 q 0 0 y C d d d ",
". . X . + e q 0 H q x H c r 0 x 0 q q q q q q q q q q q q q q q ` ` ` ` ` ` b b b b b b q q q 0 q 0 q q q q q q x x 0 0 z q 0 O.q q q c q 0 d E y d y ",
"X . X O + 0 x 0 q z x x H e q z q q q q q q q q q q q q q q q 0 ` ` ` ` ` ` b b b b b b q q q q q q q q q q q q x q 0 q q q q q 0 x x q q r [ t P d d ",
"  % ]     q c e +.x x x q 0 Q H q q 0 x q q 0 q q x q 0 q q q q q q q q q 0 q q q q q q q 0 q q q q q q q q q q q q q 0 q x x x O.x 0 z H w [ P { n d ",
"O O + . # 0 0 O.O.w ' x q x q x q q q q q q q q q 0 q q q q q q q q q q q q q q q q q q q x q q q q q q q q q q x x q | Q e 0 ' @.' 0 w x x T P d d d ",
". . . . - #.m y U 8 < % = . + ' q q q q q q 0 q q q q q q q q q q q q q q q q q q 0 q q q q q q q q q q q q q q 0 q x w t { n A $.> + X ] @ d D d d d ",
"X ; J X 1 P D f V o.& $ < o & w q q q q q q q q q q q q q q q q q 0 q q q q x q q q q q q q q q q q 0 q q q q q q x x e P f f X.u # + 3 O & C t d d y ",
"+ O 9 & $ m Z f d i . . / O . x q q q q q q q q q q 0 q 0 q q q q q q q H q 0 q q q q q q 0 x 0 q q q q q q q q 0 q x H T f %.d T # . X &.. P P d y d ",
"+ X 9 + . i T d P P @ + + ] + q 0 q q q q q q q q q q q q q q q q q q q 0 q q q q q q q q q q q q q q q q q q q O.q x z 6 f d n P > . # O o P y d d d ",
"# < / $ * *.E y R =.< = X   / q q q q q q q q q q q q q q q q q q q q q q q q q q q q q q q q q q q q q q q q q q e O.c [ -.T P t ; $ . + # o.f d y d ",
"] O O ] = o / ; N ; 2 . O . $ ..q q q q q q H q q q q q z q q q q q q z q q q q z q w q q q q z q q q q w z q q H x x ' +   $ . - , X 3 O $ y K d d d ",
"  $ @ < * X ;.J . . @ + . X . q x q q x q x q q q q q q q q q x q x 0 0 q q x x x q q 0 x 0 0 q q q x q x q q x x x x x + X . . # X . 9 X 1 S j d y p ",
"X $ @ N 1 $ @ < O G / X + O + q H q H q q q q q q q q q H q q q H q q q q q q H q H q q H q q q q q H q q q H q x 0 | x + : X $ . * $   O * 6 V d d d ",
": + + + ] 9 ] &.%   + . # X N 0 q q x q q q x q q x q 0 q q q q 0 e q q x x q x q q x q q q x x q q q q q q q q q q z c ] &.O O + X + O :.. k ( y d d ",
"% . . - . o O O . o . . $ < : | r r e e e e r O.r O.r r w r r e r r 0 r e r O.r e r r O.r 0 r O.r 0 e e r e e r e r q 0 @ $ $ % $ & X / $ < l M d d d ",
"P { [ j P d f o.5 D n >.u y P 5 o.o.l y y y y o.y u o.l o.o.y p o.l o.y y #.p l o.o.o.o.y o.l y y o.y y l o.y p d f f D k P P d #.n i S k [ ,.[ y d d ",
"P o.k P P f <.i j S V C V [ 1.[ d X.C K d d d X.d d X.X.X.X.X.d X.X.X.d C C d P d d X.X.d X.j X.X.d d C K C d d n m n { D n P { f T K V ( P X.K d d d ",
"{ P { P d d d d d d d y d d d d y d d p d y d y d d y d d d d d d d y d y d P { d d P { d d d d d d d d d d d d d d { n d d d d C d d d d d y d y d y ",
"P { { p n { d d y d d d n { d d d d d d d d { d d d d d d y y d d d d d d d y d y d y d y d y d d d d d y d y d d y d d y d d y d y y d d d d d P d d ",
"P d P p y P d { d y d d y P d d d d y P d d d d d y d d y d d d d d d n y d d d P { d y d d y d d d y d d d d y d d d d d d y d y d d d d y d d y d d "
};
