/* XPM */
static char *_ce6af8ce1b244c684c79505306def95TbIfYLGZ7JaaRtW1[] = {
/* columns rows colors chars-per-pixel */
"75 75 169 2 ",
"   c #010101",
".  c #0A0303",
"X  c #060708",
"o  c #0B060A",
"O  c #07090A",
"+  c #0B0C0D",
"@  c #130303",
"#  c #1B0303",
"$  c #110A0E",
"%  c #150C12",
"&  c #190E15",
"*  c #1C0C1D",
"=  c #0D1214",
"-  c #111619",
";  c #1E1018",
":  c #240404",
">  c #2C0505",
",  c #330506",
"<  c #3C0606",
"1  c #23141D",
"2  c #281721",
"3  c #2B1824",
"4  c #341D2B",
"5  c #1D262B",
"6  c #39202F",
"7  c #222D32",
"8  c #3D2333",
"9  c #253237",
"0  c #430707",
"q  c #4A0707",
"w  c #4C0708",
"e  c #530808",
"r  c #5C0809",
"t  c #640909",
"y  c #6B0A0A",
"u  c #770A0A",
"i  c #7A0A0A",
"p  c #432537",
"a  c #452739",
"s  c #4B293D",
"d  c #471F4C",
"f  c #522D43",
"g  c #552C4E",
"h  c #563047",
"j  c #5C344C",
"k  c #61374F",
"l  c #653953",
"z  c #6B3C58",
"x  c #324249",
"c  c #384C53",
"v  c #3D535B",
"b  c #41555E",
"n  c #73415F",
"m  c #455D66",
"M  c #7A4566",
"N  c #47606A",
"B  c #4A646E",
"V  c #4D6873",
"C  c #516D78",
"Z  c #53707B",
"A  c #840C0C",
"S  c #8D0D0D",
"D  c #940D0D",
"F  c #9C0E0E",
"G  c #A20E0E",
"H  c #AC0F0F",
"J  c #B51010",
"K  c #BC1010",
"L  c #C51111",
"P  c #82486B",
"I  c #8C4E73",
"U  c #8E5075",
"Y  c #925277",
"T  c #95537B",
"R  c #793481",
"E  c #5D7B87",
"W  c #9C5881",
"Q  c #A85D8A",
"!  c #AC608C",
"~  c #B56494",
"^  c #BB6799",
"/  c #AE4BB9",
"(  c #BA4EBE",
")  c #B452BF",
"_  c #BD54BD",
"`  c #BE59BE",
"'  c #C06B9E",
"]  c #C156BD",
"[  c #C259BD",
"{  c #C56DA2",
"}  c #C96FA5",
"|  c #CE73AA",
" . c #D375AD",
".. c #DD7DAD",
"X. c #D777B1",
"o. c #D679B4",
"O. c #DE7CB6",
"+. c #DB74BC",
"@. c #DD7DB9",
"#. c #E17DB5",
"$. c #E177B9",
"%. c #E07CB9",
"&. c #BB4EC6",
"*. c #B64CCC",
"=. c #BC4ECC",
"-. c #B754C3",
";. c #BD53C4",
":. c #BE5AC4",
">. c #B752CC",
",. c #BE53CA",
"<. c #B759CB",
"1. c #BF5ACA",
"2. c #B64BD7",
"3. c #BC4ED1",
"4. c #BB4DDA",
"5. c #BC52D2",
"6. c #C14ECC",
"7. c #C155C5",
"8. c #C15AC4",
"9. c #C154CC",
"0. c #C35ACB",
"q. c #C24FD2",
"w. c #C254D3",
"e. c #C359D0",
"r. c #CC65C5",
"t. c #DD7BC2",
"y. c #E17EC4",
"u. c #E27DC9",
"i. c #688A98",
"p. c #6F93A2",
"a. c #7499A9",
"s. c #7CA2B3",
"d. c #82AABC",
"f. c #ECA699",
"g. c #EDAA9C",
"h. c #F2A897",
"j. c #F2AA9D",
"k. c #DE81B9",
"l. c #E281B5",
"z. c #E381BA",
"x. c #F29FB1",
"c. c #ECA5A3",
"v. c #EEAAA5",
"b. c #EEA7AA",
"n. c #EDAAAA",
"m. c #F2A5A3",
"M. c #F2A9A6",
"N. c #F2A4AB",
"B. c #F3A9AB",
"V. c #F9ABA9",
"C. c #F6B2A5",
"Z. c #EDAAB2",
"A. c #F3A7B5",
"S. c #85AEC0",
"D. c #8AB5C8",
"F. c #90BBCE",
"G. c #93C1D5",
"H. c #97C5DA",
"J. c #98C7DC",
"K. c #9CC9DD",
"L. c #A5CEE0",
"P. c #ACD2E3",
"I. c #B8D8E7",
"U. c #BDDBE9",
"Y. c #C8E1EC",
"T. c #DAEBF2",
"R. c #E1EFF5",
"E. c #EDF6F9",
"W. c #FBFDFD",
/* pixels */
"w.,.;.0.9.9.;.5.9.9.;.5.,.0.,.7.9.;.9.;.9.,.,.;.9.9.;.9.;.9.,.;.,.9.,.9.;.,.,.7.,.,.,.,.,.;.,.;.9.9.;.9.;.9.;.,.;.,.w.7.=.;.5.9.9.0.9.&.7.w.=.;.9.9.7.",
"=.7.,.=.=.9.;.7.7._ 8.9.>.9.5.,.,.,.,.,.9.,.9.9.9.,.9.9.9.9.9.9.9.9.9.9.9.9.9.,.9.,.9.,.9.9.9.9.,.,.,.,.,.9.9.,.9.9.9.9.9.9.9.9.9.,.9.7.9.&.7.,.,.<.,.",
"7.9.0.,.,.w.,.;.5.5.9.;.;.;.7.9.;.9.,.,.;.,.9.9.9.9.9.9.9.9.9.,.9.,.9.9.;.9.,.9.,.,.9.9.9.9.9.9.9.9.,.9.9.,.9.9.9.9.9.9.9.9.9.9.9.9.9.9.9.9.9.9.9.9.9.",
";.=.9.7.,.:.3.>.9.e.5.] ,.=.,.5.,.9.9.9.9.9.9.9.9.9.9.9.,.9.5.,.,.9.9.9.9.9.,.9.9.9.,.9.9.,.9.9.9.9.9.9.9.9.9.9.9.9.w.,.9.:.w.0.,.9.,.,.9.9.9.=.9.9.,.",
"0.,.,.,.*.8.5.:.-.0.2.:.9.9.=.9.,.,.,.,.,.,.,.,.,.,.-.R g 2 $ o % % o           O X * d R / ,.;.9.9.9.9.9.9.9.9.9.9.w.3.0.-.>.>._ ,.;.w.1.5.:.1.,.;.;.",
",.,.9.7.[ x.B.j.h.m.0.;.=.q.[ O.%.%.%.%.%.%.%.%.| P 8 &                                 o 8 ^ O.#.X.O.O.O.O.O.O.O.O.@.k.m.M.V.j.b.r.1.3.4._ m.B.b.v.v.",
",.9.,.5.>.B.A.v.b.N.5.,.9.e.,.y.#.#.#.#.#.%.#.! 3 .                                         ; Y #.#.O.O.O.O.O.O.%.#.O.k.j.M.M.g.A.2.,.7.w._ V.Z.v.v.b.",
"5.9.;.9.) C.M.g.g.M.>.,.7.9.( #.y.%.%.%.@.O.k o             X : , , , > , > : > :             % Q %.%.O.O.O.O.O.O.O.@.@.m.n.Z.v.g.<.;.7.9._ v.g.M.M.M.",
"9._ w.,.-.h.B.v.M.M.>.>.,.9.;.#.#.%.%.%.} f             # u J L L L L L L L L L L L u #         o { %.@.O.O.O.O.O.O...@.M.A.v.v.V.-.,.9.&.,.N.v.M.v.v.",
",.;.w.9.8.m.A.g.M.j.0.8.,.w.w.+.%.#.%.} h           # u H L L L L L L L L L L L L L L H w .       s %.%. .O.O.O.O.O.z.z.m.m.j.M.x.:.;.;.9.0.j.g.v.v.v.",
";.;.,.3.2.0.5.5.5.1.2.9.;.7.e.@.#.#.%.j o         # S L L L L L L L L L L L L L L L L L H <       . Q $.O.O.O.O.O.#.#.$.8.<.>.5.0.2.5.( 9.,.b.Z.v.v.v.",
"5.,.;.[ 8.;.( ,.;.;.5.9.7.;.w.#.%.O.Y           : H L L L L L L L L L L L L L L L L L L L K #       2 | O.O.O.O.O.O.#.#.=.5.;.9.7.w.0.7.,.,.h.c.v.v.M.",
">.e.,.,.9.3.9.7.9.9.&.&.0.7.9...@.! 2         : D L K K K K L L L L L L L L L L L L L L L L y .     o Q O.%.O.O.O.O.O.#.,.;.] ,.7.&.;.9.5.5.C.n.M.v.v.",
",.1.;.,.9.9.9.9.6.w.7.7.7.=.=.%.+.h           > y r e e e e r r y u S G L L L L L L L L L L H >       n #.%.#.O.O.O.O.O.,.,.,.9.w.=.;.7.;.;.v.c.v.v.v.",
"9.=._ ,.,.` ,.7.;.w.9.w.&.w.0.%.P .                                     . > t K L L L L L L L y       6 o.%.$.O.+.O.O.O.9.>.,.9.;.9.,.9.;.` m.M.v.v.M.",
"_ w.7.3.w.@.y...l.+.O.l...y.l.' %             + - - - - + X                   0 G L L L L L L A .     1 ^ O.#.O.O.O.O.O.O.@.#.O.O.@.#.k.O.t.B.n.v.v.v.",
"9.,.,.9.,.#.#.@.%.%.#.#.@.@.O.a         + x i.s.d.S.d.s.s.a.p.E m 9 X           < K L L L L L D #     % W %.#.%.%.%.O.O.O.O.O.O.O.O.O.%.%.k.v.v.v.v.v.",
",.,.,.,.,.#.%.@.%.#.%.%.%.O.M         b d.L.U.Y.U.Y.Y.Y.U.K.J.J.H.H.D.E +         S L L L L L F ,     o P @.%.%.%.O.#.O.O.O.O.O.O.@.O.$.+.k.v.v.v.v.v.",
"7.,.9.,.9.#.#.%.#.%.%.@.%.~ $     X c P.R.W.W.W.W.W.W.W.W.R.L.J.J.H.J.J.Z =       e L L L L L G e       h #.#.#.+.@.#.+.#.O.O.O.O.z.%.$.#.k.M.v.v.v.v.",
",.,.;.9.,.%.%.%.+.%.%.#. .f       b F.E.W.W.W.W.W.W.W.W.W.W.I.J.J.J.J.J.i.x       0 L L L L L G t       ; | %.%.#.$.%.#.%.@.#.O.O.O.#.%.#.k.N.v.M.v.v.",
",.,.7.,.,.@.#.%.+.l.#.%.W %     - d.K.W.W.W.W.W.W.W.W.W.W.E.P.J.J.J.J.G.C v =     0 L L L L L F u         l } %.O.O.O.@.%.%.#.#.#.@.O.%.O.@.n.v.v.v.v.",
"7.,.,.,.9.#.%.%.%.%.%.%.s       E J.J.U.T.T.T.R.T.Y.I.U.U.K.J.J.J.J.H.a.B N 5     , L L L L L F u @         o 8 k M Y | #.%.%.%.#.O.O.%.O.k.v.v.v.v.v.",
",.,.9.,.9.#.#.%.%.#.#.%.1       d.J.J.J.K.J.L.L.K.J.J.J.J.J.J.J.J.H.s.Z B B 7     > L L L L L F u :                 & 8 T o.%.%.#.O.O.@.+.k.M.v.v.v.v.",
",.,.,.,.,.%.%.%.%.%.%.+.      + E d.J.J.J.J.K.K.J.J.J.J.J.J.J.J.J.s.Z V B B 7     , L L L L L F u >                     . I %.#.%.O.O.@.O.k.b.v.v.M.v.",
"9.,.,.,.,.#.#.%.%.#.@.O.      + B V E s.D.J.G.H.G.J.J.J.J.J.J.G.p.B B B B m 5     < L L L L L D u 0         . .           1 ~ O.+.%.O.O.%.k.v.v.v.v.v.",
";.9.;.9.9.k.#.O.%.%.#.%.&     + B B B V B V i.p.s.S.D.D.D.S.p.C B B B B B v =     e L L L L L D u w       J L L F ,         M %.%.%.O.O.k.k.v.v.v.M.v.",
",.,.9.,.9.#.%.%.%.l.%.%.p       c B B B B B B B B V V C C V B B B B B B N 9       A L L L L L D u e       J L L L F @       f O.%.#.O.O.#.O.M.v.v.v.v.",
"9.9.;.,.,.#.#.%.%.%.#.%.z       - m V B B B B B B B B B B B B B B B B B c +     . G L L L L L S u t       G L L L K >       p O.%.%.O.O.@.@.N.v.v.M.v.",
";.9.7.,.,.#.@.@.%.l.#.+.~ 1       + 9 N B V B B B B B B B B B B B B B b O       0 L L L L L L S u r       D L L L L t       p #.#.%.O.%.O.@.v.v.v.v.v.",
",.,.,.,.,.#.z.#.%.%.%.#.O.j           - 9 v N B B B B B B B B B B N x -       @ A L L L L L K A u t       S L L L L A       8 +.@.%.O.%.+.@.v.v.v.v.B.",
",.,.,.,.,.%.#.#.%.#.%.%.%.Q o             O 7 x v B B B B B V B v 7 O         e J L L L L L K u u r       A L L L J u       p $.%.%.O.%.O.k.N.v.v.v.v.",
"7.,.,.9.,.%.#.O.%.%.#.%.%.O.z                       O + - - - O             : K L L L L L L G u u t       w i A u u u       p #.@.#.O.%.O.k.M.v.v.v.v.",
"7.,.;.,.,.O.#.%.%.%.+.#.%.#.~       @ > #                                 > S L L L L L L L F u u t       q u u u u u .     s #.%.%.O.%.%.k.v.v.v.v.v.",
",.,.9.9.9.O.l.@.%.%.#.%.%.#.Q       r L H D 0 @                       : S J L L L L L L L L A u u t       q u u u u u @     p O.@.$.O.O.+.k.v.v.v.v.v.",
",.,.,.,.,.#.%.#.%.#.#.%.#.%.M       r L L L L L G A y e 0 < 0 q e u H L L L L L L L L L L L u u u y       e u u u u u @     8 @.l.O.O.@.#.k.M.v.M.v.v.",
"9.,.,.,.,.%.%.%.%.#.%.%.%.@.s       q L L L L L L L L L L L L L L L L L L L L L L L L L L H u u u y       e u u u u u @     6 O.%.O.O.O.O.k.B.v.v.v.v.",
";.,.,.9.,.%.#.#.%.%.%.%.%.o.4       0 L L L L L L L L L L L L L L L L L L L L L L L L L L F u u u t       e u u u u u @     3 #.k.O.O.O.O.O.v.v.v.v.v.",
"9.,.;.,.,.#.#.%.%.%.O.%.#.| 1       0 J L L L L L L L L L L L L L L L L L L L L L L L L K D u u u y       0 u u u u u @     1 %.$.O.O.O.O.@.b.v.v.v.M.",
"9.,.9.,.,.%.%.%.%.#.%.%.@.} 1       0 H L L L L L L L L L L L L L L L L L L L L L L L L H u u u u y       0 u u u u u #     & %.@.O.O.O.O.@.b.v.M.v.v.",
";.9.;.,.9.#.#.%.%.$.#.+.#.} 1     . e F L L L L L L L L L L L L L L L L L L L L L L L L G u u u u y       0 u u u u u :     ; %.@.O.O.O.O.k.v.v.v.v.v.",
"9.,.;.9.,.%.#.%.%.#.%.#.%.' &     @ t S K L L L L L L L L L L L L L L L L L L L L L L L D u u u u t       0 u u u u u >     1 O.O.O.O.O.#.k.B.v.v.v.v.",
",.,.9.,.,.#.%.%.@.%.%.%.%.^ $     @ r A J L L L L L L L L L L L L L L L L L L L L L L K A u u u u t       w u u u u u ,     o $.#.%.O.O.@.@.v.v.v.v.M.",
"9.,.,.,.9.@.#.%.@.$.%.O.%.^ %     . e u H L L L L L L L L L L L L L L L L L L L L L L H u u u u u t       w u u u u u >     o %.$.@.O.O.O.k.B.v.v.M.v.",
";.9.;.9.,.O.z.%.#.%.%.#.@.{ 1     . w u S K L L L L L L L L L L L L L L L L L L L L L A u u u u u y       e u u u u i :       %.#.#.O.@.O.k.M.v.v.v.v.",
";.,.;.9.,.O.#.@.@.#.%.%.#. .2     . q u u H L L L L L L L L L L L L L L L L L L L L G u u u u u u y       e u u u u u :       %.%.O.O.O.O.@.v.b.v.v.M.",
"9.,.9.,.9.#.%.#.O.%.%.#.#.o.4       < u u u K L L L L L L L L L L L L L L L L L L F u u u u u u u u       r u u u u u :     $ #.#.O.O.O.O.k.b.v.v.v.v.",
",.9.,.,.,.O.#.@.O.#.+.%.$.#.p       , u u u D K L L L L L L L L L L L L L L L K D i u u u u u u i y       t u u u u u :     & %.%.O.O.@.O.k.M.v.M.v.v.",
";.,.,.9.,.#.#.O.O.@.#.%.#.%.j       : u u u u A G K L L L L L L L L L L L K H A u i u u u u u u u y       t u u u u u #     1 %.O.O.O.@.O.k.B.v.v.v.v.",
"9.,.,.,.,.%.#.O.O.#.%.%.O.%.Y       # u u u u u u u A D G G G F F D S A u u u u u u u u u u u u u t       t u u u u u .     a #.@.O.O.%.O.k.v.v.v.v.v.",
";.9.,.9.,.#.l.O.O.O.%.#.%.%.'       @ u u u u u u u u u u u u u u u u u u u u u u u u u u u u u u t       y u u u u y       z O.#.O.O.%.O.@.v.v.v.v.v.",
",.,.;.9.,.%.#.O.O.O.#.+.%.%.O.$       y u u u u u u u u u u u u u u u u u u u u u u u u u u u u u r       u u u u u ,     % I #.O.O.@.%.O.@.M.v.v.M.v.",
";.9.,.,.,.#.#.O.O.O.@.%.#.#.%.3       e u u u u u u u u u u u u u u u u u u u u u u u u u u u u u e       u u u u q .     2 { $.%.O.#.%.O.@.N.v.v.v.v.",
"9.,.9.,.,.#.#.O.O.O.#.%.O.%.#.s       < u u u u u u u u u u u u u u u u y u u u u u u u u u u u u e       0 t r #         j @.#.O.O.O.%.O.@.v.v.v.v.v.",
"9.,.,.,.,.#.#.@.O.O.O.%.%.%.O.M       # t u u u q 0 w w e e w 0 < : # @ @ , y u u u u u u u u u u q                     % Q %.%.%.O.O.%.O.@.v.v.M.v.v.",
";.,.,.,.,.#.#.%.O.O.#.@.%.#.O.T         e u u u e .                         q u u u u u u u u u u 0                   o M o.%.#.#.O.O.@.O.k.M.v.v.v.v.",
"9.,.7.,.,.#.#.%.O.O.#.#.%.%.+.^         0 u u u u y , .                     : u u u u u u u u u u ,               o f { %.#.#.#.$.O.#.O.O.k.M.v.v.v.M.",
",.,.;.,.,.@.@.O.%.%.O.O.k.#.O.o..       < u u u u u u r >       o & $       : u u u u u u u u u u >       2 s f M Q  .O.@.l.$.O.O.O.$.#.%.k.v.j.M.v.v.",
";.,.7.7.,.O.l.O.$.%.$.O.O.#.#.@.2       , u u u u u u u w       s { M       : u u u u u u u u u u @       ^ #.+.O.O.%.y.@.#.O.O.O.O.O.O.$.l.c.M.v.v.v.",
"w.=.6.w.w.@.k.O.O.O.#.#.$.#.+.@.8       > u u u u u u u e       l %.n       : u u u u u u u u u u .     O O.%.#.O.#.#.#.O.O.O.O.O.O.O.@.@.k.c.M.v.v.v.",
"7.7.9.=.5.O.@.k.O.z.t.#.$.#.t.%.h       > u u u u u u u r       j #.k       : u u u u u u u u u u       ; %.%.$.O.$.#.@.O.O.O.O.O.@.O.l.#.O.g.c.v.v.M.",
",.,.,.,.1.m.M.M.M.m.8.9.,.,.r.l.P       , u u u u u u u e       P #.f       : u u u u u u u u u t       4 #.#.@.%.O.O.O.m.v.M.j.m.e.0.&.9.5.v.j.v.v.v.",
";.:.,.-.:.g.v.v.A.N.>.5.;.0.1.#.! .     < u u u u u u u w       W +.z       : u u u u u u u u u r       8 +.+.#.%.%.O.O.m.b.n.v.M.3.9.] 8.>.C.v.M.v.v.",
"9.7.w.>.5.M.v.n.v.j.>.9._ 9.,.#. .4     @ w u u u u u r #     o  .#.T       . u u u u u u u u u <       f #.k.#.%.O.O.O.v.n.n.v.g.5.,.;.7.5.v.v.v.v.v.",
"6.;.w.9.5.j.g.v.v.j.5.9.9.9.9.#.#.M o     . : : : : : @       s O.O.~ &       r u u u u u u u u :       k #.%.%.%.O.O.O.j.v.M.M.v.,.,.w.9.,.v.M.v.v.M.",
"3.8._ 5.:.A.m.B.B.A.8.-.7.w.;.#.@. .l                       % Q %.%.| f       # t u u u u u u r .       n +.%.%.%.O.O.k.m.m.g.v.M.:.3.,.9.=.B.b.v.v.v.",
"=.7.7.=.&.0._ ;.-.:.2.=.7.6.,.u.#.$.O.M %                 1 I %.%.%.%.I         . , e e e e < @       % W @.%.%.O.O.O.+.0.=.=.,.0.*.7.8.7.5.v.v.v.M.v.",
"w.3.5.8.:.:.>.;.1.;.w.9.9.( 9.%.#.#.O. .Q M l l n M M M I ^ O.O.l.#.O.} %           . @ . .           h  .%.#.O.O.O.l.#.9.,.,.,.3.:.,.5.;.:.f.v.v.v.M.",
":.5.e.-.-.5.5.0.7.( ;.;.9.7.9.%.%.@.$.O.$.O.@.%.@.#.%.%.%.%.%.O.%.$.%.%.Y &                         2 } $.@.O.O.O.O.O.O.9.] ;.5.,._ 3.w.,.` g.n.v.v.v.",
"] 7.w.9.6.w.q.6.=.9.9.9.3.;._ O.%.%.O.O.@.@.#.#.O.O.o.O.%.%.#.O.O.@.O.%.O.~ h                   X z o.O.%.O.O.O.O.O.O...w.;.9.;.0._ 9.,.4.,.N.Z.v.v.v.",
",.,.&.1.;.0._ 7.,.,.>.,.5.:.` t.@.O.O.O.O.O.O.O.O.O.O.O.O.O.O.O.X.o.k.k.O.k.k. .~ W I U U I Y ~ O.k.@.k.O.k.k.@.O.O.z.k.5.5.,.,.5.*.:.` 5.8.N.g.v.M.v.",
"M.b.g.v.v.v.M.N.B.M.v.h.v.M.M.B.M.M.M.n.M.v.B.v.B.M.b.v.M.v.M.B.v.n.b.v.M.M.n.B.B.v.B.n.M.b.M.n.b.M.v.n.M.b.M.M.M.b.v.v.b.M.v.M.B.m.g.g.b.c.C.c.v.v.v.",
"c.B.b.v.v.b.B.g.C.g.Z.v.b.c.j.c.v.v.v.v.v.v.v.v.v.v.v.v.v.v.v.v.v.v.v.v.v.v.v.v.v.v.v.v.v.v.v.v.v.v.v.v.v.v.v.v.j.M.v.v.M.M.c.n.n.f.v.n.A.c.v.v.v.v.v.",
"v.v.v.v.v.v.v.v.M.v.v.v.M.v.v.v.M.v.v.v.M.v.v.v.v.v.v.v.v.v.v.v.v.v.v.v.v.v.M.v.v.v.v.M.v.v.v.v.v.v.v.v.v.M.v.v.v.v.v.v.v.v.M.v.v.v.v.v.v.v.M.v.v.v.v.",
"v.c.v.v.M.v.v.v.v.v.v.M.v.v.v.v.v.v.v.M.v.v.v.M.v.v.v.v.M.v.M.v.v.v.M.v.v.v.v.v.M.v.v.v.M.v.v.M.v.v.v.v.v.v.v.v.M.v.M.v.v.v.v.v.M.v.v.v.v.v.v.v.v.M.v.",
"v.v.M.v.v.v.v.v.v.v.v.v.v.v.v.M.v.v.v.v.v.v.v.v.v.v.v.v.v.v.v.v.v.M.v.v.M.v.v.v.v.v.v.v.v.v.v.v.v.v.v.v.v.v.M.v.v.v.v.v.M.v.v.v.v.v.M.v.M.v.v.v.M.v.v."
};
