/* XPM */
static char *_25a963c1db34a88eb2fc084e1981d6bXW90Bng1ssC0zw6s[] = {
/* columns rows colors chars-per-pixel */
"75 80 154 2 ",
"   c #060D36",
".  c #0A0E36",
"X  c #070F3D",
"o  c #0B0F3F",
"O  c #110D3F",
"+  c #061033",
"@  c #0A1133",
"#  c #04113D",
"$  c #0A113E",
"%  c #050E43",
"&  c #0B0D43",
"*  c #080C4B",
"=  c #110C42",
"-  c #071241",
";  c #0A1142",
":  c #081944",
">  c #0C1249",
",  c #121540",
"<  c #181049",
"1  c #151C56",
"2  c #1A1D55",
"3  c #16155B",
"4  c #151D5C",
"5  c #1A1E5D",
"6  c #0C215B",
"7  c #172057",
"8  c #1B2256",
"9  c #16215B",
"0  c #18205D",
"q  c #152A5D",
"w  c #21215D",
"e  c #141663",
"r  c #1E1661",
"t  c #161E62",
"y  c #191F62",
"u  c #221C64",
"i  c #2A1E66",
"p  c #281D69",
"a  c #251D73",
"s  c #152362",
"d  c #192261",
"f  c #1B206A",
"g  c #222263",
"h  c #24226C",
"j  c #2F2878",
"k  c #34267A",
"l  c #312B7B",
"z  c #3C348A",
"x  c #4E2C8D",
"c  c #512D87",
"v  c #512E8F",
"b  c #5A2E8E",
"n  c #44338C",
"m  c #4C328E",
"M  c #4F2797",
"N  c #4C2E95",
"B  c #4B2E99",
"V  c #522E96",
"C  c #592D96",
"Z  c #532E9A",
"A  c #5B2E99",
"S  c #443292",
"D  c #4E3197",
"F  c #4A3B95",
"G  c #473599",
"H  c #4D3299",
"J  c #4D389B",
"K  c #513294",
"L  c #5C3296",
"P  c #503198",
"I  c #59329C",
"U  c #533A9C",
"Y  c #61319B",
"T  c #4F33A1",
"R  c #5032A2",
"E  c #5931A1",
"W  c #642FA1",
"Q  c #6432A1",
"!  c #8A3DAF",
"~  c #9142AF",
"^  c #8445B0",
"/  c #8941B1",
"(  c #AD52AF",
")  c #B74FBE",
"_  c #BB4FBF",
"`  c #AC55BE",
"'  c #B051B9",
"]  c #B25CBD",
"[  c #C850BE",
"{  c #BD4FC9",
"}  c #BF52C5",
"|  c #B854C6",
" . c #BD52C5",
".. c #BA58C7",
"X. c #BE58C6",
"o. c #BC5BC7",
"O. c #B053C8",
"+. c #B157C8",
"@. c #B654CB",
"#. c #B853C9",
"$. c #BA53C8",
"%. c #BD51C8",
"&. c #BF53CA",
"*. c #BB54C9",
"=. c #BA56C8",
"-. c #BB57CB",
";. c #BD55C8",
":. c #BF54C8",
">. c #BD54CA",
",. c #BD56CB",
"<. c #BF51CC",
"1. c #B954CC",
"2. c #BA57CC",
"3. c #BB56CC",
"4. c #BE55CC",
"5. c #BD53CB",
"6. c #B65CCD",
"7. c #BB58CD",
"8. c #BA59CD",
"9. c #BD59CD",
"0. c #BA5BC9",
"q. c #BE54D0",
"w. c #BC55D8",
"e. c #C54AC7",
"r. c #C44FC4",
"t. c #C14FC0",
"y. c #CA4DC3",
"u. c #C94FC6",
"i. c #C24ECB",
"p. c #C44EC8",
"a. c #C44FCD",
"s. c #C94FC8",
"d. c #CA4DCF",
"f. c #C051C7",
"g. c #C053C6",
"h. c #C352C8",
"j. c #C052CB",
"k. c #C751C9",
"l. c #C650CA",
"z. c #C151CD",
"x. c #C354CD",
"c. c #C054CE",
"v. c #C455CE",
"b. c #C154CB",
"n. c #CA50C9",
"m. c #C853C8",
"M. c #CC52CB",
"N. c #CD53CA",
"B. c #C458C8",
"V. c #C05DC9",
"C. c #C458C8",
"Z. c #C254D1",
"A. c #C458D0",
"S. c #C458D0",
/* pixels */
"w.x.| <.M.6 q 5 9 9 9 0 9 9 0 0 9 0 0 9 0 9 0 0 0 9 9 0 9 0 0 9 0 0 0 0 9 9 0 0 9 0 0 9 0 9 9 0 9 9 0 0 9 0 0 9 9 0 9 9 0 9 0 0 0 6 u s 9 1 V.| b.>.>.",
"v.y.} 2.z.d 1 r y y y y y y y d y d y y y y y y y y y d y d y y y y y y d y y y y y y y y d y y y d y y y d y y y y y y y y y d 0 s 0 0 5 g ) >. .g.g.",
"| } ..-.>.d 4 g 9 4 9 9 9 0 4 9 4 0 8 0 9 4 9 9 0 4 4 9 2 9 0 0 9 9 4 9 9 9 9 4 9 0 2 0 4 4 0 7 9 0 9 4 0 2 0 4 9 9 0 9 0 4 4 9 0 0 9 9 5 g  .v.4.%.>.",
"%.8.8.e.r.3 q 2 9 d 5 0 0 4 d 0 0 0 5 5 0 0 0 0 0 0 0 0 0 0 0 0 9 y 0 0 5 0 0 0 0 0 0 0 0 d 0 0 0 4 d 0 0 0 0 d d 4 0 5 4 s 0 0 d 5 0 0 4 t | x.x.4.x.",
"M.%.<.m.| p s 0 0 0 0 0 4 5 0 0 0 0 4 0 8 4 0 4 9 9 0 0 0 4 0 4 0 0 0 5 9 0 9 4 0 4 0 5 0 4 9 0 9 4 0 0 0 0 4 8 0 0 0 0 0 5 0 4 4 r d g y f ` C.1.>.>.",
"9 d y 3 u n H m K V P K K P V K P K K P Z K K K P Z V K K K K P V P V K Z P P K P K K P K K P P P K Z K K V P K P Z K K K K P K F m c b b n h 6 0 0 0 ",
"q 1 4 q s D N I H H H H H H H H P H H H H H H H H H H H P H H H H H H H H H P H H H H H P H H H P H H H H H H H H H H H H H P H N H J J H K r w 8 5 0 ",
"4 y u 8 1 D I N V P P Z P K P P P P P P P P P P P P P P P P K Z P P K P P P P P Z K P P P P V P P P P P P V P P P P Z P P P K P E B Z H H D s 7 d d y ",
"9 y 0 0 0 V H P P P P P P H P P P P P P P P P P P P P P P P P P P P P P P P P P H H P P P P P P P P P P P P P P P P G P V I B H K P H K P K 9 d 5 d 5 ",
"0 y 9 0 0 K H P P P P P P P P P P P H V V H P P V H P P V H P P P P H V P P P V P V N P K P H V H P V P H P P P V V P P P P S J P P B K P K 9 y 9 0 4 ",
"0 d 7 0 0 K H K P P P P P P P P K K P P K K P K K K K K P K K K P K K K K K K P K K P K K P K P P K K K K K P K K H U n H Z C A K P H K H V 0 d d 4 s ",
"9 y 0 0 0 V H P P P P P P P P P j.j.b.j.j.j.j.j.j.j.j.j.j.j.j.b.j.j.j.j.j.j.j.j.x.j.j.j.j.j.b.j.j.j.j.j.j.j.>.z.r.1.+.Y V P H B K P H K H V 8 0 5 d 5 ",
"0 y 9 9 0 V H P P P P P P P P H >.1.-.>.>.1.-.>.>.>.8.>.1.>.-.1.>.-.>.1.-.-.2.1.>.-.2.1.>.-.4.1.>.>.1.-.>.-.-.>.M.9.%.V N H P H P P H K H K 9 5 9 y 0 ",
"0 y 0 y 0 P D P P P P P P P P P  .g.g.g.g.g.g.g.g. .j.g.g.g.g.j.g.g. .g.g.g.g.g.g.g.g.g.j.g.g.g.g.g.g.g.g.g.g.%.r.%.i.K P V V Z K P B K H P 9 y y 9 0 ",
"9 y 0 9 0 V H P P P H P P P P P j.b.b.%.>.j.j.>.b.j.%.b.>.j. .b.j.%.b.b.j.%.b.b.j.>.j.b.%.j.>. .%.b.j.%.b.%. .b.b.+.z.J J P H H P P H K P K 9 d s 5 9 ",
"0 y 0 0 0 K D P P P P P K P P P >.j.>.b.j.>.>.b.%.>.j.>.b.%.b.>.j.:.>.j.%.b.>.j.%.b.b.%.b.>.j.b.b.j.>.b.j.>.j.j.j.8.d.P H P V P P V P K H V 9 y 5 0 y ",
"0 d 0 0 0 P H P P P H P P P P P . $   $ X 0 0 0 9 4 0 9 0 9 0 0 0 9 0 4 9 4 9 9 9 9 4 9 4 9 9 0 0 d 0 9 9 0 & $ # O # K V P V G P P N K H K 7 d 0 0 5 ",
"9 y 0 4 0 P H P P P P P P P P P & ; ; ; % 0 y d d d d 9 d d d 0 0 d 0 s d d d d d d d d d d 0 d 9 9 0 t y 5 % # . = : H H V I N K P H K P V 0 y 0 0 9 ",
"9 y 9 0 0 V H P P P P P P K P P . @ $ $ $ 8 5 4 0 0 5 0 0 0 0 0 0 0 5 0 0 0 0 5 0 5 0 0 0 0 5 0 0 0 s 0 5 0 & $ O & # K U N P I P P H K H V 0 d 4 9 d ",
"0 y 0 0 0 V H P P P P P P P H P $ $ # X ; 8 d d 8 1 8 0 4 8 0 1 8 0 8 7 8 4 7 8 4 8 8 1 8 0 7 7 0 7 9 0 7 8 $ @ $ : X V V P H N K P H K P K 7 d d y 5 ",
"9 y 0 9 0 V H P P P P P P P P P $ $ ; $ ; 2 4 4 5 0 5 0 y 0 5 y 5 0 y 5 y 5 0 y 0 0 y 5 0 y 5 d 5 5 9 0 5 5 > ; & * < G P D D P K P H K P K 0 y 0 d 9 ",
"0 y 0 5 8 P H P H P P P P P P P :.:.b.:.%.S.S.x.1.1.%.>.%.%.>.1.$.%.>.%.$.1.%.>.%.>.>.%.%.1.>.%.x.x.:.b.>.>.}  .[ X.( W V N U D K P B K H P 7 d 0 4 y ",
"0 d 8 0 0 K H P K V P P P P K H >.| >.>.%.>.$.$.<.<.2.<.4.<.4.<.4.<.4.<.<.<.2.<.<.4.4.<.4.<.4.<.<.x.| 4.$.q.q.b.>.6.] T S D K V P P H K H K 9 d d d 0 ",
"9 y 0 0 0 V H P H P P P P P P P x.{ b.b.b.b.j.z.g.g.g.g.:.:.g.g. .g.g.>.g.g.g.g.:.g. .:.g.g. .:.%.g. .C. .z.b.j.a.Z.r.Z H I K H P V H K P V 0 d 5 4 0 ",
"9 y 9 0 0 K H P P P P P P P P P x.{ j.b.b.b.b.j.g. .g.g.:. .g. .g.g.:.:.g.g.g.g.:. .g.>.g.g.:.g.g.g.g.C. .j.b.j.a.Z.[ B B I H G P P N K H K 7 0 y 5 5 ",
"0 y 9 d 0 V H P P P P P P P P P >.| x.>.%.>.$.$.<.4.4.<.<.4.<.4.<.4.<.4.<.2.<.<.<.4.4.<.4.<.<.4.<.b.| >.$.q.4.x.S.8.] T H H V V K P H K P V 0 y 4 s 9 ",
"9 y 0 5 0 V H P P P P P H P P P :. .>.:.g.A.v.v.%.$.$.<.%.>.%. .1.%.>.%.>.%.1.1.%.>.$.%.$.>.$.%.x.x.:.-.%.x.g.} m.X.( W V H U N K P H K H K 0 y 0 0 0 ",
"9 y 0 9 0 K H P P P P P P P P P $ $ ; $ ; 2 4 4 0 y 5 d y 5 d 5 y 5 0 y 5 0 5 5 5 y 5 y y 5 5 y y 0 4 d 5 0 > ; & * < H K K H P P P H K H V 8 d 5 d y ",
"0 y 0 0 0 V H P P P P P P P P P $ $ $ - & 0 d d 0 7 7 1 0 8 8 0 7 7 7 9 0 8 1 8 4 8 7 8 4 8 1 8 4 8 0 8 0 8 .   $ * X K V H H N K P H K P K 0 y 9 d 5 ",
"9 y 0 0 0 V H P P P P P P P P P . @ @ $ $ 8 4 4 5 0 0 5 0 0 0 0 0 5 0 5 0 0 0 0 0 5 0 0 0 d 0 0 0 d 0 0 0 0 & $ O o # K U N V I K P B K H K 9 y d 4 9 ",
"0 y 9 d 9 V H P P H P P P P P P % ; ; ; % d s y 0 d d d 0 d s 0 d d d d 9 d d d d d d 0 0 d d d s 9 9 t s 5 - $ @ = : N H P P V P P H K H V 9 d 0 0 y ",
"0 d 0 4 0 P H P P K P P P P H K X $   $ X 8 5 d 0 9 9 9 9 0 4 0 4 9 9 0 9 0 4 9 9 9 9 9 0 9 4 9 0 0 d 4 0 0 X $ # = X K N I V G P Z H K P K 9 d 4 y 9 ",
"9 y 0 9 0 V H P P P P P P P P P P P P P H P P P P P P K D P P P P P P P P P P P P P P P P P P P H V P H C V P P P A B H H Z V K K P H K H K 9 0 0 0 d ",
"9 y 0 5 0 K H P P P P P K P P H P P H P K P P P P P P H P P P P P P P P P H P P P H P P P P P P H V H H K P H H N P H H H P P P P P Z K H K 0 y 0 0 5 ",
"0 d 9 0 0 K D P P P P P P P P P P P P P P P P P P P P P P P P P P P P P P P P P P P P P P P P P K L H H V H G H U U Z P Z H H H K P H K H V 0 d 4 d 0 ",
"9 y 8 0 0 V H P P P H P P P P P P K P P P P P P P P P P P P P P P P P P P P P P P P P P K H P P H K H K P H H P P S V Z Z B G I P P H K N K 9 0 d 5 0 ",
"0 y 9 s 0 V H P P K H V P P P P P P H P P P P P P P P P P P P P P P H K P P H P P P P P P P P P D P H P H G A A H S Y S K D v K P P P K P K 0 y 0 5 9 ",
"0 y 0 5 0 K H P P P P P P K P P P P P P P H P P H P P P P H P P P P P P P P P P P P P P P P P P D K H Z H K / ^ ! ^ ~ k k l l l P K B K H K 9 d s 9 0 ",
"0 y 0 4 0 V H P P P H P P H P P P P P P P P P P H P P K P P P P P P P P P P P P H P H P P P P P P I H Z P K 1.6.i.|  .u 5 y 0 q P P H K H V 9 0 5 y 9 ",
"9 d 0 0 0 P H V P P P P P P P P P P P P P P P P V P P P P P K P P P P P P P P P V K P P P P H K H P G P P V m.x.j.| C.y 9 5 2 0 P K B K P K 9 y 5 9 y ",
"0 y 0 0 0 V H P P P H P P P P P P P P P P P P P P P P K P P P P P P H P P P P P P P P P P P P P P N U H H Z j.{ d.>.u.r 9 d 0 q P P H K H K 8 d 0 y d ",
"9 y 0 0 0 P H P P P V P P P P P P P P P D P P P P P P H P P P P P P P P P P H P P P P P P P P P Z P V H P N ..1.| 6.0.s s 0 d 5 K P V K H K 0 y 0 9 5 ",
"0 y 9 0 0 V H P K P P P P P P P P P P P P P P P P P P P P P P H P P P K P P P P P P P P P P H P P U B N V Q | h.N...` u 4 4 d d P P H K N K 0 d y 9 4 ",
"0 d 0 4 0 K H P P P P P H P P P P D P P P K H P P D P P P P P P P P P P P K P H P H K P P P P P G x E L H S g s 3 s i 0 5 s 9 5 K P H K H V 0 0 y 0 d ",
"9 y 0 0 0 V H P P P P H P P P P P P P H P P P P P P P P P P P P P H P P K H P P P P P K V H P P I x P N H F 5 5 s s 1 d 5 9 0 s K P H K P K 0 y 9 5 4 ",
"0 d 7 0 0 K H P P P P P P P D P P P P P P P P P P P P P P P P H P P P P P P P P P P P H P P P P B H G P K P s s 0 4 y 0 0 4 d 5 P P B K H P 7 y 5 s 0 ",
"0 y 0 0 0 V H P P P H P P P P P P P P P P P H P P P P H K P P P P P P P P P P P P P P P P P P P C L B H P V 4 3 5 g d q 9 4 w 5 K P H K H K 9 d 4 d d ",
"9 y 8 0 0 V H P P P K P P P P P P P P K P P P P P P P P P P P P P P P P P P P P P P P P P P P P G m T B P I 0 q 9 g 4 5 5 g 5 s P V H K P V 9 y d 9 5 ",
"9 y 9 d 0 K H P P P P P P K P P P P P P P P P P P P H P P P P P P P P P P P P P H P P P P P P P Z P P P P P P P N P D D D V D H P P H K H K 9 0 0 0 d ",
"0 y 0 4 0 V H P P P P P P P H P P P D P P P P P P P P P P K P P P K P P P P P K P P P P P P P P P H P P P P P P P P P P P P P P K P B K P V 9 y 0 0 5 ",
"9 y 0 0 0 K H P P P P P P P P P P P P P P H K P P P P P P H P P P H P P P P P H P P P P P H D P P P P P P P P P P P P P H P P P P P H m P V 8 y 0 0 0 ",
"0 d 0 0 0 V H P P P P P P P P P P P P P P P P P P K P P P P P P P V P H P P P P P P P P P K P P P P P P P P H P P P P P V P P K P P H L H K 9 d y y 9 ",
"0 y 0 0 0 V H P P P H P P P P P P H P P P P P P P H P P P P P P P P P P P P P P P P P P P P P P P P P P P P K P H P P P P P P P K P H K P K 0 y 9 0 9 ",
"9 y 9 5 0 V H P P P P P P P P P P P P P P P P P P V P P P P D P P P H P D P P P K P H P P P P P P P P P P P P P K P P P P P P P P P B K H K 9 d 9 y 5 ",
"0 y 9 s 0 V H P P P P P P P P P P P P P P P P P P P P H P P P P P P P P P P P P P P P P P P P P H P P P P P P P P P P P P P H P P P H K H V 9 0 5 4 0 ",
"9 d 0 5 9 P H P P K P P P P K H K P P P P H P P P P P P P P P P P P P P P P P P P P P P P P P H P P P P P H P P P P P P P P P P P V H K P K 9 y s 5 d ",
"9 y 0 0 0 V H P P P P P P P P P P P P P P P P P P P P P P P P P P P P P P P D P P P P P P P P P P P H P P P P P P P P K P P H V P P H K H K 9 d y 0 9 ",
"9 y 0 9 0 K H P H P H P P P P P P P P P P P P H P P P H P P H P P P P P P P P P P P P P H P P P P P K P P P P H P P P P P P P P K P H K P V 9 5 9 0 y ",
"0 d 9 5 0 V H P V P P P P P P P P P P P P H K P P P P P P P P P P P P P H P P P H K P P P P P K P P P P P P P P P H P P P H P P P P H v H K 8 y 5 s 5 ",
"9 y 8 0 0 P H V P P P P H P P P H P P K P P V P P P P P K P P P P P D P K P P P P P P P P P P P P P P P P P P P P P P P P P P P P P H K P V 9 d 4 5 d ",
"0 y 9 9 0 P H P P H P P K P P P P P P P P P P P P P P P H K P P P P P P P P P P P P D P H P P P P H P P P P P K H P P P P P P P P P H K P K 0 d 0 5 9 ",
"0 y 0 y 0 V H K P P P P P P P P P H P P H P P P P P P D P P P P P H P P P P P P P P P P P P P P P P P P P P P P K P P P P P P P K P H K H K 9 y d 0 s ",
"9 y 0 0 0 K H P P P P K P P P P P P P P K P P P P P P P P P P P P P P K P P P P P P P P P P P P P P P P P H P P P P P P P P P P P P H K H V 9 d 4 5 5 ",
"0 y 0 9 0 V H V P P P P P H P P P P P P P P D P P P P P P P P P P P P P P P H P P P P P P P V H P P K P P P P P P P P D P P P P P V P K H V 9 y 0 s 5 ",
"0 d 0 0 0 P H P P P P P P P P K P H P P P P P P P P P P P P P P P P P P P P P P P P P H P P P P P P P P P P P P P P P P P K P P K P H K H V 8 0 5 9 d ",
"9 y 9 y 0 V H P P P P P P P P P P P P P P H P P P P P K P P P P P P P P P P P P P P P P K H P P P P K P P H P P P H P P P P P P H V H K H V 0 y d 0 4 ",
"9 y 9 0 0 V H P P P P V P P P P P P P P P P P P P P P H P P H P H P P K P P H P H V P P P P P P P P P P P P P P P P P P P P P P K P B K P K 9 0 5 4 y ",
"0 y 0 0 0 V H P P P H K P H P P P P P P K P P P P P P P P P P P P P P P P P K P P K P P P P P P H P P P P P P P P P P P H P P P K P H K H K 0 d s 5 9 ",
"9 y 9 9 8 V H P P P P H P P P P P P P P P P P P P P P P K P P P P P P P P P H P P P P P P P D P P P P P P P D P P H K P P H P P P P H K H V 0 0 5 9 y ",
"0 y 0 5 9 P H P P P P P P P P P P P P P P P P P P P P P V H P P H P P P P P P P P P P P P P P P H P P P P P P P P P P P P P P P P P H K H V 0 d d 0 9 ",
"0 d 8 0 0 K H P P P P P P H P P P V P P P P P H P P P P H P P P P P P P P P P P P P P H P P P P P P P P H P P P P P P P P P P P K P N K P V 0 0 5 4 s ",
"9 y 0 0 0 V H P P P P P P P P P H K H P P P P P P P P P P P P P P P P P P P P P P P P P P P P P P P P P K P P P P P P P P P P P P P H K H K 0 d s 5 5 ",
"0 d 1 8 2 m K C P P P P P Z H H P P Z P P H Z P H Z H P P P P P P P P H Z H P P P P Z P P P Z P V P Z P P Z H H Z P P P P P P P H N U Z H F 4 7 0 0 0 ",
"9 s y d u G R Z P K K P K K K K K m D K K v D K K m v K P K K P v K P K K P D K P m D K K K H K K m D P K K K K D v D P D K K D L m x x V m u 5 0 0 0 ",
"4 y d d h z S m P P H V Z H P P H V P P H P P P P P V P P V H H P H V P H V H V P H P P H V H N V P H K P P P P V P H K P Z V H H H H U H S a 3 d 4 0 ",
"d 4 s 4 1 > ; O X X X X X o X X & X & X $ X & X X X X & X X o X X $ & X X o X o o X & X X X $ $ X o X X X & X X X $ X X X X X ; = & . o o ; 7 q 0 5 d ",
"0 1 0 0 8 $ + @ $ $ $ $ $ $ $ $ $ $ $ $ $ $ $ $ ; $ $ $ $ $ ; $ $ ; $ $ $ ; $ $ $ $ $ $ $ ; $ $ $ ; $ $ ; $ $ $ ; $ $ ; $ $ $ $ X - # :   X 9 0 4 d 9 ",
"4 8 0 4 5 : $ % # # # # # # # # # # # # # # # # # # # # # # # # # # # # # # # # # # # # # # # # # # # # # # # # # # # # # # # # X & # ; X & 0 y 0 0 5 ",
"4 9 9 y 5 & ; - = o o O ; O O o o o ; O o o O o o O o O $ O O o O $ O o $ O o O $ O O o O O $ & o O $ O $ O O o o O $ O O o O O . O $ X & X 5 y y y 0 ",
"f 0 9 0 0 . + $ $ X X X X X # $ . X X $ X X $ # X $ X $ X X X X X X # X X $ X X $ X X X X X X $ X X X X X X $ # X X X X # $ # X $ $ - # $ X 2 d 0 9 0 "
};
