/* XPM */
static char *_385d53be8054726cce037c2532dee6bfNgmhesdz6NXtN68[] = {
/* columns rows colors chars-per-pixel */
"75 75 133 2 ",
"   c #BA4FBE",
".  c #B452BF",
"X  c #BD54BD",
"o  c #BE59BE",
"O  c #C156BD",
"+  c #C259BD",
"@  c #DC7DA7",
"#  c #DE7EAD",
"$  c #DF7CB5",
"%  c #DB74BC",
"&  c #D77BBC",
"*  c #DC7EB9",
"=  c #E17DB5",
"-  c #E177B9",
";  c #E07CB8",
":  c #B44FC7",
">  c #BB4EC6",
",  c #B64CCC",
"<  c #BC4ECB",
"1  c #B754C3",
"2  c #BD53C4",
"3  c #BE5AC4",
"4  c #B752CC",
"5  c #BE53CA",
"6  c #B759CB",
"7  c #BF59CA",
"8  c #B64BD7",
"9  c #BB4ED1",
"0  c #B74ADB",
"q  c #BF4FD9",
"w  c #B651D0",
"e  c #BD52D2",
"r  c #BE58D5",
"t  c #BF51D8",
"y  c #C24FC6",
"u  c #C14DCE",
"i  c #C155C5",
"p  c #C15AC4",
"a  c #C154CC",
"s  c #C35ACB",
"d  c #C24FD2",
"f  c #C254D3",
"g  c #C359D0",
"h  c #C361C4",
"j  c #CA60CC",
"k  c #DD7BC2",
"l  c #E17EC4",
"z  c #E27DC9",
"x  c #EEA791",
"c  c #EBA69E",
"v  c #EBAB9F",
"b  c #EDAA9C",
"n  c #F3A990",
"m  c #F6AC93",
"M  c #F2AB95",
"N  c #F1A39F",
"B  c #F0A69D",
"V  c #F2AA9B",
"C  c #F3AB9D",
"Z  c #F2A89F",
"A  c #F4AA9D",
"S  c #F5AD9E",
"D  c #F2AA9D",
"F  c #DF80AC",
"G  c #DE82B4",
"H  c #DF88B5",
"J  c #DE81B9",
"K  c #E283AF",
"L  c #F09EAA",
"P  c #E080B0",
"I  c #E082B7",
"U  c #E381B5",
"Y  c #E580B8",
"T  c #E485BD",
"R  c #E380BA",
"E  c #F19EB0",
"W  c #F29FB1",
"Q  c #ECA5A3",
"!  c #EEABA2",
"~  c #EAACA1",
"^  c #EFADA1",
"/  c #EFACA3",
"(  c #EDAAA4",
")  c #EFAAA5",
"_  c #EDACA6",
"`  c #EFACA6",
"'  c #EEAAA5",
"]  c #EFA7AA",
"[  c #EEA8A8",
"{  c #EFABA8",
"}  c #EDA9AA",
"|  c #EDACA8",
" . c #EDA9AA",
".. c #F1A1A0",
"X. c #F4A4A3",
"o. c #F1A1A4",
"O. c #F2A2A5",
"+. c #F1A7A4",
"@. c #F0A6A5",
"#. c #F1A5A7",
"$. c #F4A4A5",
"%. c #F1A6A2",
"&. c #F3A8A3",
"*. c #F2A9A3",
"=. c #F0AAA2",
"-. c #F3AAA3",
";. c #F1AAA6",
":. c #F4A9A4",
">. c #F6ABA6",
",. c #F2ACA4",
"<. c #F2A9A6",
"1. c #F1A4AC",
"2. c #F4A4AD",
"3. c #F2A4AB",
"4. c #F1AAA8",
"5. c #F7ABAB",
"6. c #F1A9AC",
"7. c #F3A9AB",
"8. c #F9ABA9",
"9. c #F8AAA8",
"0. c #F3B1A1",
"q. c #F9B3A9",
"w. c #EEACB0",
"e. c #EFA8B6",
"r. c #EDAAB2",
"t. c #F3A3B0",
"y. c #F4A7B1",
"u. c #F6A6B3",
"i. c #F0A8B3",
"p. c #F4A8B4",
"a. c #F1A9B4",
"s. c #F3A0BE",
"d. c #F2A8B9",
/* pixels */
"f 5 2 s i a 2 f s 5 5 r 5 5 5 i a 2 a 5 i 5 2 a 2 5 5 a 5 i 5 a 2 a a 2 a 2 a 5 a 2 a 5 i 5 5 a 2 5 2 a a 2 a 5 2 2 a i 9 2 e s 2 s a 2 i f 9 2 a 5 a ",
"< i 5 < < f 2 2 2 2 2 s 5 4 e 5 5 5 5 5 5 5 a 5 a 5 5 5 5 5 5 5 5 5 5 5 5 5 5 a 5 5 5 5 5 5 5 5 5 a 5 5 5 a 5 5 s < < i 5 o i > f < a i f > a 2 5 7 5 ",
"i a s 5 5 f 5 3 9 f 5 2 2 2 i 5 5 5 5 5 5 2 a 5 a 2 2 a 2 a 5 5 5 2 5 5 a 2 2 a 2 a 5 5 a 5 2 5 2 5 a 2 5 2 5 5 2 2 < 5 e 5 e 9 f 9 s a a 2 i a 2 5 2 ",
"a < 5 i 5 3 9 4 a s e O 2 5 5 e a 5 a s a a a 5 a 5 a a a 5 a s a a a a a a 5 a 5 a a s a 5 s a a a a a 5 a a s 5 2 f a 7 3 g a 2 s 2 9 i 5 < e a 5 a ",
"s 5 9 5 , p e 3 1 s 8 p a a < a 5 5 5 5 5 5 5 5 5 5 5 5 5 5 5 5 5 a 5 5 5 5 5 5 5 5 5 5 5 5 5 5 5 < s 5 5 < 5 5 a a f 9 3 1 4 4 2 5 2 f 7 5 7 5 2 5 3 ",
"5 5 s i + L 2.V m o.s 2 9 d O $ ; ; ; ; ; ; ; ; ; ; ; ; ; ; ; ; ; ; ; ; ; ; ; ; ; ; ; ; ; ; ; ; ; ; ; ; ; ; R ; * $ ; J X.;.-.A +.h 3 9 t o o.+.' } } ",
"2 a 5 9 4 y.d./ ] 1.r 2 a f a l = = = = = = = = = ; U = = R = = = = ; R = = = = = = U = = = = = = ; R ; ; = = ; ; ; $ J &.,.;.c y.8 a i f . 5.r.} _ { ",
"e a 2 s 1 S / b / =.w 2 i a   = l ; ; ; l - ; ; ; ; ; l - ; * l l ; ; ; * l ; - l - * l ; - ; ; ; ; ; ; ; l ; ; ; = ; * &. . .} V 6 > p a 2 ;.~ &.&.&.",
"s 2 e 5 1 n } ! ;.-.w 2 5 f 2 $ ; ; ; ; ; ; ; ; ; ; ; $ ; ; ; ; ; ; ; ; ; ; ; ; ; ; $ ; ; ; ; ; ; ; ; ; ; ; ; ; - $ # - >.a._ v 8.. 5 s < 5 2./ ;.' ;.",
"> i f a s o.y.c &.N 7 5 5 f f $ ; ; ; ; ; ; ; ; ; ; ; = ; $ ; ; ; ; ; ; ; ; ; ; ; ; ; ; ; ; ; ; ; ; ; ; ; ; ; ; - l = Y o.+.C &.t.3 2 2 f 5 N b ' ' ' ",
"2 2 5 9 8 s r e e 7 0 s > i f * ; ; = ; $ ; ; ; ; ; ; ; ; ; ; ; ; ; ; ; ; ; ; ; ; ; ; ; $ ; ; ; ; ; ; ; ; ; ; ; = = = l 3 e 5 e p 8 9 X a r ! i.' ' ' ",
"e 5 2 + p 2 2 2 5 1 5 s a 2 a $ $ - $ ; ; ; ; ; ; $ ; ; ; ; ; ; ; ; ; $ $ ; ; ; ; ; ; ; ; ; ; ; ; $ ; ; $ ; $ ; ; ; = = 4 e 5 5 i f a i 5 2 x ! ' ;.' ",
"6 g 5 2 5 9 a i a a > 2 a p a K ; ; ; ; $ ; ; ; ; ; ; ; $ ; ; ; ; ; ; ; ; ; ; ; = $ ; ; ; ; ; ; ; ; ; ; ; ; ; ; $ * % = 2 2 + 5 a 2 > u 9 r ,.r.' &.' ",
"5 5 2 5 a d a a u f i i p > < - ; $ ; ; ; ; ; ; ; ; ; ; ; ; ; ; ; ; ; ; ; ; ; ; ; ; ; ; ; ; ; ; ; ; ; ; ; ; ; ; $ ; ; ; 5 5 2 f f < X s 2 2 ! Q ' [ ' ",
"a 5 2 5 5 X 5 2 2 s e f > a s l ; ; ; ; ; ; ; ; ; ; ; ; ; ; ; ; ; ; ; ; ; $ ; ; ; ; ; ; ; ; $ ; ; ; ; ; ; ; ; ; $ R Y $ s 4 < a 2 5 2 e 2 + ! C ;.' ' ",
"X f i 9 s $ l = = % $ Y @ l k @ ; ; ; ; ; ; ; ; ; $ ; ; ; ; ; ; ; ; $ ; ; ; ; ; ; ; $ ; ; ; ; ; ; $ ; ; ; ; $ $ $ l ; = - $ = ; = z = $ $ k 2.' ' ' ' ",
"5 a a 5 a ; = ; ; $ ; ; ; ; ; ; ; ; ; ; ; ; ; ; ; ; ; ; = $ ; ; ; ; ; ; ; ; ; ; - $ ; ; ; ; ; ; ; ; ; ; ; ; ; ; ; ; ; = $ ; ; ; R ; = ; ; * +.( ' ' ;.",
"5 5 2 5 5 ; = ; ; ; ; ; ; ; ; ; ; ; ; ; ; ; ; $ ; ; ; ; ; ; ; ; ; ; ; ; ; ; ; ; $ = ; ; $ ; ; ; ; ; ; ; ; ; ; ; ; ; ; ; ; ; ; ; ; ; = ; ; * 4.( } ' ' ",
"5 5 5 5 5 = = ; ; ; ; ; ; ; ; ; ; ; $ ; ; ; ; ; $ ; ; ; ; ; ; $ ; ; ; ; ; ; ; $ ; ; ; ; ; ; ; ; ; ; ; ; ; ; ; ; $ ; ; ; ; ; ; $ ; ; = ; ; * ;.' ' ;.' ",
"i 5 a 5 5 * R - ; ; ; ; ; ; ; $ ; ; ; ; ; ; ; ; ; ; ; ; ; ; ; ; $ = $ ; ; ; ; ; ; ; ; ; ; ; ; ; ; ; ; $ $ ; ; ; ; ; ; ; ; ; ; ; ; ; = l $ * 4.' ' ' ' ",
"5 5 5 5 a = = * ; ; ; ; ; ; ; ; ; ; ; ; ; ; ; $ ; ; ; ; ; $ ; ; ; ; ; ; ; ; ; ; ; ; ; ; ; ; ; ; ; ; ; ; ; ; ; ; ; ; $ ; ; ; ; ; ; ; ; ; $ $ 4.( ' ;.! ",
"a 5 i 5 5 ; R - ; ; $ ; ; ; ; ; ; ; ; ; ; ; ; ; ; $ ; ; ; ; ; ; ; ; ; $ ; ; ; ; ; ; ; $ ; ; $ ; ; ; ; ; ; ; ; ; ; ; ; ; ; ; $ ; ; ; = ; $ J 1.( ' ' ;.",
"2 a 5 5 5 ; = ; ; ; ; ; ; ; ; ; ; ; ; $ ; ; ; ; ; ; ; ; ; ; ; ; ; ; ; ; ; ; ; ; ; ; ; ; ; ; ; ; ; ; ; ; ; $ ; ; ; ; ; ; ; ; ; ; = ; = ; * & 4.' ' ' ' ",
"5 5 5 s 5 ; ; ; ; ; ; ; $ ; ; $ = ; ; ; ; ; ; ; ; ; ; ; ; ; ; ; ; ; ; ; ; $ ; ; ; ; ; ; ; ; ; ; ; ; $ ; ; ; ; ; ; ; ; ; ; ; ; ; ; ; = ; $ J ;.' ;.' ' ",
"5 5 2 a 5 ; = ; ; ; ; ; ; ; ; ; $ ; ; ; ; ; ; ; ; ; ; ; ; $ ; ; ; ; ; ; ; $ ; ; ; ; ; ; ; ; $ ; ; ; ; ; $ ; ; ; ; ; ; ; ; ; ; ; R ; = ; ; * 1.~ ' ' ;.",
"5 a 5 5 5 ; = - ; ; ; ; ; ; ; ; ; ; ; ; ; ; = $ ; ; ; ; ; ; ; ; ; ; ; ; ; ; ; ; $ ; ; ; ; ; ; ; ; $ ; ; ; ; ; ; = ; ; ; ; ; ; ; ; ; = ; ; * 4.( ;.' ' ",
"5 a i 5 5 $ = k ; * ; ; ; ; $ ; ; ; $ ; ; ; ; ; ; ; ; $ ; ; $ = ; ; ; ; ; ; ; ; ; ; ; ; = ; ; ; ; ; ; ; ; ; ; ; $ ; ; $ ; ; ; ; ; ; = ; ; * 4.' ' ' ' ",
"2 5 5 5 s = = ; ; ; ; ; ; ; ; ; ; ; ; ; ; ; $ ; ; ; ; ; ; ; ; ; $ ; ; ; ; ; ; ; ; ; ; ; $ ; ; ; ; ; ; ; ; ; ; ; ; ; ; ; ; ; ; $ ; ; = l $ * ;.' ;.' ! ",
"a 5 a 5 5 = = ; ; ; ; ; ; ; ; ; ; ; ; ; ; ; ; ; ; ; ; ; ; ; ; ; ; ; ; ; ; ; ; ; $ ; ; ; ; ; ; ; ; ; ; ; ; ; $ ; ; ; $ ; ; ; ; ; ; ; = ; $ $ 4.( ' ' ;.",
"a 5 5 5 5 = = l ; ; = ; ; ; ; ; ; ; ; ; ; ; ; ; ; ; ; ; ; ; ; ; ; ; $ ; $ ; ; ; ; ; ; ; ; ; ; ; ; ; $ = ; ; ; ; ; ; ; ; ; ; ; ; ; ; $ ; * J 1.( ' ' ' ",
"2 5 5 5 5 ; = ; ; ; ; ; ; ; = ; ; $ ; ; ; ; ; ; ; $ ; ; ; ; ; ; ; ; ; ; $ = ; ; ; ; ; ; $ ; ; ; $ ; ; ; ; ; = ; ; ; ; ; ; ; $ ; ; ; = ; $ & 4.' ' ' ' ",
"a 5 i 5 5 = = ; ; ; ; ; ; ; $ ; ; ; ; ; $ ; ; ; ; ; ; ; $ ; ; ; ; ; ; ; ; ; ; ; ; ; ; ; ; ; ; ; ; ; ; ; ; ; $ ; ; ; ; ; ; ; ; ; = ; ; ; = J +.' ' +.' ",
"5 5 2 a 5 = = l $ ; ; ; ; ; ; ; ; ; ; ; ; ; ; $ ; ; ; ; ; $ ; ; ; ; ; ; ; $ ; ; ; ; ; ; $ ; $ ; ; ; ; ; ; ; ; $ ; ; - $ ; ; ; ; ; ; ; ; ; J +.( ' } ' ",
"2 5 a 5 5 = = ; ; ; ; ; ; ; ; ; ; ; ; $ ; ; ; ; ; ; ; ; ; = ; ; ; ; ; ; ; ; ; ; ; ; ; ; ; ; ; ; ; ; ; ; ; ; ; ; ; ; $ = ; ; ; ; ; ; = ; ; * 4._ ' ' ;.",
"a 5 5 5 5 ; = * ; ; ; ; $ ; ; ; ; ; ; ; ; ; ; ; ; ; ; $ ; ; ; ; ; ; ; ; ; ; ; ; ; ; ; $ ; ; ; ; ; ; ; ; ; ; ; ; ; ; ; ; ; ; ; ; = ; = l ; * ;.' ' ;.' ",
"2 a a 5 5 = R - ; ; ; ; ; ; ; ; ; ; ; ; ; ; ; ; ; ; ; ; ; ; ; ; $ ; ; ; ; ; ; ; ; ; ; ; ; ; ; ; ; $ ; ; ; ; ; $ ; ; ; ; ; ; ; $ ; ; = ; ; * +.' ' ' ' ",
"a 5 a 5 5 ; = ; ; ; ; ; ; ; ; ; ; ; ; ; ; ; = ; ; ; ; ; ; ; ; ; ; ; ; ; ; ; ; ; $ ; ; ; ; ; ; ; ; ; ; ; ; ; ; ; ; ; $ ; ; ; ; ; ; ; ; ; $ * 4.~ ' ' ;.",
"5 5 2 5 5 $ = ; ; ; ; ; ; ; ; $ ; $ ; ; ; ; $ ; $ ; ; ; ; ; ; $ ; ; $ ; = $ ; ; = ; ; ; ; ; ; ; ; ; ; ; ; $ ; ; ; ; ; ; ; ; ; ; R ; = ; $ * +._ ' ;.' ",
"5 5 a 5 a = ; ; ; ; ; $ $ ; ; ; ; ; ; ; ; ; ; ; ; ; ; ; ; ; ; ; ; ; ; ; ; ; ; $ ; ; ; ; $ ; ; ; ; ; = ; ; ; ; ; ; ; ; ; ; ; $ ; = ; ; ; $ * 1./ ' ' ' ",
"a 5 i 5 5 ; = ; ; ; ; ; = ; ; ; ; ; ; ; ; ; ; $ ; ; ; ; ; ; ; ; ; ; ; ; ; ; ; ; ; ; ; ; ; ; ; ; ; ; $ ; ; ; ; ; ; ; ; ; ; ; ; ; ; ; = - * * ;._ ' ;.' ",
"2 a a 5 a = = $ $ ; ; ; ; ; ; ; $ ; ; ; ; ; ; ; ; ; ; ; ; $ ; $ ; ; ; ; ; ; ; ; ; ; ; ; ; ; ; ; ; $ ; ; $ ; ; ; ; ; ; ; ; $ ; ; ; ; = ; ; * 1.~ ' ;.' ",
"5 5 2 5 5 ; R - ; ; ; ; ; ; ; ; ; ; ; $ ; ; ; $ ; ; ; ; ; ; ; ; ; ; ; $ ; ; $ ; ; ; ; ; ; ; ; $ ; ; ; ; ; ; ; ; ; ; ; ; ; = ; ; ; ; = ; ; J 4.( ' ' [ ",
"5 5 5 5 s = = * ; ; ; ; ; ; $ ; ; ; ; = ; ; ; ; ; ; ; ; ; ; ; ; ; ; ; ; ; ; ; ; ; ; ; ; ; ; ; ; ; ; ; ; ; ; ; ; ; ; ; ; ; ; ; ; = ; ; l ; * +.' ' ;.;.",
"i 5 5 a 5 ; ; ; ; ; ; ; ; ; ; ; ; ; ; ; ; ; ; ; ; ; $ ; ; ; ; ; ; ; ; ; ; ; ; ; ; $ ; ; ; ; ; ; ; ; ; ; ; ; $ = $ ; ; ; ; ; ; $ = ; ; ; ; * 4.' ' ! ' ",
"5 a a 5 5 ; = - ; ; $ ; ; ; $ ; ; ; ; ; ; - $ ; = $ ; ; ; ; ; ; ; ; ; = $ - ; $ ; ; ; ; ; ; ; $ ; ; ; ; ; ; ; ; ; ; ; ; ; ; ; ; ; ; = ; $ $ ;.~ ' ' ' ",
"5 5 2 5 5 ; ; * ; ; ; ; ; ; ; ; ; $ ; ; ; ; ; ; ; ; ; ; ; ; ; ; ; ; ; ; ; $ ; ; ; ; ; ; ; ; ; ; ; ; $ ; ; ; ; ; ; ; $ ; ; ; ; ; * R = ; $ J 1._ +.' ;.",
"2 a 5 5 5 = ; ; ; ; $ = ; ; ; ; ; ; ; ; ; ; ; ; ; ; ; ; ; $ ; ; $ ; ; ; ; ; ; ; ; ; ; ; ; ; ; ; ; ; ; ; ; ; ; ; ; ; ; ; ; ; $ ; ; ; ; ; * * 1._ ;.' ' ",
"a 5 5 5 s ; R ; ; ; ; ; ; ; ; ; ; ; ; ; ; ; ; $ ; ; ; ; ; ; ; ; ; ; ; ; ; ; ; ; ; ; ; $ = $ ; ; ; ; ; ; $ ; ; ; ; ; ; ; ; ; ; ; ; ; = ; $ $ +.' ' ' ' ",
"2 5 5 a 5 ; = ; ; ; ; ; ; ; ; ; ; $ ; ; ; ; ; ; ; ; ; ; ; ; ; $ $ = ; ; ; ; ; ; $ ; ; ; ; ; ; ; ; ; = $ ; ; ; ; ; ; ; ; ; $ ; ; R ; = ; ; * 4.( ' ' ' ",
"a 5 2 5 5 = = ; ; ; ; ; ; ; ; ; ; ; ; ; ; ; ; ; ; ; $ ; ; ; ; ; ; ; ; ; ; ; ; ; ; ; ; ; ; ; ; ; ; ; ; ; ; $ ; ; = ; ; ; ; ; ; ; ; ; $ ; ; J 4.( ' ' ' ",
"a 5 a 5 a ; = l ; ; * ; ; ; ; ; ; ; ; $ ; ; ; ; ; ; ; ; ; ; ; $ ; ; ; ; $ ; ; ; ; ; ; ; $ ; ; ; ; $ ; ; ; ; ; ; $ ; ; ; ; ; ; ; ; ; = ; ; * 4.' ' ' ' ",
"5 a 2 5 5 = = ; ; ; ; ; ; ; ; ; ; ; ; = ; ; $ ; ; ; ; ; ; ; ; ; ; ; ; ; ; ; ; ; ; ; ; ; ; ; ; ; ; ; ; ; ; ; ; ; - $ ; ; ; ; ; ; ; ; = l $ * +.' ' ' ;.",
"2 a a 5 5 ; = * ; ; ; ; ; ; ; ; ; ; ; ; ; ; ; ; ; ; ; ; ; ; ; ; ; ; ; ; ; ; ; ; ; ; ; = ; ; ; ; ; ; ; ; ; ; ; ; ; ; ; ; ; ; ; ; ; ; $ ; * $ } ( ;.' ' ",
"5 5 2 5 5 ; = - ; ; ; ; ; ; ; ; ; ; ; ; ; ; $ ; ; ; ; $ ; $ ; ; ; $ ; ; ; ; ; $ ; ; ; $ ; ; $ ; ; ; ; ; ; ; ; ; ; ; ; ; $ ; ; ; ; R = ; $ * ;.( ' ' ' ",
"a 5 5 a a = = ; $ ; ; ; ; $ ; ; ; ; ; ; ; ; ; ; = ; ; - ; ; ; ; ; ; ; ; ; ; ; ; ; ; ; ; ; ; ; ; ; ; ; $ ; ; ; ; ; ; ; ; ; ; ; ; ; ; ; ; ; * ;.' ;.' ;.",
"2 a 5 5 5 ; = ; ; ; ; ; ; ; ; ; $ ; ; ; ; ; ; ; $ ; ; ; ; ; ; ; ; ; ; ; ; ; ; ; $ ; ; ; ; ; ; ; ; ; ; ; ; ; $ ; ; $ ; ; $ ; ; ; ; ; $ ; $ $ ;._ ' ' ' ",
"5 5 2 5 a * ; $ - ; = - U J $ = $ ; ; ; ; ; ; ; ; ; ; ; ; ; ; ; $ ; $ ; ; ; ; ; $ ; ; ; ; ; ; $ ; $ ; ; ; ; ; ; = = $ $ l ; $ & ; ; ; U ; $ ' N ;.' ;.",
"2 5 2 i a $ = $ ; l = = - * ; l ; ; ; ; ; ; ; ; ; ; ; ; ; ; ; $ ; ; ; ; ; ; ; ; ; ; ; ; ; ; ; ; ; ; ; ; ; ; ; ; = ; $ ; ; ; ; ; $ = = ; ; J Q X.! ' ' ",
"f < u f f ; U * F = = = ; $ Y - ; ; $ = ; ; $ ; ; = ; $ ; ; ; ; ; ; ; ; ; $ ; ; ; ; ; ; ; $ ; ; ; ; ; ; ; ; ; ; ; ; ; $ ; = = = & = $ l - R Q ! [ &.' ",
"i i a 5 9 $ $ & & R % = ; = ; = ; ; ; ; ; ; ; ; ; $ ; ; ; ; ; ; ; ; ; ; ; ; ; ; ; ; ; ; ; = ; ; ; ; ; ; ; ; ; ; = = ; k Y * $ % G % $ R = = v ! ' ' ' ",
"5 5 5 5 7 $.,.;.>.o.p < > 5 a % ; ; ; ; ; ; $ ; ; ; ; ; ; ; ; ; ; ; ; ; ; ; ; ; ; $ ; ; ; ; ; ; ; ; ; ; ; ; ; ; $ ; = R X.[ &.S O.g a 2 u r ' =.' ' ' ",
"2 3 6 2 1 ! =.} r.4.4 e p s 4 R ; ; ; ; ; ; ; ; ; ; ; ; ; ; ; ; ; $ ; ; ; ; = ; ; ; ; ; ; ; ; ; ; ; $ ; ; ; ; ; ; = = * !  . .( -.9 a + i 4 _ X.' ' ;.",
"a i d 4 e ,.{  .' A 5 5 X i 5 = ; ; ; ; ; ; ; ; ; ; $ ; $ ; ; ; ; ; ; ; - ; $ ; ; ; ; ; ; $ = $ ; ; ; ; ; ; ; ; $ ; = - v  .| ' v 9 5 2 y 5 ! ! ' ;.' ",
"a 2 d a 5 A v ' ! ! r a a u a ; $ ; ; ; ; ; ; ; ; ; ; ; ; ; ; ; ; ; ; ; $ ; ; ; ; ; ; ; ; ; ; ; ; ; ; ; ; ; ; ; & ; = l V } ' &.! g 5 9 i s ! ;.' ' ' ",
"9 p X e o s.N ;.8.W p > 2 f X ; ; ; ; ; ; ; ; ; ; ; ; ; ; ; ; ; ; ; ; ; ; ; ; ; ; ; ; ; ; ; ; ; ; ; ; ; ; ; ; ; ; * & U Q %.v ! X.3 e 5 a 9 4. .' ;.' ",
"u i i u > s X 3 . 3 8 5 i 5 e z ; ; ; ; ; ; - ; ; ; ; ; l ; ; ; ; ; ; l ; ; ; ; l ; R ; ; ; ; l ; ; ; ; R l ; ; - = = % a f e 5 7 , 2 + i e ;.~ ' ' ' ",
"f e r p o 2 : 6 5 5 r a 5 2 5 ; = ; ; = ; = ; ; ; ; ; ; ; ; ; = ; = $ $ ; ; = = = ; ; $ = $ $ ; ; ; = ; = ; ; = = = = = a 2 5 5 9 2 5 d 2 1 b / ' ;.+.",
"2 e r . 1 e r p i   X 2 a i a ; - ; - ; ; ; ; ; ; ; ; ; - ; ; ; - ; ; ; ; ; ; - ; - ; ; - ; ; ; ; ; - ; ; ; - ; = $ k = a O 2 e 5 o e f i o V r.' ' ' ",
"O a a a u d u y < f a 5 9 2 . $ ; ; = ; ; ; = ; ; = ; $ ; ; ; ; $ * ; ; = = ; = ; ; = ; ; ; = = ; ; ; ; ; ; ; ; ; ; l U u y i i a 2 a i q 5 ] i.;.' ' ",
"< 5 5 7 5 s i i 5 s 5 5 e p O k J J * * * * J & J & J J R J J * J J $ J * J & J * J J & J $ J & J $ * * J * * J * J ; $ r e e < e 4 2 X e p 1.c ' ' ' ",
"! [ Q / ! ' } 4.2.=.&.M -.;.! 2.4.4.1.;.;.;.;.4.;.-.4.1.4.4.;.+.4.1.4.;.;.$.+.1.4.4.4.4.;.4.1.;.;.4.;.;.1.4.;.+.' } } =.] ! ! ' $.&.A b ] Q q.Q ;.' ' ",
"! 4.] ! !  .6.A / b r._ r.Q 0.Q ' ( _ ~ ' ' ' ( ' ' ( ( ( ( ( ' ( ( ( ' _ _ ' ! ' ' ( ( ' ( / ( ( ' ' _ ~ _ ' ' &.,.&.[ =.&.! [  .v ~ r.i.! ( ~ ' ' ' ",
"[ ! [ ! ' ' ' ' ' ' ' ;.' ' ' ' ;.' ' +.' ;.' ;.' ' ;.' ' ' ' ' ' ' ;.' ;.' ! [ ' ' ! [ ' ' ' ' ' ' ' ' ' ' ' ' ' ' [ &.' ' ' ' _ ' ' ' ' ' ;.' ;.' ;.",
"! [ [ +.&.[ ' ' ;.' ' ' &.[ ' ' ' ' ' ' ' ' [ ' ' ' ' ' ' ;.;.' ' ' ' ' ' ' ;.' ;.' ;.' ;.' ;.' ' ' ' ' ;.' ;.' ' ;.' ' ;.' ' ;.' ;.;.' ' ' ' ' ! ' ' ",
"! ' ! +.;.! ' [ ' ;.' ' ;.! ' ' ' ' ;.! ' ' ' ' ' ;.' ' ;.' ' ' ' ' ' &.;.' ' ' ! [ ' ;.' ' ;.' ' ' ;.' ' ' ' ;.' ' ' ' ' ' ;.' ;.' ' ' ' ;.' ' ;.' ' "
};
