/* XPM */
static char *fc67bd02d5a541faf3dda59931ff039dtzkojJhSSCmi0Sqn[] = {
/* columns rows colors chars-per-pixel */
"75 75 207 2 ",
"   c #000000",
".  c #0A0103",
"X  c #010903",
"o  c #0A0C00",
"O  c #02020A",
"+  c #0B020B",
"@  c #010B0A",
"#  c #09080A",
"$  c #130003",
"%  c #13010D",
"&  c #18000C",
"*  c #020412",
"=  c #0B0213",
"-  c #010A14",
";  c #000118",
":  c #140111",
">  c #180014",
",  c #14081C",
"<  c #111111",
"1  c #191919",
"2  c #200B1A",
"3  c #24071B",
"4  c #31071B",
"5  c #24191F",
"6  c #390D2B",
"7  c #271626",
"8  c #2B1324",
"9  c #3D142E",
"0  c #3D1B2F",
"q  c #331929",
"w  c #3D1633",
"e  c #371E31",
"r  c #3C1A34",
"t  c #3F1639",
"y  c #3F1C3A",
"u  c #232728",
"i  c #322131",
"p  c #3B2033",
"a  c #343434",
"s  c #42162F",
"d  c #441A2F",
"f  c #49192F",
"g  c #4B0F31",
"h  c #440F39",
"j  c #441534",
"k  c #4B1335",
"l  c #441A35",
"z  c #4A1A37",
"x  c #44163B",
"c  c #4B153B",
"v  c #451A3A",
"b  c #4B1B3A",
"n  c #501436",
"m  c #52153A",
"M  c #521E3E",
"N  c #581B3C",
"B  c #492136",
"V  c #44223C",
"C  c #4C213C",
"Z  c #51233F",
"A  c #461940",
"S  c #4C1E41",
"D  c #521E44",
"F  c #482140",
"G  c #572646",
"H  c #5C2646",
"J  c #61284B",
"K  c #672553",
"L  c #702955",
"P  c #712C58",
"I  c #7E2D56",
"U  c #6C3252",
"Y  c #6F325C",
"T  c #7E315F",
"R  c #7F2A6B",
"E  c #773863",
"W  c #7D3D6D",
"Q  c #7E356D",
"!  c #7E3A73",
"~  c #464847",
"^  c #64706C",
"/  c #787775",
"(  c #79797B",
")  c #8C275F",
"_  c #832E5C",
"`  c #892C5D",
"'  c #84315F",
"]  c #89345E",
"[  c #8E256B",
"{  c #832E6F",
"}  c #8B2D6C",
"|  c #882F63",
" . c #932D65",
".. c #922D6D",
"X. c #992C6C",
"o. c #9B236D",
"O. c #813567",
"+. c #8B3465",
"@. c #843962",
"#. c #8A3A63",
"$. c #85346C",
"%. c #8C336D",
"&. c #823B69",
"*. c #8A3A6A",
"=. c #933465",
"-. c #953867",
";. c #92326D",
":. c #9B316A",
">. c #903868",
",. c #8C2E72",
"<. c #862D71",
"1. c #952574",
"2. c #932D74",
"3. c #9B2D73",
"4. c #952E79",
"5. c #9B2E7B",
"6. c #9D2272",
"7. c #863472",
"8. c #8D3372",
"9. c #853B73",
"0. c #8A3974",
"q. c #8D347A",
"w. c #83397B",
"e. c #8C3A79",
"r. c #85357A",
"t. c #933373",
"y. c #9A3274",
"u. c #933875",
"i. c #983A76",
"p. c #93337A",
"a. c #9A337A",
"s. c #943B7A",
"d. c #9D3A7B",
"f. c #A22D73",
"g. c #A32E7C",
"h. c #80416C",
"j. c #824161",
"k. c #8A4272",
"l. c #9A3183",
"z. c #C6399F",
"x. c #BA4385",
"c. c #D754AA",
"v. c #DD59AD",
"b. c #F552AB",
"n. c #EB4EB4",
"m. c #E64FB8",
"M. c #EB4EBA",
"N. c #F24DB5",
"B. c #F74FBC",
"V. c #FD4DBA",
"C. c #EB53B4",
"Z. c #E553BB",
"A. c #EC54BD",
"S. c #E75DBB",
"D. c #EC59BB",
"F. c #E658B5",
"G. c #F253B6",
"H. c #F152BA",
"J. c #F055BA",
"K. c #F055BB",
"L. c #F354BA",
"P. c #F252BC",
"I. c #F154BD",
"U. c #F356BD",
"Y. c #F452BD",
"T. c #FA52BC",
"R. c #F258BD",
"E. c #F55ABC",
"W. c #FC5BB9",
"Q. c #E260B8",
"!. c #F54EC2",
"~. c #FA4DC8",
"^. c #EE56C1",
"/. c #EB53C2",
"(. c #E658C6",
"). c #EE5AC2",
"_. c #E354C6",
"`. c #F252C1",
"'. c #F454C2",
"]. c #F159C2",
"[. c #FF59C3",
"{. c #F652C5",
"}. c #EA64C7",
"|. c #8D8D8D",
" X c #92958E",
".X c #978C92",
"XX c #8B9891",
"oX c #949494",
"OX c #959499",
"+X c #989199",
"@X c #96999A",
"#X c #9A9A9A",
"$X c #989795",
"%X c #A0A0A0",
"&X c #A4A3A8",
"*X c gray70",
"=X c #C2B9BC",
"-X c #DDDDDD",
";X c #C6C6C6",
":X c #ECECEC",
">X c #F5F5F5",
",X c #FBF6F6",
"<X c #F6F8F7",
"1X c #FBF9F6",
"2X c #F4F9F9",
"3X c #FAFAFB",
"4X c #F5F4F9",
/* pixels */
"                                                                                                                                                      ",
"                                                                                                                                                      ",
"                                                                                                                                                      ",
"                                                                                                                                                      ",
"                                                                                                                                                      ",
"                                                                                                                                                      ",
"                                                                                                                                                      ",
"                                                                                                                                                      ",
"                                                            .       X X         O   X     . o O                                                       ",
"                                                O +   X   X .     . .         O   . *     O +   X . .   O                                             ",
"                                                  X X     . X O         O . .     $   O O     X               O                                       ",
"                                                    X X   +   .   .   # O     X   X   . X   .                                                         ",
"                                                O   $   X     X + X @ O U I U % . X     . O   O             X                                         ",
"                                                .   O . . . ; H.^.L.H.`.`.M.'.I._.M.}.!.S.+ X .     X .                                               ",
"                                                O   X X v.~.(.I.C.L.G.L.C.(.F.C.b.[.M.H.F.L.v.* %                                                     ",
"                                                X j T.~.Z.V.D.P.`./.).A.`.{.I.I./.M.A.Z.{.N.G.C.5 +                                                   ",
"                                O   .   X     O Z.A.A.Y.L.H.C.C.L.L.H.P.L.L.L.H.T.C.D.M.T.`.m.A.t.q     X     X                                       ",
"                                  X O +   O z.C.H.'.n.].A.].A.A.^.A.^.^.^.A.^.A.^.P./.^.'.C.D.g.q._ + $ X . .                                         ",
"                                .   :   O A.F.~.P.I.'.Z./.`.!.!.A.A.A.A.A.A.A.A.A.).A.P.m.S.2.<.7.8.-.    @   .                                       ",
"                                  O X   N.L.].F.I.P.C.P.L.C.A.R.L.L.I.C.L.H.L.L.B.A.A.b.C.g.q.$.y.4.} O     .                                         ",
"                                    . R.D.!./.N.C.C.H.C.F.6.2.{ 8.,.8.,.,.8.,.<.w.<.s.s.8.2.} 8.} r.y.  X X                                           ",
"                                X X T./._.G.W.A.E.c.2.p.9.7.8.;.8.8.u.8.%.u.8.u...y.} } 8.a.} t.s.X.* .       X                                       ",
"                                . H.n.{.).x.O.q.{ q.t.8.} %.8.8...%.} ;.;.} 8.;.;.8.$.u.t.$.8.y.%.G X   O   X .                                       ",
"                                X #.l.7.} t.2.$.u.} 8.8.t.a.} y.q.t.8.q.q.t.8.8.q.,.y.,.$.%.u.%.3.  X         .                                       ",
"                  X O   .     X } 8...y.7.7.2.,.2.t.q.<.u.;.8.8.%.t.q.%.t.8.8.t.;.%.8.$.9.2.f.$.X     .   .         . X       O                       ",
"                          X X 4 ;.7.e.,.p.%.*.-.%.2...P %   X                   O + K u.8.X.' -   . O X X X O   O @   O O .   .                       ",
"                    O .   O O -.t.$.,.8.X.#.+ . X .   X       O                   . . .   + .       X         O $.X.%.y.%.+                           ",
"                  X   .     =  .2.t.+.O   . X             o .                   X     o   X X . X .   .   O O >.9.7.y.3.u.&.. X                       ",
"                .   X   .   H k.+.O   X . . X . . .   O                             O   O . .           % + } 8.....0.y.{ 9.+.                        ",
"                      #     j.%   @     X .   . .   X     .   X                   O .   X   .              .0.w.;.$.8.%.0.2.;.                        ",
"                o         O $ O     . #         O     #   X                     O     X     # O     . X X    .0.t.2.r.X...u...O                       ",
"                  .   O X   X   @ +         O O X     . E 8.2.8.%.q.} t.8.} 8.q.;.$.y.2.7...+.O O .         * %.$.p.7.:.;.r.0.%                       ",
"                X .               X .     O O   6 &.%.} q.e.{ 5.a.} %.%.+.8.%.e.p.,.2.t.y.{ e.$.O     X       O y.+.q.} u.5.+.$.                      ",
"                        .     O     . O X + | ;.7.8.8.+.%   o X   #   O : Y ;.o.+.*.7.2.t.%.8.f.=.+   O X   . X O  .%.;.$.,.t.2.                      ",
"                O     X X   o   O X X   +.W t.;.. o   .   O     @       O     X . 6 &.t.9.} u.<.;.;.m O   .       %.%.} 0.5.q. .                      ",
"                .   O O       @ O . + *...5.; .   . O X     X       .             # O = ;.q.a.O.2.%.W =.O .   X O q.<.u.$.[ 7.X                       ",
"                  X     .   X     *.2...*   X       X   w c S c A j D j l . X X O   .   O  .<.t.r.y.9.%.>.    . . ,.y.0.u.u.}                         ",
"                X     #   .   + ;.9.$.O       . b b z c r V c x l B r b x x h c 0 + X   . O ;.t.q.2.y.} %.O #   X O ;.8.[ 2.0.                        ",
"                X O       . & ! 4.+.    . X d b c x x b l k k b k c w t V v c M l Z z X     O ;...s.[ y.u.O   . X   %.$.s.y.` O                       ",
"                  O   . X . h.4.} , + X   B k v V j z v j B y z v S z k b j l j x j l f + O   X %.%.0.,.$.>.      . ,.q.,.0.                          ",
"                  $ X   O 8.;.t.%.$   . l v v l l z z z v b w 8     O i e c n l v b j z l + X   =.,.8.} y.9.. O   * %.;.p.7.  O                       ",
"                . X     :.8.3.$.+ X X + l x z j c v r M 9 O   .   X   . : l n l v z l l z e     + 8.u...q.! .     O ..t.t.O.  .                       ",
"                    . - | q.2.;.  X + j k S v v v S j + .     X X   . O O e z x v k l z v V .   X $.} u.2.7.  O     r.t.` +                           ",
"                . @   +.a.,.$.O     e k N s 9 j q O   . X   X .   . .   X . b v x z v v z w : O . H { a.5.} . . . X 2.$.O   X X                       ",
"                  O % %.4.0.;.O . . V v % o   O O .   X     =X3X2X>X    @ + j x v v b x v z 0     O d.[ r.%.X     . 0.%.  X                           ",
"                  O =. .r.%.#.  X   O O O X             ~ 3X4X3X2X<X/ X   2 C v z j b v w D z O   X ..;.t.;.  X O    .*   .                           ",
"                  # %.2. .*.  .   +   O       .   X 3X3X>X>X>X4X3X>X3X    3 b j v s k v t c s     X t.%.3.R . X   . +     X .                         ",
"                    s.;.L O X         X   @ ( 4X2X4X3X2X3X,X,X3X,X,Xu   O C k l z v z w y c z   +   e.+.,.O X .           O   O                       ",
"                  @ +.` X .       <X3X3X>X>X3X>X<X3X<X<X3X>X<X:X    X X O b l j c w l l y k b .   . ;. .w.                                            ",
"                . X #.: O     #X3X3X<X>X3X>X<X3X,X<X>X3X<X,Xo     O   . 7 b v v z C j z v c w X O   9.;.7.X .                                         ",
"                  O O . X . ^ +X>X<X3X3X,X3X4X3X<X3X3X3X<X3X    .     q e k x v c r z c x z l X X + r...q.    O                                       ",
"                . . X     . @X+X3X3X,X<X3X<X<   #X,X3X>X<X3X3X1 X .   . 8 N z r z v r A b C &     O 1.0.%.                                            ",
"                  X   X   XX.X#X;X>X<X2X|.~     $X4X3X3X3X3X:X3X4XO     O l z v l c v y g d X     #.a.u.w . . O                                       ",
"                X     $ X #X+X|.@X|.$X$X#X    X oX3X3X<X,X<X3X3X>XoXX     w x z b w z b l .   O > ..} &.X                                             ",
"                          |.#X$X$XoX#X|.  .   oX#X*X4X3X<X<X3X>X&X$XX   O z j z j V l l . X O + &.7.y.O   X                                           ",
"                .     X   O oX X$X@X|.#     . oXoX$XoX<X<X3X-X#XOX.     + 9 b x l k + X       #.%.2.v +   O O                                         ",
"                                      .       oXoX$XoX$XoXoX#XoX X  X O     X   O   . X X   +.%.4.&.+ X .   O                                         ",
"                                  X     X     #X$X#X|.oXoXoXoX$X    +   . X . .     .   = } 2.%.h.% +                                                 ",
"                                  .           oXOX|.#X#X#X$X|.#   # + ] - = X   X O | y.8.%.9.w..   .   o                                             ",
"                                          O   a @X#XoXoX|.#       O O Q y.f.} e.;.{ ;.t.Q y.+   X     O     X                                         ",
"                                                    X           X $ +.&.0. .3.....u...>.  .   O #       O     .                                       ",
"                                  O       X . .   .       O     * } i.,.t.8.7.8.;.: X X . O       O O   O X X                                         ",
"                                                            o   #     O . .       X   . X       +                                                     ",
"                                      X   .       X   .   O     X . X . X . O   $ X . O .   X         X     .                                         ",
"                                                                                                                                                      ",
"                                                                                                                                                      ",
"                                                                                                                                                      ",
"                                                                                                                                                      ",
"                                                                                                                                                      ",
"                                                                                                                                                      ",
"                                                                                                                                                      ",
"                                                                                                                                                      ",
"                                                                                                                                                      ",
"                                                                                                                                                      ",
"                                                                                                                                                      "
};
