/* XPM */
static char *ef690c69e2df4b7ab410c6b6908c4fa0TK9o9CdllConlRAB[] = {
/* columns rows colors chars-per-pixel */
"75 91 182 2 ",
"   c #000000",
".  c #0A0102",
"X  c #010A02",
"o  c #090C06",
"O  c #03020A",
"+  c #0A020B",
"@  c #01090A",
"#  c #0C090B",
"$  c #110104",
"%  c #13000B",
"&  c #001002",
"*  c #030113",
"=  c #090012",
"-  c #020A11",
";  c #01021A",
":  c #1A0C1D",
">  c #0D1517",
",  c #001E1C",
"<  c #0B1F28",
"1  c #04132A",
"2  c #131E20",
"3  c #052B36",
"4  c #0F3238",
"5  c #134B4C",
"6  c #1A4B5C",
"7  c #146465",
"8  c #3A6764",
"9  c #3F6968",
"0  c #3B636B",
"q  c #3E6371",
"w  c #46635F",
"e  c #445E65",
"r  c #495C64",
"t  c #475F69",
"y  c #4E5C6B",
"u  c #535E70",
"i  c #4D6066",
"p  c #45636C",
"a  c #4B646C",
"s  c #556467",
"d  c #51646B",
"f  c #586669",
"g  c #51696E",
"h  c #446572",
"j  c #4B6673",
"k  c #476B74",
"l  c #4C6A73",
"z  c #41677A",
"x  c #4F657A",
"c  c #516773",
"v  c #5B6076",
"b  c #526A71",
"n  c #0D6C8A",
"m  c #0D8F9C",
"M  c #109699",
"N  c #19939E",
"B  c #09A09B",
"V  c #00B69C",
"C  c #148DA2",
"Z  c #029EB4",
"A  c #039DBA",
"S  c #099DB9",
"D  c #139AB0",
"F  c #01ABAF",
"G  c #00BBAD",
"H  c #0CBAA3",
"J  c #01A6B5",
"K  c #02ACB4",
"L  c #0DA9B6",
"P  c #02A5BD",
"I  c #0AA4BD",
"U  c #00AABD",
"Y  c #0BAABD",
"T  c #00B3B5",
"R  c #00B0BB",
"E  c #00BCBC",
"W  c #0CBAB9",
"Q  c #12BBB4",
"!  c #6C9DA4",
"~  c #09C6B0",
"^  c #08CEBD",
"/  c #00F5BC",
"(  c #039DC5",
")  c #099DC3",
"_  c #019CC8",
"`  c #149FC1",
"'  c #109DCA",
"]  c #02A6C3",
"[  c #0AA4C3",
"{  c #01AAC3",
"}  c #0AABC3",
"|  c #02A5CB",
" . c #09A4CC",
".. c #02AACB",
"X. c #0AABC9",
"o. c #11A1C5",
"O. c #11A2CB",
"+. c #02B2C3",
"@. c #08B4C0",
"#. c #00B4CB",
"$. c #01A5D2",
"%. c #0AA6D3",
"&. c #00ADD0",
"*. c #0AACD2",
"=. c #10A2D3",
"-. c #00FFC4",
";. c #03F6CF",
":. c #01FECD",
">. c #0BECDE",
",. c #03ECD9",
"<. c #03F5D4",
"1. c #01FDD5",
"2. c #0FFFD6",
"3. c #00F5DB",
"4. c #0BF7DD",
"5. c #01FEDC",
"6. c #0AFDDC",
"7. c #11F4D8",
"8. c #11FFD9",
"9. c #05ECE2",
"0. c #02F3E5",
"q. c #08F7E4",
"w. c #04FFE0",
"e. c #05FDE2",
"r. c #00FBE5",
"t. c #00FBE6",
"y. c #00FFE4",
"u. c #00FFE7",
"i. c #02FEE5",
"p. c #05FFE5",
"a. c #01FEE2",
"s. c #09FBE3",
"d. c #09FEE2",
"f. c #0DFFE3",
"g. c #08FFE4",
"h. c #09FEE3",
"j. c #06FEEB",
"k. c #03FEEA",
"l. c #0AFFEF",
"z. c #0AFEEA",
"x. c #11FDE2",
"c. c #19F7EC",
"v. c #00FFF4",
"b. c #08FEF1",
"n. c #A2BED3",
"m. c #98C4C3",
"M. c #90C0CC",
"N. c #9BC5CC",
"B. c #8EC3D3",
"V. c #8DC0D5",
"C. c #8FCAD8",
"Z. c #94C4D5",
"A. c #9AC4D4",
"S. c #92CBD5",
"D. c #9AC8D5",
"F. c #95C5DB",
"G. c #9BC5DB",
"H. c #95CADC",
"J. c #99C9DB",
"K. c #9ACADC",
"L. c #A0C6CF",
"P. c #A1C2D2",
"I. c #A5C9D7",
"U. c #A5C5D9",
"Y. c #A2CCDE",
"T. c #8EC6E1",
"R. c #9AC6E0",
"E. c #95CBE1",
"W. c #9DCAE2",
"Q. c #99CBE2",
"!. c #93D1E1",
"~. c #A1C4E4",
"^. c #C2D8E6",
"/. c #D0EAE7",
"(. c #EEFFFF",
"). c #F5FBF7",
"_. c #FDFBF4",
"`. c #FBF6FA",
"'. c #F2FFFE",
"]. c #F5FDFD",
"[. c #FFF9FF",
"{. c #FCFDFD",
/* pixels */
"                                                                                                                                                      ",
"                                                                                                                                                      ",
"                                                                                                                                                      ",
"                                                                                                                                                      ",
"                                                                                                                                                      ",
"                                                                                                                                                      ",
"                                                                                                                                                      ",
"                                                                                                                                                      ",
"                                                                                                                                                      ",
"                                                                                                                                                      ",
"                                                                                                                                                      ",
"                                                                                                                                                      ",
"                                                                                                                                                      ",
"                                                                                                                                                      ",
"                                                                          O                                                                           ",
"                                                            X           o               o O                                                           ",
"                                                . +   O O +   O X   5.b.6.5.u.1.1.5.5.:.=         . @   O   X .                                       ",
"                                                  X $ @ O     5.k.1.:.1.5.y.e.:.z.5.6.5.5.2.1.* @     +     .                                         ",
"                                                    .     . e.y.e.5.w.w.5.6.w.u.5.w.e.r.w.d.<.5.  $ X     .   X                                       ",
"                                                O X X o X 5.t.5.1.1.4.5.5.w.<.e.5.5.y.5.5.5.y.y.w.1.= X   o   O                                       ",
"                                                . O   . ,.e.t.2.w.5.e.5.1.5.5.e.5.6.1.5.5.f.1.2.j.;.:.# .   . O                                       ",
"                                                $ X ; O v.5.1.5.5.5.3.j.q.w.w.1.e.w.3.5.d.5.w.5.5.y.4.H @ . X                                         ",
"                                                  .   @.:.5.1.w.5.:.6.5.w.5.1.@   + - O   . X +     O - @     .                                       ",
"                                                X . * 1.5.6.5.r.j.5.5.6.X . O .       .   X     O X     . + O X                                       ",
"                                                  O O j.5.6.5.w.5.t.5.    O   .   X X   +     $ O .     .       +   X O O                             ",
"                                                .   F 5.1.1.w.5.8.1.= @ X + X O ; P.Z.K.F.Q.H.B.D.S.K.W.S.A.@ X   X X     .   @                       ",
"                                                O   ..w.1.5.w.6.<.,     %     J.G.G.R.V.J.N./.'.{.[.`.'.'.U.H.F.O         . # O                       ",
"                                              O   + A k.6.5.k.1.5.$ X     # m.~.D.Y.K.Z.I.{.`._.].].{.{.{.`._._.N.O .   X                             ",
"                                            o     . E e.g.5.r.5.5.O . @   8 j R.S.F.F.Q.P.].{.{.).{._._.{.{.{.].!.n.*   X o                           ",
"                                                  . J 5.u.g.5.6.5.+   .   a x Z.E.S.G.F.P.(.{._.{.[.{.{.[.].{._.T.R.L.X   . O                         ",
"                                                . 6 [ 1.e.5.d.5.5.  . .   a x ! U.F.S.Q.F.Z.S.H.F.M.'.{.{.].{.^.R.E.D.O .     o                       ",
"                                                X { U z.:.5.5.w.4.X   @ . r j j F.E.F.G.R.G.G.G.H.Y.D.G.G.F.B.J.G.E.A.  . X O                         ",
"                                  .   X O   O X   U ] 6.y.1.r.5.5.  .   @ a y a k A.G.F.Q.F.F.K.F.K.F.G.G.W.F.R.G.P.g O                               ",
"                        o         O   O   X $     U ] 5.y.6.w.5.5.O X .   y a k p a h D.G.K.K.F.F.K.D.K.M.A.Y.A.z h r X o     O                       ",
"                                + 5.6.5.r./ O O O P ] 1.w.1.r.5.5.+     X l y 0 g r a p h A.D.D.D.Z.A.p k k p p q a d O     o                         ",
"                        O         5.5.5.z.+ . X O I [ w.3.5.w.4.5.1 @     w c a p b a p j p j q h j j h e a p c l a d O                               ",
"                                6.k.y.1.w.  . * X +.P m 5.<.5.w.1.5.      X u p p p j p g p a a a d a g t c c a a r 2   O   X                         ",
"                              o 5.f.5.:.5.    O   ] U L 5.w.w.6.6.w.= O     O f j l p j p a a i a t a p p a a a f O O   .                             ",
"                                y.;.4.5.k.  X .   [ { Y w.r.5.5.1.u.:.    X     y r i l a l g a j 0 a a a i s O   O       o                           ",
"                                { 6.5.5.w.  +   X [ { U w.t.5.5.w.5.5.O . O X + X O s a p p j a p j a i O       X     .                               ",
"                O   O . X X . n ] U { ] {     O   U ] { 5.1.w.5.5.e.5.1.O X       o       . O   X   +   o   O +   O . o O                             ",
"                    O       . D ] U { P {       + J { ] 6.5.w.w.5.4.5.x.1.=   $     O $ X X   X     O @         + $ X O .     .                       ",
"                    X O     O { ] U { P {     O O +.{ ] W w.5.5.w.w.5.1.w.5.7 O O X       . +   + O X   O 4 1.w.-.  . @       O                       ",
"                .       . . X U { { { ] {     O   { { P L 5.5.5.k.5.1.1.5.r.1.1./ 5 + @ . . @   + -.1.w.w.6.1.:.5.+     o   . O                       ",
"                  .         O { ] U { P {     O X P ] { { k.5.5.f.5.1.6.1.s.z.w.d.d.5.1.w.5.3.y.1.g.w.5.5.w.y.j.0.O       + X O                       ",
"                  O     X O   [ ] { { P {         ..] { P 0.5.6.;.5.y.y.4.5.1.5.j.q.w.5.<.5.w.5.5.<.5.4.6.5.t.t.{ o   +                               ",
"                  o       O   P ] U { ] {     O . U { ] { +.5.g.1.5.e.5.w.5.7.5.5.1.5.d.5.w.w.5.w.y.w.5.5.;.6.1...X       O                           ",
"                      O     X U { U } P {     O   { I { ] { 5.w.y.y.5.6.1.1.w.w.5.6.1.5.w.5.5.6.1.6.w.r.w.w.5.6.'   X   $ o .                         ",
"                        O     } ] U { P {     O O P { } { P u.1.w.w.1.5.5.5.5.5.5.5.5.5.5.5.w.5.5.y.6.5.5.y.5.1.]       O                             ",
"                      O       { { U { ] {       X ] ] ] U ..9.5.w.4.w.5.5.w.5.5.5.w.5.5.w.5.5.5.1.w.5.5.w.5.y.^ {                                     ",
"                              { ] U } P {     +   { } ] { ..T 5.5.5.1.5.t.y.1.6.w.5.5.w.5.5.w.5.5.5.5.w.1.5.1.J {                                     ",
"                    X   O     { ] { { P {       . { ] ] U { J u.1.5.w.5.5.w.5.6.5.5.5.5.w.5.5.5.5.5.5.w.1.6.w.} ]     O   X   .                       ",
"                              { { { { ] {     O   ] ] { { ] L 9.e.<.5.d.5.t.5.5.w.5.5.w.5.5.5.5.5.5.5.5.f.1.9...{       O X                           ",
"                        O     { ] U { P {         [ { { P ] U +.0.e.1.5.g.5.w.5.5.5.5.5.w.5.5.w.5.4.5.w.5.w.@.] }                                     ",
"                  .   O O     { ] U { ] {     O X { ] P U [ { { T c.w.5.5.<.g.5.5.w.5.w.5.5.5.5.5.5.5.6.w.0.S } {     O   X O                         ",
"                              { ] U { P {   X     { ] } R } U [ I T 3.5.1.w.5.5.5.5.5.5.w.5.5.5.5.w.5.1.e.{ ] P {       O                             ",
"                . X +     X O | X.U | J | =   O   { { P { ] { ] I | P Q 5.y.t.1.5.5.5.5.5.5.5.5.6.5.1.~ ] X.U { | . X     O                           ",
"                  X     +     U J ] U } ] X @     ] { { U ] { { U { ..+.U U C 5.5.5.5.w.w.5.w.5.y.} ....{ U I | U   O O X + X                         ",
"                    .       o M +.] ..+.U .   .   { { P U  .{ { U U P P { U Y I ] ] ] ] ] ] ] P P } P P { J +.U N o     X .                           ",
"                + X   X = X . * P ..] [ U : O .   ] { ] U ] U ] ..] { #.) ] *.| { ] { { { { { { X.{ X.o.P +.{ [ ;   o =     X +                       ",
"                .   .   .   . . ..Y  .P | T O @ X ] { U U  .] { ] ..] ] P { U U U P U U U P U ] J J { { ..U J Y $ .   O   .                           ",
"                  O X   +     X   U { | P > +     ] { ] U  .{ { U ] P U +.[ { } { ] { ] { { { } &...{ J ] ] X.P X     O   .                           ",
"                  +     o     @ O = X X X . o     ] { P U ] { { | ] +.] ] U { ] ] | ] { ] | { ] { Z { ..[ X.( ..X     o     + X                       ",
"                      O     + . X   $     O   O   ] { U { ] { { } K J | Y * X   X             O   X * L { { K   . . X   .                             ",
"                                              O + P  .U O.| U { P { { { o         $     O . * X   * J T [ { I X                                       ",
"                                              o   E ] { ] ] { U ] { { { O       + X     o     * U ` | { [ ] {                                         ",
"                                                O B { { +.} P { { ] { ]       X X X   O   . X J | *.( U U } ] % O                                     ",
"                                                  3 ] { P ] ] U { ] U U O   O     O + $ X   < X.T J X.U J { U O o                                     ",
"                                                  + P P { } ] { { ] { { O       X X . X X O P $.U P ..} ..] } X                                       ",
"                                                .   { Y P { { P { P U { O   o   .   o       P { | X.| P U P P X                                       ",
"                                                  & ] P { { U } { ] { {         X   .   . O G ] U U P J { X.]                                         ",
"                                                  . ..Y | { P { ] U { P O         O   . O . O I ] } ..{ { ] }                                         ",
"                                                X   } $.U  .] { } { U I @ +       O     X $ * V { ` { O.{ F ;                                         ",
"                                                X . S I +.J { ] | K %. .  X O X     O .     + ;   X X .   @ . X                                       ",
"                                                  * O K T %.} U K %.) O X . *     .   o . X   . $   X X X . -                                         ",
"                                                .   O O ] U  .J ] . X X     = X X         . X & O O       +                                           ",
"                                                  * X . O $ X O X   X   .   X .     +     +     X .   O + O X                                         ",
"                                                  + X     X       O   +   = .   .   . o     O +     X O .   O .                                       ",
"                                                  . X X O   +   + . X . X     O   o     O .     + +         @                                         ",
"                                                . X . + O   . X X       *   X   O   .   X         X       X   .                                       ",
"                                                                                                                                                      ",
"                                                                                                                                                      ",
"                                                                                                                                                      ",
"                                                                                                                                                      ",
"                                                                                                                                                      ",
"                                                                                                                                                      ",
"                                                                                                                                                      ",
"                                                                                                                                                      ",
"                                                                                                                                                      ",
"                                                                                                                                                      ",
"                                                                                                                                                      "
};
