/* XPM */
static char *_24e00924b30400594b2bd4d4a083ae4oYNzzHZO5JOaMP3P[] = {
/* columns rows colors chars-per-pixel */
"75 75 197 2 ",
"   c #1B2C34",
".  c #2B2B2E",
"X  c #2C272D",
"o  c #32292E",
"O  c #3B2B2D",
"+  c #24352F",
"@  c #202636",
"#  c #2E2636",
"$  c #242C35",
"%  c #2C2B35",
"&  c #2D263B",
"*  c #242B3B",
"=  c #2D2C3A",
"-  c #322634",
";  c #332A35",
":  c #382835",
">  c #33263B",
",  c #3A2439",
"<  c #312B3B",
"1  c #3B2D3C",
"2  c #263132",
"3  c #2A3134",
"4  c #23323B",
"5  c #2B323B",
"6  c #33313A",
"7  c #38303D",
"8  c #192847",
"9  c #252D42",
"0  c #2C2C41",
"q  c #272E48",
"w  c #342642",
"e  c #322C41",
"r  c #3C254A",
"t  c #3C2C46",
"y  c #2D3142",
"u  c #333142",
"i  c #3A3142",
"p  c #453955",
"a  c #47375C",
"s  c #48375B",
"d  c #473859",
"f  c #48395A",
"g  c #513A64",
"h  c #5A376D",
"j  c #553C6D",
"k  c #583A6E",
"l  c #4E3F76",
"z  c #5D3671",
"x  c #563E74",
"c  c #5B3E74",
"v  c #543D7D",
"b  c #5D3E7A",
"n  c #623F6D",
"m  c #613E74",
"M  c #613E7C",
"N  c #4F4369",
"B  c #54446D",
"V  c #5C436E",
"C  c #54486E",
"Z  c #5A496B",
"A  c #4E447E",
"S  c #564473",
"D  c #5B4377",
"F  c #554973",
"G  c #5B4974",
"H  c #56447A",
"J  c #5C427A",
"K  c #5B497A",
"L  c #604067",
"P  c #63426E",
"I  c #6A426B",
"U  c #624374",
"Y  c #61427D",
"T  c #6F4472",
"R  c #583F81",
"E  c #643D81",
"W  c #693E83",
"Q  c #6C3E8B",
"!  c #544382",
"~  c #5B4381",
"^  c #644182",
"/  c #694385",
"(  c #6E448B",
")  c #6D488B",
"_  c #71448D",
"`  c #78448E",
"'  c #71498E",
"]  c #6E4695",
"[  c #734592",
"{  c #794594",
"}  c #764892",
"|  c #7B4996",
" . c #7D469C",
".. c #7D499C",
"X. c #74449A",
"o. c #7E45A3",
"O. c #7E49A4",
"+. c #7D43AA",
"@. c #7D48AC",
"#. c #7D48B2",
"$. c #883B8B",
"%. c #803F9B",
"&. c #8C3F9E",
"*. c #843EA3",
"=. c #843EAA",
"-. c #8C3EAA",
";. c #893EA5",
":. c #8B4394",
">. c #844A95",
",. c #8B4B95",
"<. c #84459D",
"1. c #8A449C",
"2. c #82499D",
"3. c #8B499B",
"4. c #914394",
"5. c #90489C",
"6. c #A75A8E",
"7. c #AA5B8B",
"8. c #A55B90",
"9. c #A85B92",
"0. c #AD579D",
"q. c #A05F99",
"w. c #AC599C",
"e. c #B45B96",
"r. c #B1579C",
"t. c #B35C9D",
"y. c #BA5D9D",
"u. c #BE609E",
"i. c #8445A3",
"p. c #8944A4",
"a. c #8349A3",
"s. c #8B49A3",
"d. c #8444AA",
"f. c #8A44A9",
"g. c #8449A9",
"h. c #8A48AC",
"j. c #9249A3",
"k. c #AC56A4",
"l. c #AB5AA1",
"z. c #B35DA3",
"x. c #BB5CA2",
"c. c #B55FA8",
"v. c #BA60A6",
"b. c #DE678D",
"n. c #D7698E",
"m. c #DF6989",
"M. c #CE6897",
"N. c #C46994",
"B. c #D76796",
"V. c #DA6695",
"C. c #D56B95",
"Z. c #DC6B95",
"A. c #D3679E",
"S. c #DC669A",
"D. c #D56B9B",
"F. c #DF6B9C",
"G. c #DD6B9E",
"H. c #DE6A9D",
"J. c #DA6C9D",
"K. c #DB6D9C",
"L. c #D96E9C",
"P. c #DA6E9E",
"I. c #DD6D9D",
"U. c #DB6B9B",
"Y. c #DD7096",
"T. c #DC7194",
"R. c #D7729E",
"E. c #DB729E",
"W. c #DC709C",
"Q. c #E5668F",
"!. c #E0698F",
"~. c #E36694",
"^. c #E26892",
"/. c #E26B94",
"(. c #E16799",
"). c #E06C99",
"_. c #E26B9B",
"`. c #E17093",
"'. c #E1709E",
"]. c #CF6AA4",
"[. c #CA6AAB",
"{. c #D166A5",
"}. c #DA66A4",
"|. c #D76EA1",
" X c #D66FA7",
".X c #D46CA3",
"XX c #DD6EA2",
"oX c #DB6CA2",
"OX c #D36AAB",
"+X c #D16FAA",
"@X c #DA6DAA",
"#X c #D664A9",
"$X c #DB71A2",
"%X c #D971AC",
"&X c #E36DA2",
"*X c #E464A1",
"=X c #E070A2",
/* pixels */
"R.B.U.I.E.B.E.R.W.OXT.o...g.i.2.P.P.U.K.U.K.K.D.XXL.B.2.+.p.%.a.).XX_.XXP.^.s.*.i.i.O.i.i.i.i.i.% 5 = = = % K.U.K.U.K.D.R..X$XL.2.o.i.i.2.+.T.+XK.K.Z.",
"P.U.G.G.K.B.K.B.b.G.!.i.i.f.f.i.D.Z.Z.D.Z.K.P.P.U.U.U.1.g.f.1.a.D.L.B.E.P.Z.o.o.p.i.i.<.i.i.i.i.< = ; = = = U.U.K.Z./.).Z.U.).V.<.g.f.i.1.;.T.oXG.G.G.",
"D.G.G.S.U.I.Z.(.K.G.K.i.a.p.<.a.K.I.G.G.G.G._.(.B.P.K.<.g.i.i.O.Z.K.Z.U.B.K.i.g.i.i.i.i.i.i.i.i.= = = = = = G.U.XXD.B.K.I.U.K.K.a.d.i.i.g.g.Z.Z.Z.D.C.",
"G.G.G.U.U.I.S.^.D.D.K.i.o.<.>.o.K.Z.B.G.D.B.U.U./.G.U.<.i.i.g.i.Z.W.B.Z.C.P. .i.a.i.i.i.i.a.a.i.% = > = = = D.U.+XG.B.I.L.P.V.U.i.i.2.O.i.i.D.Z.K.U.U.",
"B.U.K./.K..X.XG.K.L.G.3.g.p.p.d.Z.Z.U.I.K.T.Z.Z._.XX}.3.s.1.p.1.G._.XX$XXX|.<.p.i.i.<.i.1.i.i.i.< = = = = = P.U.K.Q.^.S..X_.U.&Xi.i.<.<.i.s.}.I.K._.).",
"B.L.B.!.P.v.c.u.y.y.x.` { { { X.y.x.x.x.x.w.7.7.7.q.8.} ` ( [ _ 9.7.9.7.6.7.{ { { | { { { { { { = 5 < = = = U.U.U.^.U.y.c.y.y.v.{ } ` ` _ } x.x.u.y.z.",
"_.XXD.b.A.:.i.:.1.a.s.v D J b D <.i.i.<.| ( Y S V J U v D J H J D I H V V P H H D J J J J J K J < = ; = ; = U.U.|.U..X1.g.<.&.<.~ J m K c J 3.1.i.i.i.",
"S.|.D./.%X1.#.i.i.i.i.H G D Y B i.i.i.1.<.( J D D H m D V J S Y J V ! J D D ~ c S S D D S D S S = = = = = = U.U.K.(.{.<.@.i.3.+.S J D U D S i.g.i.i.i.",
"_._.~.U.U.*.1.@.2.i.s.S D H M J i.i.i.<.| / D B D J D D D D D J D D D D J D D D D D D D D J G D < O * < < % &XV.Q.G.I.p.p.i.i.i.V M F S S B i.i.i.i.g.",
".XD.P.$XL.<.<. .i.d.i.b V S J D i.i.f.i.<.Q b J D D D D D D D D D J D D D D D D D J D D D D J D 0 ; 9 = ; X P.U.U.].D.<.<.o.2.2.S Y F J Y M i.i.a.a.a.",
"Z.T.Z.L.{.p.1.i.s.g.*./ ^ D c S 2.<.<.2.| ( E Y D D J D D J D D D D D D D D S J D D D D D D D D * = 0 = 1 6 [.+X_..XD.3.1.p.=.=.D b b E W W <.2.f.i.i.",
"*.i.p.1.3.R J J S b W [ 2.2.i.2.Y Y M Y ~ c x S D D S J D G D D D D D J D D J D D D D J D D J D 6 : < = &   :.:.<.<.1.v J D D D a.g.a.a. .) ^ D D D S ",
"g.g.i.<.2.H b D Z D ^ ..g.f.i.i.S S S S D S S G D D D D D D D D D D D D D D D D D D D D D D D D ; - ; = u 0 i.i.s.a.1.H K D V x i.i.=.i.i.| Y S D D D ",
"i.d.=.i.i.J b K S S J  .g.p.i.;.D D D J K J D D J D D D D D D J D J D D D J D D D J D J J D D D 0 9 = # = = s.i.=.o.i.D K J J D <...i.i.i.i.Y b D D D ",
"1.<.<.<.p.Z c K Y m J <.i.<.O.O.c D Y D Y b J b D D D J J D D D D D D D D D D D D D D S D D D J = * = = = X i.i.i.2.=.J D J D D i...i.i.i.i.Y J J J D ",
"i.g.i.i.d.V b J J D H <.d.f.a.s.D J D B D S K J D D D D D D D D D D D J D D D J D D D J D D D D : = = 5 = = g.o.<.2.f.V D D D D -.i.d.i.i.i.S B D D D ",
"}.K.C.U.K.;.,.i.i.i.<.b D D J D D D D D D J D D D D D D D D J D D D D J D D D J J S m 2.i.a...o.= ; = ; = y B.XXK.#XT.i.<.s.i.<.D D J D D D D D D D J ",
").Z.Z._.K.=.i.d.i.s.O.D B D U D D D D J D D D D D D J D D D D D D D D D D D D D D D M 2.;.g.i.i.= ; = = % & B.I.Z.U.Z.i.i.f.f.i.D D D D D D D J D D S ",
"U.D.D.K.K.i.2.o.i.d.i.b S J D D J D D D D D D D D D D D D J D D D D D D D J D D U D M i.f.i.i.;.= % = < = = Z.V.Z..XT.i.O.i.<.O.D D D D J D D D D D J ",
"_.}.XXZ.B.i.<.i.i.i.<.M S D Y S D D D D D D J D J D D D J S D D D D D D D D D D D S D 2.p.f.i.i.= = 0 < = ; I.G.I.oXG.i.i.<.3. .D J D D D D D D D D D ",
"/.U.oXU.oXp.;.f.2.a...M D D D S D D D D D J D D D D D D D D J S D D D D D D D D b D J | i.<...i.6 = = = = : |.|.U.K.G.1.i.1.p.=.D D J D G J D D D J D ",
"e.t.t.t.t._ [ [ ) [ _ D F J D D D D D D D D D D D D J D D D D J D D J D D D J D M D D ) [ ( _ [ = = = < = < r.z.t.t.t._ ] _ [ X.D D D D J D D D D D D ",
"1.2.<.1.3.H D H D m Y D F D b J D D D J D D D D D D D D D J D D D D D D J D J J Y D S Y M Y K b = 9 ; e * & ,.1.>.i.1.A H D J S D D D D D D D D D D J ",
"d.a.o.;.f.S b D S b Y S S K D D D D D D D D J D J D D D D D D D D D D D D D D K D S S D b D G D ; = ; < * 0 <.g.i.i.f.J K D m V J S J D D D J D D D D ",
"i.1.+.O.d.S H H D D J J D D J D D D J D J D D D D D D D J G D D D D D D D D J D M J D Y m D D D 0   1 w % e *.i.1.i.p.V m P H D J D D D D J D D D D D ",
"i.1.g. .&.P U m D D D J D D D D D D D D D D D D D J D D D D J D D D D J D D D D K C B D D D G D 7 % ; & $ 0 g.g.O.o.@.A Y D H D S J D D D D D D D D D ",
"+.i.g.<.s.B H H D D D D D D D D D D D D D D J D D D D J D D J D D D D D D D D D S B N Y E c Y m ; % ; u 5 & 4.$.p.p.s.S J B D P D D D D D D D D D J D ",
"$XB.P.A.{.I J J D J D D D J D D D D D D D D D D D D D D D D D D J D D D D J D D Y D Y ..a.....a.= y * & $ 1 |.%XC..X[.U D J H c D D D J D D J D D D D ",
"G.S.U._.oXV H H D D D D D D D D D D D D D D D D D J D D D D D D D D D D D D J D M c M i.f.i.i.f.$ y 0 6 % - B.U.~./.G.n D D G D D D D D D J D D D D D ",
"Z.K.`.S.G.Y J b D D D J D D D J D J D D D J D D D D D D D J D D D D D J D D D D K S D a.d.i.i.i.; ; & ; 0 0 W.XXT.(.D.U J J J J D J D D D D D D D D J ",
"D.@XB.G.C.D S U J D D D J D D D D D D D D D D D D D D J D D D D J D D D D D D D D G J ..i.i.<.a.% ; = ; y 0 C.}.|.oXD.D J J V J D D D D D D D D D D D ",
"Z.XXn._.D.J S U D D D D D D D D D D D J D D D J D D J S D D D J D D D D D J D D c D m a.-.s.a.i.* e = ; = & m._.U._.Z.D S Y c D D D D J D D J D D D D ",
"i. .i.*.i.M S D J D b a.i.g.O.o.b D V D J [  .i.i.i.i.i.i.i.a.i.O.a.i.g.i.g.+.i.o.a.<.= % e 0 5 % 0 < = = 3 i.<.i.*.a.D G S D D J J J J D D J D J J J ",
"i.i.f.;.a.m D c D D b i.-.i.i.i.H D D D E [ a.f.g.i.g.i.d.i.g.i.i.i.i.s.i.i.i.i.i.h.<.< = < & = = = < & = % i.s.d.i.a.b S D Y D D D V D D D D D V D D ",
"i.i.g.i...D S S S B D 2.i.i.<.i.D D S D Y ` i.p.i.i.a.2.i.i.i.<.i.i.a.a.i.i.i.i.-.i.s.= % = e 5 = = ; = = = f.f.p.p.<.m D J D J D J D D D c D J c J V ",
"i.i.i.i.a.D S J Y S D 2.s.i.i.f.c D D J ~ [ i.f.i.i.p.i.a.i.p.i.i.s.i.i.i.s.i.i.h.a.i.& % = & < & % = = & & s.i.i.f.i.M D D U D J J D J J D Y D J J D ",
"s.i.<.f.>.M c M M J J  .i.i.i.i.J H H H J ]  .i.i.i.i.i.i.i.i.i.i.i.i.i.i.<.i.i.a.} ..e = = = & u % = % = 0 ..| O.a...E D J J S D D D D D D D D J J D ",
"h j h h k p p d a p p k z j j h d d p d d g k k k k k k h j h j h j h h k k k k z g z 5 < = 6 & < % u = = = h k j z h d p d d d p d p p p p p p p p d ",
"% = % > < 2 2 = 5 2 2 = > = = = ; = = % = = < # = % = = = = = = % = = = % = = % w = r = e = 5 < & . e = & 4 r e % > e % . < # % < = < = = = < < ; = < ",
"= 5 = w e 5 < w w ; % > > = 6 & 0 & = < & = = = < < < - - < < < > = < = > < < < 5 2 > 5 < $ = 0 e % e % = 5 - 3 3 & 0 5 5 0 & e = & & < = & = = = & = ",
"= = = = = = = = ; = : % : 3 9 = = = = = = = = = = % 4 5 = $ 5 < % 1 = & e = = = : = ; % - ; 9 = = = = = = = = = q 1 % 0 e > 6 # = O * < = = y = = = = ",
"= = < = < = < < = 9 0 9 e < 0 < = < < = < < < = 7 , > 1 > < = = 4 = = = = y - > = 9 0 9 e = 0 e < = < ; < < = ; = - . 5 y % 2 $ 9 ; 9 < = - = > 6 < = ",
"= = = ; = = = = : = 1 * & % ; ; = = = ; = ; % = $ > i   = 1 * = = > < u =   u 5 : = 1 * & % ; : = = = = = = = = 3 o 6   0 & < t * ; = < < ; 8 y = = % ",
"I.P.U.K.Z.K.K.K.B..X.X3.s.i.g.;.W.K.K.K.P.K.K.K.$XG.N.> = # < < < 1 $ @ < 1 M.S.Z..X.Xs.s.i.g.o.U.U.K.K.K.U.K.U.}.S.D.T U U V c =X/.P.Z.U.A.1.1.i.i.g.",
"U.U.U.U.U.U.U.B.^.oXG.<.o.i.g.O.U.U.U.U.U.U.U.B.V._.$X= $ < < = $ < 5 = 1 & XXI.(.XXS.<.i.o.a.i.B.U.U.B.U.U.U.D.@XG.$Xk x J K H B.Z.(.B.&X$Xi.i.s.i.i.",
"U.U.U.U.U.U.U.K.Z.K.Z.i.O.+.i.d.U.U.U.U.U.U.U.K.D.I.G.< = = = = < > < < # = V.(.Z.B.Z.p.i.+.i.d.K.K.K.K.U.U.U.U.B.C.XXV H J H J P..XK.Z.P.K.<.p.i.i.a.",
"U.U.U.S.U.U.U.U.G.}.V.f.a.s.$.s.U.U.U.S.U.U.U.U.P.K.B.1 > 6 = 6 4 $ = < # 6 W.R.G.}.Z.p.a.i.:.s.U.U.U.U.U.U.U.U.K.Z.&XS K D S c K.G.U.K.B.(.i.s.a.i.i.",
"U.U.U.U.U.U.U.U.D.=Xb.i.o.f.<.i.U.U.U.U.U.U.U.U._.D.U.= < $ 5 , < 1 & = = @ _._.D.E./.<. .h.<.d.U.U.U.U.U.U.U.U.U.U.*XS b D D Y /.B.Z.E.D.Z.+.i.i.<.i.",
"B.$XD.Z.D.U H U D D D D D D J D D D J D D D D D H D K < % = < = .XZ.U.U.oXW.=.>.a.f.<.M S ^ c D 1. .i.i.i.2.J D D D J J J D D D D D D J D D D D D J D ",
"Z.&XK.U.G.U H J D D D J D D D D D D D D D D D J S D J < 4 = < = oX).K.Z.U.Z.d.2.i.f.2.Y S J b V i.<.p.i.i.2.J D D D D D D D D J D D D D D D D D J S D ",
"S.G.D.U..Xc H ~ D D D D D D D D D D D D J D D D D J J = = = < = G.B.D.U.D.C.d.d.i.g...b F K J S i. .f.f.i.i.b V D D D D J D D D D J D D D J G D J D D ",
"U.U.Z._.XXD H J D D D D D J D D D J D D D D D D S U D = = = < = Z.U.P.K.Y.K.i.d.f.i.| b S S K S p.i.f.f.d.<.J V D D D D D D D D D D D D D D J D D D D ",
"P.U.Z.U.A.n V V D D D D D D J D D D J D D D D D H J J = = = < & _._.G.U.Z.n.,.1.g.i.[ ^ m b J b 2.| <.<.o.{ Y S D D J D D D D D D D D J D D D D D D D ",
"l.0.0.0.k.P G J D D D J D D D D D D D D D D D J S U J ; $ = < = r.r.l.0.w.r._ ( Q _ ) [ _ ( [ ] ( ) _ ] ( _ J D D D D D D D D J D D D D D D J D D D D ",
"o.i.<.d.s.! H ! J D D D D D D D D D D D J D D D D U b = = = < = i.<.i.i.i.p.! J Y D J 2.<.2.2.i.b J b J Y E D D D J D D J D D D D J D D D D D D D D D ",
"g.s.<.i.*.b U n D D D D D J D D D J D D D D D D H D J = $ = < = i.i.a.i.f.1.S V D S b a.;.i.a.d.b K V F S J H J D D D D D D D D D D D D J D D J D J D ",
"i.<.+.O.g.D J ! D D D D D D J D D c D D S G D S S S b 2 % = = < i.d.i.d.s.;.D D J D v p.d.p...a.D D J D D D J D D D S J D D D D J S J k K D S D D D D ",
"i.3.i. .&.D U m J D D J D D D D D c D D D D J c D J E % 5 < & = >.<.| +.i.i.S D U D D 2.d.s.i.i.D J S D D D D D D D J D D D D J J D U D J D c m D D D ",
"+.i.g.<.3.x H H S D D D D D D D D D D J c Y E W M / Q = % < & = d.d.i.i.3.:.H S c V D }  .i.g.d.D D D D D D D D D D D D J D D D c D K J J J Y M D D D ",
"$XB.P.A.{.I m J J D D D D J D D D D D D D ( |  ...|  .< < = = = S.S.Z.S.U.#Xj.f.h.s...( b D S S J D D D D J D D J D D D D D D D D D J S D J } 2.g.a.i.",
"_.S.U._.L.D S H D D J S D D J D D V D J Y [ 2.g.h.O.i.e < = = = XXE.Z.K.Z.D.i.i.i.i. .Y c D K Y D D D D D D D D D D J D D D D D D J D S J M ..s.i.a.i.",
"B.'./.S.L.Y H J D D D J D D D D J D S D Y _ i.;.i.i.i.< % = = = C.Z.C..XY.D.i.o.d.f.i.J S V D S D D J D D D D J D D D D D D D J D J D S S m 2.f.p.p.p.",
"A.@XC.U.D.D S P D J D D D D D D Y D D D Y [  .i.f.O.i.0 6 = e = K.).G.}.K.Z.=.<.| a.2.J U J E J D D D D D J D D D D D D J D D D D D D D D m 2.i.a.i.O.",
"Z.XXn._.L.J S U D D D D D J D D D D S D D _ i.s.i.i.o.& % = = = S._.U.G.Z.Z.d.a.p.f.p.J S G S F J D D D D D D J S J D D D D D D D J J J J m 2.d.i.i.i.",
"(.&XD.K.oXm J n D J D D D D D D J J D J E } i.i.i.i.o.= > & = = Z.|.G.XXG.B.U J J D D D D D D J G D Y J D S D Y D D J D c J D D D Y V K Y Y 2.i.i.i.i.",
"Z.$XC.Z.P.D H D D D D D J D D D H D D D J [ a.i.p.g.<.= < = = = Z.XXZ._.U.U.U D D D D J D D D D S c Y D V D J U S D D D J J D D D Y S D D b <.i.i.i.i.",
"U.U.B.Z.}.m H J D D D D D D D J D D B S ^ _ 2.f.<.g.i.= < = 5 = Z.P.V.U.D.|.c H J D D D D J D D S D D D D D D D D D D D J J S D D Y C S D J i.g.i.p.i.",
"_.(.).).XXP S J D J D D D D D D D D S c J ( <.i.p.i.i.= < = % = ).I.U.).S.XXV J D D D D D D D D D J J Y D S D S D D D D D D c D D c B S D K i.i.i.i.i.",
"L.U.D.A.].L P S D D J D D D D D m c D b W [ <.i.i.i.i.= < & 5 = S.D.G.I.D.}.V U D D D J D D D J S D c J x c Y Y M D J D D V J J D E D J Y Y <.i.i.i.p.",
"l.0.0.k.l.D G J D D D D D D D D ` _ _ ( [  .<.i.i.a.i.= < & = < k.0.k.0.0.k.B J D D D D D D D D D J D J D D ) _ [ _ ) Y D D D D [ _ ' _ _ ( i.i.i.i.<.",
"O.p.=.g.s.v J ! D D D D J D D D 2.i.2.i.o.i.i.i.p.i.o.= < & 3 = i.i.d.i.o.s.A J D S J D D J D D D K D D K E ..i.i.2.| E D D D S 2.i.a.i.<...f.i.i.i.i.",
"O.1.i.g.<.D V m D J D D D D D D i.i.s.i.i.i.f.i.p.g.i.= < = = = p.2.g.p.i.&.D m D J D D D D D D c Y S D c E  .g.f.g.| M c D K S i.=.f.-.s. .i.i.i.i.p.",
"i.<.g.i.i.D c J J D J D D D D D i.i.i.i.i.i.i.i.<.i.o.= < = = = a.i.i.<.i.f.D c J D D D D J D D D D D D D S p.a.i.a.i.D D D J D i.i.i.i.p.i.i.i.i.p.i.",
"i.<.i.i.i.S c K D D D D J D D D i.i.p.i.<.i.i.i.i.f.i.= < = = = i.p.g.<.i.p.B J D D D D D J K D D D c D D S p.<.p.a.i.D D V J D i.i.i.i.<.i.i.i.i.i.i.",
"i.1.g.i.i.D J J D D D D D D D D <.i.i.i.p.i.i.i.<.h.<.= < = = = i.i.i.<.i.f.D J D D J D D D D D D J U J D D i.i.i.a.i.J D D J D p.i.i.i.i.i.i.i.i.i.<."
};
