/* XPM */
static char *_52ab4c08b804188fed69cd99c786772V1cR0ugvRzi3m6c7[] = {
/* columns rows colors chars-per-pixel */
"75 75 188 2 ",
"   c #000000",
".  c #0C070A",
"X  c #030C0B",
"o  c #0C090B",
"O  c #110A0E",
"+  c #04110E",
"@  c #150C11",
"#  c #051513",
"$  c #051915",
"%  c #061C19",
"&  c #1D181B",
"*  c #07211D",
"=  c #09221D",
"-  c #191B28",
";  c #2A1723",
":  c #341D2B",
">  c #092622",
",  c #0A2A25",
"<  c #0B2E29",
"1  c #0C332D",
"2  c #0D3B34",
"3  c #0F3F38",
"4  c #0D3731",
"5  c #3D2232",
"6  c #383838",
"7  c #323232",
"8  c #2B2B2B",
"9  c #48283B",
"0  c #0F433B",
"q  c #11483F",
"w  c #11453C",
"e  c #532E44",
"r  c #5B334B",
"t  c #4E2B40",
"y  c #683A56",
"u  c #61354F",
"i  c #114C43",
"p  c #125047",
"a  c #13544A",
"s  c #14594F",
"d  c #155D52",
"f  c #166155",
"g  c #17665A",
"h  c #186B5E",
"j  c #176A5D",
"k  c #1A7465",
"l  c #1B7A6B",
"z  c #1C7E70",
"x  c #186C60",
"c  c #484848",
"v  c #585858",
"b  c #764261",
"n  c #7A4464",
"m  c gray40",
"M  c #7D7D7D",
"N  c #85496D",
"B  c #81476A",
"V  c #8E4F75",
"C  c #94527A",
"Z  c #1D8373",
"A  c #1F8877",
"S  c #1F8B7A",
"D  c #1F917F",
"F  c #208C7C",
"G  c #20917F",
"H  c #9F5882",
"J  c #A65C88",
"K  c #A75D89",
"L  c #AD608E",
"P  c #BA6798",
"I  c #BA4EBE",
"U  c #BD54BD",
"Y  c #BE59BE",
"T  c #B452BF",
"R  c #C156BD",
"E  c #C259BD",
"W  c #C76EA4",
"Q  c #CC71A7",
"!  c #DE7EAD",
"~  c #D778AC",
"^  c #D777B1",
"/  c #DF7CB5",
"(  c #DB74BC",
")  c #DC7EB9",
"_  c #D77BBC",
"`  c #E17DB5",
"'  c #E07CB9",
"]  c #E177B9",
"[  c #BB4EC6",
"{  c #B64CCC",
"}  c #BC4ECC",
"|  c #B44FC7",
" . c #B754C3",
".. c #BD53C4",
"X. c #BE5AC4",
"o. c #B752CC",
"O. c #BE53CA",
"+. c #BF5ACA",
"@. c #B759CB",
"#. c #B64BD7",
"$. c #BC4ED1",
"%. c #BB4DDA",
"&. c #BD52D2",
"*. c #BA53D3",
"=. c #C14DCE",
"-. c #C24FC6",
";. c #C155C5",
":. c #C15AC4",
">. c #C154CC",
",. c #C35ACB",
"<. c #C254D3",
"1. c #C359D0",
"2. c #C24FD2",
"3. c #C761C8",
"4. c #DD7BC2",
"5. c #E17EC4",
"6. c #E27DC9",
"7. c #219482",
"8. c #229986",
"9. c #239D8A",
"0. c #24A28D",
"q. c #25A692",
"w. c #26AA95",
"e. c #27AE99",
"r. c #27B19B",
"t. c #28B49E",
"y. c #2AB89F",
"u. c #29B7A1",
"i. c #2ABBA3",
"p. c #2BBFA8",
"a. c #2CC2AB",
"s. c #2EC8AF",
"d. c #2DCBB2",
"f. c #2ED3B9",
"g. c #2FD0B6",
"h. c #30D6BC",
"j. c #33E5C8",
"k. c #37FBDC",
"l. c #39FFE2",
"z. c #3BFFEB",
"x. c #3DFFF3",
"c. c #3FFFFA",
"v. c #43FFFF",
"b. c #4BFFFF",
"n. c #838383",
"m. c #8E8E8E",
"M. c #959595",
"N. c #9B9B9B",
"B. c #A3A3A3",
"V. c #ACACAC",
"C. c #BABABA",
"Z. c #B1B1B1",
"A. c #EDAA9C",
"S. c #ECA699",
"D. c #F2AA9D",
"F. c #F2A897",
"G. c #DD82B4",
"H. c #DE81B9",
"J. c #DF88B5",
"K. c #E282AF",
"L. c #E281B5",
"P. c #E381BA",
"I. c #F29FB1",
"U. c #F09EAA",
"Y. c #ECA5A3",
"T. c #EFAAA5",
"R. c #EEAAA5",
"E. c #EEA9A8",
"W. c #EDAAAA",
"Q. c #EEA7AA",
"!. c #F2A5A3",
"~. c #F2A9A3",
"^. c #F2A9A6",
"/. c #F2A4AB",
"(. c #F3A9AB",
"). c #F9ABA9",
"_. c #F6B2A5",
"`. c #EDAAB2",
"'. c #F4A5B1",
"]. c #F2A9B4",
"[. c #F3A4BC",
"{. c #BEC0C6",
"}. c #C4C4C4",
"|. c gray80",
" X c gray86",
".X c #FDFDFD",
"XX c #F3F3F3",
"oX c gray92",
/* pixels */
"<.O...,.;.>.O.&.>.;.X.&.O.O.O.;.O...>.>...>.O.>...O.O.;.O.O.;.O.>...>...>.O...>.O.O...;.O.O.O...>.>...>.O.>...O.....<.;.} ..&.>.;.,.>.[ >.<.} O.;.>.;.",
"} ;.O.} } 1...;.......>.@.>.$.O.>.O.O.O.O.O.O.>.>.O.O.O.O.>.O.O.O.>.O.O.O.O.>.O.>.O.>.O.O.O.O.>.O.O.O.O.O.>.>.O.&.O.>...O.Y ;...>.{ >.;.>.[ ;.O.@.O.O.",
";.>.,.O.&.>.O.;.&.<.O.....O.;.>...O.O.O.O...>...O...O.O.O...O.O.O.O...O...O.O...O.O.>.O.;.O...O...O.O.;.O...O.>.....O.O.&.@.*.$.<.>.,.>.>.O.;.&.O.O.O.",
"..} >.;.O...$.@.>.1.&.R O.O.O.&.>.>.>.>.>.>.>.O.>.>.>.>.>.O.>.>.>.>.>.>.,.>.>.>.>.O.>.>.>.O.>.>.>.>.O.>.>.O.>.>...>.>.>.,...1.>.[ ,.;.o.;.>.} O.-.>.O.",
",.O.O.O.{ :.*.X. .,.#.R ;.>.} >.>.O.O.O.O.O.O.>.O.O.>.O.O.O.O.O.O.O.O.O.O.O.O.O.>.O.O.O.O.O.O.>.O.O.>.O.O.O.O.O.>.>.<.$.X...o.o...O.[ <.+.O.+.O.....+.",
"O.O.>.;.:.U./.D.F.!.,.O.} $.E / ' ' ' ' ' ' ' ` P.' ' ' ' ' ' ' ' ' ' ' ' ' ' ' ' ' ' ' ' ' ' ` ' ' ' ' ' ' ' ' ) / ' H.!.~.^.D.~.3.:.%.%.Y !.^.E.E.R.",
"O.>.O.&.o.].].R.^./.*.+.>.<.>.6.` ` ` ' ` ` ` ` ` ' P.' ` ' ' P.` ` ` L.` ` ` ` ` ` L.' ` ` L.` ` P.` ` ` ' ` ' ' ` / G.D.~.R.A.].o.>.;.<.U ).`.W.W.R.",
"&.>...>.Y D.R.A.R.~.o.>.;.>.I ! ' 5.' ' ' ' ( ' / ' ) ' ' ' ' ' 5.' 4.' ' ' 5.' ) 5.' ' ' ' ' ( ' ' ) 5.' ' ' ' ] ` ' 4.!.E.`.E.A.o.O.;.>. .R.A.~.~.^.",
">...<.O. .F.(.R.^.^.o.o.O.<...` / ' ' ' ' ' ' ' ' ' ' ' ' ' / ' ' ' ' ' ' ' ' ' ' / ' ' / ' ' ' ' ' / ` ' / ` ' ' ( ! ' ^.].R.R.). .o.,.} >.(.R.R.R.R.",
"....<.O.:.!.].A.!.D.3.+.O.&.>.( ` ' ' / ' ' ' ' ' ' / ' ' ' ' ' ' ' ' ' ' ' ' ' ' ` ' ' ' ' ' ' / ' ' ' ' ' ' ' ' ' P.P.!.!.D.~./.X.....=.>.D.A.R.^.R.",
"....>.$.#.,.&.*.*.:.%.O.[ ;.1.' ' ' ' ' / ' ' / ' / / ' / ' ' ' ' ' ' ' ' ' ` ' ' ' ' / ' ' ' ' ' ' ' ' ' ' ' ' ` ' ` ] :.&.@.&.:.%.&.I >.&.Y.`.R.R.R.",
"*.O...R :...I O.o...O.>.;...<.` ' ' / ' ' ' ' ' ' ' ` ' ' ' ' ' ' ' / ' ' ' ' ' ' ' ' ' ' ' ' ' ' ' ' / ' ' ` ' ' ' ` P.} O.} >.;.<.>.;.O...F.R.R.^.R.",
"O.1...O.>.$.>.;.>.>.[ O.1.;.>.K.' ' ' ' ' ' ' / ' ' / ' ' ' ' ' ' / ' ' ' ' ' ' / ' ' ' ' ' ' ' ' ' ' ' ' ' ` ' / ) ( L...:.R [ ;.[ ..>.&.*.^.W.R.R.R.",
"@.>.O.O.>.<.>.;.} <.;...;.[ } ) ' ' / ' / ' ' ' ' ' ' ' ' ` ' ' ` W y : ; O     O @ ; 5 n ' ' ` / ' ' ' ' ' ( ` / ' ' L.o.O.>.<.<.} ..;...X.R.Y.R.R.^.",
">.$.I >.>.R O.;.;.>.O.<.[ =.,.5./ ' / ` ' ' ' ' ' ' ' ` ' ' K u                               K ` ' / ' ' / ' ' / ' L.( >.} O.>...>...>...E Y._.R.R.R.",
"U >.>.O.>.^ 6.` ' ) / L.! 5.) ! ' ' ' ' ' ' ' ' / ' ' / 9                                         ^ ' ' ' ' ' / ` 5.' ` / / ` ' ` 6.L.( ) 4.(.R.^.R.R.",
">.O...>.O./ ` ' ' ' ' / ' ' ' ' / ' ' ' ' ' ' ' / /                   # s A q.q.z l i               u ' ' ' / ' ' ' ' ` ( ' ' ` ' ' ` ' ' / ~.R.R.R.W.",
"O.>.O.O.>.` ` ' ' / ' ' ` ' ' ' ' ' ` ( ` ' ' ` J               4 d.v.v.c.c.x.c.c.c.v.v.v.l           C ' / ' ' / ' ' ' ` ' ' ' ' ' / ' / H.E.R.R.R.R.",
"O.O.O.>.O.` ` ' ' ' ' ' / ' ' ' ' ' ' ` ' ' ' @           3 d.v.v.x.l.l.l.l.l.k.l.l.l.l.l.v.c.s         ' ` ' ` ' ' ' ' ' ' ' ' ` ' ` 5.) H.(.W.^.R.R.",
"O.;.O.O.O./ ` 5.` ' ' ` ' ' / ' ' / ' ' ' '           < x.v.x.l.l.k.l.k.l.l.l.l.k.l.l.k.l.l.x.c.a         ' ' ' ' ' / ' ' / ' ` ` ' ' ' ' / ^.Y.R.R.R.",
"O.O...>.O.` ` ' ` ( ` ' ' / ' ' ' ' ` ' /           d.v.z.l.l.k.l.k.l.l.l.l.l.l.l.l.l.l.l.z.k.Z i.2       P ' ' / ' ' ' ' ' ' ' ' P./ ' ( H.W.R.R.R.R.",
";.O.>.O.O.' ' ' ' ' ' ' ' ' ' ' ' ' ' '           v.c.l.l.k.l.l.l.l.l.l.l.l.l.l.l.l.l.l.l.l.S 7.9.s.      u ' ` ' ' ' ' ' / ' ' / ' / ' / H.~.R.R.R.^.",
"O.O.O.O.O.' ' ' / ' ' ' ' ' ` / ' ' '         < v.z.l.l.l.l.z.x.x.z.z.l.z.l.l.z.z.l.l.z.v.G G 8.8.s.      ; / ' ' ' ' / ' / ` / ' P./ ' / H.E.R.^.R.R.",
"O.O.>.O.O./ P.' ' ' ' ' / ' ' ' ' ' N       4 v.z.l.z.z.x.k.d.w.7.S S A A A A A A A A S F 7.8.8.q.F       : ( ` ' ' ' ' ' ' ' ' ' ' / ' / H.E.R.R.R.R.",
">.O.O.O.O.' ` ' ' ' ' ' ' ' ' ' ' `         b.x.z.k.j.t.F A S G 7.7.8.8.8.7.8.8.8.8.8.8.8.8.8.8.u.#       & r       r / ' ( ` ' ' ' ` ' ' ) ~.R.R.^.R.",
"..>...>.O.` ` ' ' ' ` ( ' / ' / ' 5       G g.9.F Z A G 7.8.8.8.8.8.8.9.8.8.8.8.8.8.8.8.8.8.8.r.g                       y / ` ' ' ' ` ' ( H.E.R.R.R.R.",
">.O.>.O.O.' ` 5.' ' ' ' ' ' ' ' '       + r.G 7.8.8.8.9.q.w.r.u.u.u.i.i.a.i.i.i.u.u.t.w.0.0.w.F                           : ' ' ` ' ` ' ` H.~.R.R.R.R.",
"O.>...O.O.` ` ' ' ` ' ' ' ` ' ' y       F q.8.9.w.t.i.0.k a < X X                 X * i k 8.p.                1 f #         r ' ' ' ` 5.' H.(.Y.^.R.R.",
"..>.>.O.>.` ` ' ' ` ' ` / ' ' ' @     # u.q.u.9.f #                                                         h a.w.a.Z         ' ' ' / ' ) H.R.R.R.R.R.",
"O.O...O.O./ ` 5.' ' ' ' ' ' ' '       p g.Z %                                                             g t.8.8.8.r.k       t / P.` ' / H.E.R.R.R.^.",
"O.O.O.O.O./ ` ' / ' ' / ' ' ' P       0.#                                                               F t.8.8.8.8.8.a.$     o ` ' ( ' / ) (.R.R.R.R.",
";.O.>.O.>.` L.) ' ' ' ' ' / ' K                                       + * X X                           * u.0.8.8.8.8.e.p       ` ' ` ' / ) ~.R.^.R.R.",
"O.O.;.O.O.` ' ' ' ' ` ' ' ' ' N                           X 0 f Z 7.t.p.t.u.u.u.i.e.w.0.9.F l             # u.9.8.8.8.q.k       P.' ` ' ' / E.R.R.R.R.",
";.O.O.O.O./ P.' ` ' ' ' ` ' ' W                     = h w.h.d.f.q.G 9.q.u.p.p.t.w.0.9.9.0.0.w.u.            4 t.8.8.8.0.A       ' ' / ' / H.R.R.R.R.R.",
"O.O.>.O.O.' ` ' / ' ' ' ' ' /                     a.h.i.Z >                   $ s 7.u.w.8.8.8.0.p.X           w.9.8.8.0.7.      ` ' ` ' ) ) (.R.W.~.R.",
">.O.O.O.O.' ` 5.' ' ` ` ( ' W                 i j.8.$                                 f i.0.8.8.9.s.q         g q.8.8.q.Z       ' ' ` 5.' / (.Y.R.R.R.",
"..O.O.O.O.' ` ' ' ' ' ' ' ' .             X 9.f.0           % , 4 0 4 4 1 < % X           8.w.8.8.8.a.2       0 e.8.8.e.q       ' ' / ' / H.R.R.~.R.^.",
">.O...>.O.` ` ' ' / ' ' ' W             1 i.a.%       > i s s a a a p a p a a d p 0 X       7.q.8.8.9.i.      % t.8.8.i.X       / P./ ' / H.E.R.R.R.R.",
">.O.>.O.O.' L.' ` ' / ' ' 9           0 u.a.>     X d s p i i i i i p a i i i i i p d 1       w.9.8.8.u.+       u.8.9.9.      . ` ' / ' ( H.(.R.R.~.W.",
"O.>...O.O.' L.' ( ' ' ' '           1 a.e.h     X f i i i i i p d a 2 1 q d i i i i i d 3     1 u.8.8.e.q       8.9.w.f       5 ' ' / ' / H.E.R.R.R.R.",
"..>.>.O.O./ L./ ' ' ' / Q         X s.9.w.      f i i i i p d i #         # d i i i i i d *     9.0.8.w.p       Z q.p.#       N ' P./ ' ' / ~.R.R.R.R.",
"O.O...O.>.` ' ' ' / ' ' C         8.0.r.2     q p i i p d s X               < s i i i i i p     = r.8.w.p       h r.A         ` ' ' / ' / H.W.R.R.R.^.",
">.O.O.>.O.' ' ' ' ' / ' r       * u.9.t.    $ j s d s 2 X           v 6       d i q i i i s $     u.8.r.2       x d.          ' ` ' ` 5./ / (.R.R.R.R.",
"..>.O.O.O./ P.' ' ' ' ' ;       F 0.q.Z     = > #               M..X.X.X      d i i i i i s <     0.9.e.0       z 3         J ' ' ' ` ' ) ) (.Y.R.^.R.",
"O.O.O.O.O.` ` ) ' ' ' ' @       i.9.s.>                     M .X.X.X.X.Xm   X d i i i i i p 2     A 0.r.1       =           ' ' ' ' / ' / H.W.R.R.R.^.",
">.O.;.O.>.' ' ' ' ' ` /       4 u.i.                o v |..X.X.X.X.X.X.Xc     d i i i i i i 0     h q.u.#                 V ( ` / ' ` ' / H.E.R.R.R.R.",
"O.O.O.>.O.` L.' ' / ' '       k i.        - {..X.X.X.X.X.X.XXX.X.X.XN.7     , a i i 0 i i i p     d w.u.                @ ' ` ' ' P.' ' ( G.~.R.^.R.R.",
"..O.O.O.O.` ` 5.' ' ' P.      0.3       C..X.X.X.XXX.X.XXX.X.X.X X          d i i i i i i p i     d w.a.                / ' ` ' ' ' / ' / H.^.R.R.R.R.",
">.O.>.O.O.` ` ' ' ' ' ' ;     k       M .X.X.XXX.X.X.X.X.X.XXX.X X        a a i i i i i i p 4     z q.r.              ' ' ' ' / ' P./ ' ' / ~.R.R.R.R.",
"..>.O.O.O.' L.) ' ' ` ( N           c V.|..X.X.X.X X  m .X.X.XXX.X.X6       a i i i i i i f X     y.q.Z             / ' ' ' ' ' ' ' ` ' ( H.W.R.R.R.R.",
"O.>.;.O.O.' ` ' ' ' ' ' '           V.M.m.m.Z.V.N.    m .X.X.XXX.X.X.XM.    * a i i i i d <     d e.a.            ' ` ' ' ' ' ' ` ' ` 5.' H.~.R.R.^.W.",
"O.O.O.O.O.` ` 5.' ' ' ' ' V         B.B.M.M.M.C.&     N.|..X.X.X.X.XXXn.    < s i i p d 2       u.r.h           ' ' / ' ' ' / ' ' ' ` ' / H.(.Y.R.R.R.",
"..>.O.O.>.` ` ' ' ' / ' ' `         & V.V.Z.N.v     8 V.n.V.XXXXoXC.V.8     4 a p s 0 X       q.r.8.          ~ / ` ' ' ` ' ' ' ' ' / ' / H.E.R.R.R.R.",
">.O.O.O.O./ ' ' ` ' ' ' ' ' P                       m B.M.m.n.n.n.N.M                       0.w.u.          ' ' ' ' ' / ( ` ' ` / P.' ' / H.(.Y.^.R.R.",
"O.O...>.O./ ` ' / ' ' ' ' ' ' :                     n.B.M.M.M.M.B.B.                    p t.u.i.#         ^ ` ` ' ' ' ' / ' ' ' ' ' / ' / ) ^.W.R.R.R.",
"..>.>.O.>.` ` ' ' ' ' ' / ' / `                     6 |.V.V.V.{.M         s.7.k f f S p.u.s.k           ' ' ' ( / ' ' ' ' ' ` ' ' ' / / / ) ~.R.R.R.^.",
"O.O.;.O.>.) P.( 5.' ` ` ` / / ' /                       7 c 7           r.0.0.w.r.t.u.a.h             ' ' ` ' ' ` ' / G.' ' ) 4.P.' ` L.' / R.~.R.^.R.",
"O.O...;.>./ L./ ' ' ` ` ' ' ' 5.' ' e                               % i.i.u.u.u.7.h 2             e ' ' ' ( ` ' ` ' ' ` ' ' ' ' ( ` ` ' ' G.Y.~.R.R.R.",
">.} } <.2.' L.) ! ' ` ` ' ] ' ` ' ' ' ' @                         X 0 1 < * X                 O ' ' ` ' ' ` ' / ' / ' ( ` ' ` ` ) ` ' 4.] G.Y.~.R.R.R.",
";.;.>.O.$./ / _ _ P.( ' ` ` ' ` ' ' / ' / ' B                                             e ^ ` ' ` ' ' ' ' ' ' ` P.' 4.L.) ) ] G.( / L.` / A.Y.^.R.R.",
"} O.O.O.+.~.~.~.^.!.:.O.[ O.>.) ' ' ' ' ' ' ' ' ' K y o                             9 V ' ' ' ' / ' ' ' ' ' ' ' ( ' ` P.!.~.^.D./.,.>.O.>.*.W.D.R.R.R.",
"..:.O. . .A.~.Q.].^.o.&.:.>.&.' ' / / ' ' ' ' ' ' ` ' ' ` W C b n B b b b N J P ^ ' ' ' ' ' / ' ' ' ' / ' ' / ' ` ` ` H.Y.Q.W.R.~.$.>.U ;.o._.R.R.R.^.",
"<.;.<.@.*._.R.W.R.D.o.>.Y ;.O./ ' ` / ' ' ' ` ' ' ' ' ' L.' ` ' ' ' / ' ' ' ' ' ' ' ' ' ' ' ' ' ' / ' ' / ' ' ' ' ` ` ' R.W.W.R.D.&.O.O.;.&.A.R.R.R.R.",
"=...2.>.*.D.A.R.R.!.&.>.>.=.>.' ' ' ' ' ' ' ' ' ' ' ' ' ( ' ' ' ' ' ' ' ' ' / ` ' / ' ' ' / / ' ' ` ' ' ' ' ' ' ) ' ` 4.F.E.R.~.R.O...O.>.>.R.^.^.R.R.",
"o.:.U &.X.[.D./.^.I.:.[ ;.<.[ ` ` ' ' ' ' ' ' ' ' ' ' ' ' ' ' ' ' ' ' ' ' ' ' ' ' ' ' ' ' ' ' ' ' ' ' ' ' ' ' ' ' ) ) G.U.D.A.~.!.+.*.>.>.} (.W.R.R.^.",
"=.;.;.} [ ,.Y ;. .X.#.O.;.>.O.6.' ' ' ' ' ' ' 5.' ' ' ' ' ' ' ' ' ' ' ' 5.' ' ' ' ' 5.' ' ' ' ' ' ' ' ' ' 5.' ' ] ` ` ( ,.&.$.O.+.{ ..R ;.&.R.R.R.R.R.",
"<.$.1.X.Y O.| o.O...1.>.O.[ >.` ' ' ' / ` ` ` ( ` ' ' ' ' ' ' ` ' ' / / ` ` / ' / ' ` ` ' ' / / ' ' ' ` / ' ` ` ` ` L./ >.O.O.>.&.X.O.<.[ X.S.R.^.R.R.",
"X.o.&...X.&.&.:.;.I ....>.;.>.' ' ' ' ' ' ' ' ) ' ' ' ' ' ' ' ' ' ' ' ' ' ' ' ' ' ' ' ' ' ' ' ' ' ' ' ' ' ' ' ' K.( 4.` >.U ..o.O.R $.<.>.Y A.W.R.R.R.",
"R ;.>.>.} <.2.-.} <.>.>.&...U / ' ' / / ) ' / / ' / / / ' / ' ' / ' ' / ' / / / ' ' / / ' ' / / ' / ' / ' ) ' ' ' ' 5.` 2.;.-.;.>...>...%.o.^.].R.R.^.",
">.o.} +.O.:.O.;.O.,.O.o.$.X.U 4./ / H.H.H./ H.H.H.) H.H./ / H.H.) H.H./ H.H.H.H./ / H.H.) H.) H./ H.H.H./ / H./ H.H.P./ &.O.<.@.&.} X.U O.:.^.Y.R.R.R.",
"!.R.A.R.R.R.Y.(.(.D.~.A.~.~.Y.(.(.E.~.E.(.~.(.R.(.!.R.E.(.E.(.^.R.E.E.R.(.(.(.^.(.E.(.R.(.R.(.R.(.(.R.E.~.E.(.(.^.W.W.^.Q.R.R.R.~.!.A.A./.Y._.Q.^.R.R.",
"Y.(.(.R.R.Q.(.A.R.A.`.R.`.Y._.Y.R.R.R.R.Y.W.R.R.W.R.R.R.R.R.R.Y.R.R.R.R.R.Y.R.R.Y.R.R.R.Y.R.R.R.R.Y.R.R.W.R.R.Y.~.~.R.Y.^.~.R.R.W.R.R.`.`.A.R.R.R.R.R.",
"R.R.R.~.R.R.R.R.R.R.R.R.R.R.R.E.R.R.R.R.R.R.R.R.R.R.R.~.R.R.R.~.^.R.R.R.^.R.R.R.R.R.R.R.R.R.R.R.R.R.R.R.R.^.R.R.R.R.R.R.R.R.^.R.R.R.R.R.^.R.R.R.R.R.R.",
"R.Y.R.R.R.R.~.E.R.~.R.R.R.~.R.~.R.R.^.R.R.R.^.R.R.R.R.R.R.R.R.E.R.R.R.R.R.R.R.R.R.^.R.R.R.^.R.R.R.R.R.R.R.R.R.R.^.R.^.R.R.R.R.R.R.R.R.R.R.W.R.R.^.R.R.",
"R.R.R.R.~.R.R.R.R.R.(.R.R.R.R.R.R.^.R.R.R.^.R.R.R.R.R.R.^.R.R.R.R.R.R.^.R.R.^.R.R.R.^.R.R.R.R.R.R.R.R.R.R.R.^.R.R.R.R.R.^.R.R.R.R.R.~.R.R.~.R.R.R.^.R."
};
