/* XPM */
static char *_d08b031599f4beacee360368ca64ef6m3xUm6LZhFtm73fX[] = {
/* columns rows colors chars-per-pixel */
"75 75 60 1 ",
"  c #C254D3",
". c #BE53CA",
"X c #BD53C4",
"o c #C35ACB",
"O c #C155C5",
"+ c #C154CC",
"@ c #140C1C",
"# c #532356",
"$ c #FF99C0",
"% c #BB4ED1",
"& c #BC4ECB",
"* c #BB4EC6",
"= c #BF59CA",
"- c #903B77",
"; c #BE5AC4",
": c #BD52D2",
"> c #B64CCC",
", c #C15AC4",
"< c #C259BD",
"1 c #F09EAA",
"2 c #F4A4AD",
"3 c #BF51D8",
"4 c #BE59BE",
"5 c #F1A1A4",
"6 c #F1A7A4",
"7 c #EEAAA5",
"8 c #EDA9AA",
"9 c #B752CC",
"0 c #F4A7B1",
"q c #F2A8B9",
"w c #B452BF",
"e c #F7ABAB",
"r c #EDAAB2",
"t c #EDACA6",
"y c #EFABA8",
"u c #B754C3",
"i c #F5AD9E",
"p c #EFACA3",
"a c #F1AAA6",
"s c #EAACA1",
"d c #F3A8A3",
"f c #F3A990",
"g c #F1A39F",
"h c #EDAA9C",
"j c #B64BD7",
"k c #BE58D5",
"l c #EEABA2",
"z c #F0A8B3",
"x c #EEA791",
"c c #B759CB",
"v c #C359D0",
"b c #F2ACA4",
"n c #C24FD2",
"m c #ECA5A3",
"M c #EEA8A8",
"N c #BD54BD",
"B c #F3AB9D",
"V c #DF7CB5",
"C c #E17EC4",
"Z c #DD7BC2",
/* pixels */
" .XoO+X@@###################@@$$$$$$$$$$$$$$@@@##################@@@O %X+.+",
"&O.&& X@@###################@@$$$$$$$$$$$$$$@@@##################@@@ *+X.=.",
"O+o.. .@@-----------------@@$$$$$$$$$$$$$$$$$$$@@----------------@@@+XO+X.X",
"+&.O.;%@@-----------------@@$$$$$$$$$$$$$$$$$$$@@----------------@@@O.&:+.+",
"o.%.>,:@@-----------------@@$$$$$$$$$$$$$$$$$$$@@----------------@@@=.=.X.;",
"..oO<12@@$$$$$$$$$$$$$$$$$@@$$@@@@@$$$$$@@@@$$$@@$$$$$$$$$$$$$$$$@@@3456788",
"X+.%90q@@$$$$$$$$$$$$$$$$$@@$$@@@@@$$$$$@@@@$$$@@$$$$$$$$$$$$$$$$@@@ wer8ty",
":+Xouip@@$$$$$$$$$$$$$$$$$@@$$@@@##$$$$$##@@$$$@@$$$$$$$$$$$$$$$$@@@+Xasddd",
"oX:.uf8@@$$$$$$$$$$$$$$$$$@@$$@@@##$$$$$##@@$$$@@$$$$$$$$$$$$$$$$@@@&.2pa7a",
"*O +o50@@-------------------@@$$$$$#####$$$$@@@------------------@@@ .gh777",
"XX.%jok@@-------------------@@$$$$$#####$$$$@@@------------------@@@+klz777",
":.X<,XX@@-------------------@@$$$$$#####$$$$@@@------------------@@@.Xxl7a7",
"cv.X.%+@@---------------------@@@$$$$$$$$$@@---------------------@@@%kbr7d7",
"..X.+n+@@---------------------@@@$$$$$$$$$@@---------------------@@@XXlm7M7",
"+.X..N.@@-----@@@@@@@@@@@@@@@@@@@$$$$$$$$$@@@@@@@@@@@@@@@@@@@----@@@X<lBa77",
"N O%oVC@@-----@@@@@@@@@@@@@@@@@@@$$$$$$$$$@@@@@@@@@@@@@@@@@@@----@@@VZ27777",
"@@@@@@@@@-----@@@@@@@@@@@@@@@@@@@@@@@@@@@@@@@@@@@@@@@@@@@@@@@----@@@@@@@@@@",
"@@@@@@@@@-----@@@@@@@@@@@@@@@@@@@@@@@@@@@@@@@@@@@@@@@@@@@@@@@----@@@@@@@@@@",
"@@@@@@@@@-----@@@@@@@@@@@@@@@@@@@@@@@@@@@@@@@@@@@@@@@@@@@@@@@----@@@@@@@@@@",
"@@#######-----@@@@@@@@@@@@@@@@@@@@@@@@@@@@@@@@@@@@@@@@@@@@@@@----#######@@@",
"@@#######-----@@@@@@@@@@@@@@@@@@@@@@@@@@@@@@@@@@@@@@@@@@@@@@@----#######@@@",
"@@------------@@@@@@@@@@@@@@@@@@@@@@@@@@@@@@@@@@@@@@@@@@@@@@@-----------@@@",
"@@------------@@@@@@@@@@@@@@@@@@@@@@@@@@@@@@@@@@@@@@@@@@@@@@@-----------@@@",
"@@$$$$$$$-----@@@@@@@@@@@@@@@@@@@@@@@@@@@@@@@@@@@@@@@@@@@@@@@----$$$$$$$@@@",
"@@$$$$$$$-----@@@@@@@@@@@@@@@@@@@@@@@@@@@@@@@@@@@@@@@@@@@@@@@----$$$$$$$@@@",
"@@$$$$$$$-----@@@@@@@@@@@@@@@@@@@@@@@@@@@@@@@@@@@@@@@@@@@@@@@----$$$$$$$@@@",
"@@------------@@@@@@@@@@@@@@@@@@@@@@@@@@@@@@@@@@@@@@@@@@@@@@@-----------@@@",
"@@------------@@@@@@@@@@@@@@@@@@@@@@@@@@@@@@@@@@@@@@@@@@@@@@@-----------@@@",
"@@-----@@@@@@@@@@@@@@@@@@@@@@@@@@@@@@@@@@@@@@@@@@@@@@@@@@@@@@@@@@@@@----@@@",
"@@-----@@@@@@@@@@@@@@@@@@@@@@@@@@@@@@@@@@@@@@@@@@@@@@@@@@@@@@@@@@@@@----@@@",
"@@-----@@@@@@@@@@@@@@@@@@@@@@@@@@@@@@@@@@@@@@@@@@@@@@@@@@@@@@@@@@@@@----@@@",
"@@-----@@@@@@@@@@@@@@@@@@@@@@@@@@@@@@@@@@@@@@@@@@@@@@@@@@@@@@@@@@@@@----@@@",
"@@-----@@@@@@@@@@@@@@@@@@@@@@@@@@@@@@@@@@@@@@@@@@@@@@@@@@@@@@@@@@@@@----@@@",
"@@-----@@@@@@@@@@@@@@@@@@@@@@@@@@@@@@@@@@@@@@@@@@@@@@@@@@@@@@@@@@@@@----@@@",
"@@-----@@@@@@@@@@@@@@@@@@@@@@@@@@@@@@@@@@@@@@@@@@@@@@@@@@@@@@@@@@@@@----@@@",
"@@-----@@@@@@@@@@@@@@@@@@@@@@@@@@@@@@@@@@@@@@@@@@@@@@@@@@@@@@@@@@@@@----@@@",
"@@-----@@@@@@@@@@@@@@@@@@@@@@@@@@@@@@@@@@@@@@@@@@@@@@@@@@@@@@@@@@@@@----@@@",
"@@-----@@@@@@@@@@@@@@@@@@@@@@@@@@@@@@@@@@@@@@@@@@@@@@@@@@@@@@@@@@@@@----@@@",
"@@-----@@@@@@@@@@@@@@@@@@@@@@@@@@@@@@@@@@@@@@@@@@@@@@@@@@@@@@@@@@@@@----@@@",
"@@-----@@@@@@@@@@@@@@@@@@@@@@@@@@@@@@@@@@@@@@@@@@@@@@@@@@@@@@@@@@@@@----@@@",
"@@-----@@@@@@@@@@@@@@@@@@@@@@@@@@@@@@@@@@@@@@@@@@@@@@@@@@@@@@@@@@@@@----@@@",
"@@-----@@@@@@@@@@@@@@@@@@@@@@@@@@@@@@@@@@@@@@@@@@@@@@@@@@@@@@@@@@@@@----@@@",
"@@-----@@@@@@@@@@@@@@@@@@@@@@@@@@@@@@@@@@@@@@@@@@@@@@@@@@@@@@@@@@@@@----@@@",
"@@-----@@@@@@@@@@@@@@@@@@@@@@@@@@@@@@@@@@@@@@@@@@@@@@@@@@@@@@@@@@@@@----@@@",
"@@-----@@@@@@@@@@@@@@@@@@@@@@@@@@@@@@@@@@@@@@@@@@@@@@@@@@@@@@@@@@@@@----@@@",
"@@-----@@@@@@@@@@@@@@@@@@@@@@@@@@@@@@@@@@@@@@@@@@@@@@@@@@@@@@@@@@@@@----@@@",
"@@-----@@@@@@@@@@@@@@@@@@@@@@@@@@@@@@@@@@@@@@@@@@@@@@@@@@@@@@@@@@@@@----@@@",
"@@-----@@@@@@@@@@@@@@@@@@@@@@@@@@@@@@@@@@@@@@@@@@@@@@@@@@@@@@@@@@@@@----@@@",
"@@-----@@@@@@@@@@@@@@@@@@@@@@@@@@@@@@@@@@@@@@@@@@@@@@@@@@@@@@@@@@@@@----@@@",
"@@-----@@@@@@@@@@@@@@@@@@@@@###################@@@@@@@@@@@@@@@@@@@@@----@@@",
"@@-----@@@@@@@@@@@@@@@@@@@@@###################@@@@@@@@@@@@@@@@@@@@@----@@@",
"@@-----@@@@@@@@@@@@@@@@############################@@@@@@@@@@@@@@@@@----@@@",
"@@-----@@@@@@@@@@@@@@@@############################@@@@@@@@@@@@@@@@@----@@@",
"@@-----@@@@@@@@@@@@@@@@############################@@@@@@@@@@@@@@@@@----@@@",
"@@-----@@@@@@@@@@@@#####################################@@@@@@@@@@@@----@@@",
"@@-----@@@@@@@@@@@@#####################################@@@@@@@@@@@@----@@@",
"@@-----@@@@@@@@@##########################################@@@@@@@@@@----@@@",
"@@-----@@@@@@@@@##########################################@@@@@@@@@@----@@@",
"@@-----@@@@@@@###############################################@@@@@@@----@@@",
"@@-----@@@@@@@###############################################@@@@@@@----@@@",
"@@-----@@@@@@@###############################################@@@@@@@----@@@",
"@@-----@@@@@##############-----------------------##############@@@@@----@@@",
"@@-----@@@@@##############-----------------------##############@@@@@----@@@",
"@@-----@@############---------------------------------###########@@@----@@@",
"@@-----@@############---------------------------------###########@@@----@@@",
"@@-----@@#######------------------------------------------#######@@@----@@@",
"@@-----@@#######------------------------------------------#######@@@----@@@",
"@@-----@@#######------------------------------------------#######@@@----@@@",
"@@-----@@#####-----------------------------------------------####@@@----@@@",
"@@-----@@#####-----------------------------------------------####@@@----@@@",
"@@-----@@###---------------------------------------------------##@@@----@@@",
"@@-----@@###---------------------------------------------------##@@@----@@@",
"@@@@@@@@@###---------------------------------------------------##@@@@@@@@@@",
"@@@@@@@@@###---------------------------------------------------##@@@@@@@@@@",
"@@@@@@@@@###---------------------------------------------------##@@@@@@@@@@"
};
