/* XPM */
static char *_ef0e51c36b942839b8f674de8e39339J4L4HTWRM1bF5Rbi[] = {
/* columns rows colors chars-per-pixel */
"75 75 205 2 ",
"   c #000000",
".  c #0B0204",
"X  c #0B0609",
"o  c #0D090C",
"O  c #070809",
"+  c #130202",
"@  c #130209",
"#  c #1C030D",
"$  c #11090E",
"%  c #1C0303",
"&  c #160C12",
"*  c #0E1214",
"=  c #17181A",
"-  c #0D0F11",
";  c #250407",
":  c #380606",
">  c #240310",
",  c #2D0415",
"<  c #3B051B",
"1  c #330518",
"2  c #22131C",
"3  c #2D1925",
"4  c #281622",
"5  c #331C2A",
"6  c #301B27",
"7  c #23282C",
"8  c #262D31",
"9  c #3B2131",
"0  c #2C363A",
"q  c #39202F",
"w  c #4A0807",
"e  c #4C0808",
"r  c #460707",
"t  c #530809",
"y  c #5B0909",
"u  c #42061E",
"i  c #59081E",
"p  c #630A0B",
"a  c #6C0B0A",
"s  c #780C0B",
"d  c #7B0B17",
"f  c #4A0622",
"g  c #470621",
"h  c #520726",
"j  c #5B072A",
"k  c #570828",
"l  c #63072D",
"z  c #64082E",
"x  c #69082F",
"c  c #6C0832",
"v  c #740835",
"b  c #7C0937",
"n  c #7B0838",
"m  c #7B0B29",
"M  c #452638",
"N  c #4B293D",
"B  c #412435",
"V  c #5B413F",
"C  c #333B41",
"Z  c #532E44",
"A  c #5C334C",
"S  c #573047",
"D  c #4E2B40",
"F  c #693A56",
"G  c #6A3A56",
"H  c #3B454B",
"J  c #3C4D53",
"K  c #3E5056",
"L  c #424E55",
"P  c #74405F",
"I  c #72504D",
"U  c #4E5861",
"Y  c #535E67",
"T  c #774261",
"R  c #7C4566",
"E  c #56626C",
"W  c #576872",
"Q  c #5B737B",
"!  c #880D0D",
"~  c #9C0F0E",
"^  c #940E0E",
"/  c #9C0E16",
"(  c #A40F0F",
")  c #A8100F",
"_  c #A80F17",
"`  c #B20F1C",
"'  c #AC1010",
"]  c #BC1113",
"[  c #B51019",
"{  c #8D0B2E",
"}  c #9E0C27",
"|  c #9A0C28",
" . c #940C2C",
".. c #850A33",
"X. c #890B32",
"o. c #A30D24",
"O. c #C51111",
"+. c #88605F",
"@. c #854A6D",
"#. c #8B4D72",
"$. c #8E4B7A",
"%. c #9A557D",
"&. c #9F706D",
"*. c #657A82",
"=. c #9D5781",
"-. c #95419F",
";. c #A25984",
":. c #A65B88",
">. c #AE608F",
",. c #B46493",
"<. c #BD699B",
"1. c #BA6799",
"2. c #9C44A5",
"3. c #B74EBE",
"4. c #B452BF",
"5. c #BD54BD",
"6. c #BE59BE",
"7. c #A94AB4",
"8. c #C16B9E",
"9. c #C156BD",
"0. c #C259BD",
"q. c #C56DA2",
"w. c #CD72A8",
"e. c #D778AB",
"r. c #DE7CB5",
"t. c #D77BBC",
"y. c #DC7EB9",
"u. c #DB74BC",
"i. c #CF71AF",
"p. c #E17DB5",
"a. c #E177B9",
"s. c #E07CB8",
"d. c #BB4EC6",
"f. c #BC4ECB",
"g. c #B54DCA",
"h. c #B754C3",
"j. c #BD53C4",
"k. c #BE5AC4",
"l. c #B752CC",
"z. c #BE53CA",
"x. c #B759CB",
"c. c #BF59CA",
"v. c #B64BD7",
"b. c #BB4ED1",
"n. c #BB4DDA",
"m. c #BD52D2",
"M. c #BE58D5",
"N. c #B951D3",
"B. c #C14DCE",
"V. c #C24FC6",
"C. c #C155C5",
"Z. c #C15AC4",
"A. c #C154CC",
"S. c #C35ACB",
"D. c #C24FD2",
"F. c #C254D3",
"G. c #C359D0",
"H. c #DD7BC2",
"J. c #C361C4",
"K. c #E17EC4",
"L. c #E27DC9",
"P. c #68818B",
"I. c #6A8891",
"U. c #7A8C97",
"Y. c #7A9BA6",
"T. c #7EA0AE",
"R. c #B68080",
"E. c #81A2AE",
"W. c #88ADBA",
"Q. c #85A9B6",
"!. c #8EB0BC",
"~. c #D69994",
"^. c #ECAB9E",
"/. c #ECA69B",
"(. c #F3AB9D",
"). c #F2A69A",
"_. c #DE81B9",
"`. c #DF80AC",
"'. c #E380BA",
"]. c #E381B5",
"[. c #EC95AE",
"{. c #ECA5A3",
"}. c #EEAAA5",
"|. c #EFA7AA",
" X c #EEA9A9",
".X c #F2A5A4",
"XX c #F1AAA5",
"oX c #F2A4AC",
"OX c #F1AAA8",
"+X c #F9ABA9",
"@X c #EDAAB2",
"#X c #F2A7B4",
"$X c #F6B2A5",
"%X c #94BDCB",
"&X c #98C2CF",
"*X c #97C1CE",
"=X c #9AC5D2",
"-X c #A7CBD6",
";X c #B4D2DC",
":X c #C3DCE4",
">X c #CEE3E9",
",X c #EAF3F5",
"<X c #FEFEFE",
"1X c #F4F8FA",
"2X c #E4EEF2",
/* pixels */
"F.z.j.S.C.A.j.F.S.z.z.M.z.z.z.C.A.j.A.z.C.z.j.A.j.z.z.A.z.C.z.A.j.A.A.j.A.j.A.z.A.j.A.z.C.z.z.A.j.z.j.A.A.j.A.z.j.j.A.C.b.j.m.S.j.S.A.j.C.F.b.j.A.z.S.",
"f.C.z.f.f.F.j.j.j.j.j.S.z.l.m.z.z.z.z.z.z.z.A.z.A.z.z.z.z.z.z.z.z.z.z.z.z.z.z.A.z.z.z.z.z.z.z.z.z.A.z.z.z.A.z.z.S.f.f.C.z.6.C.d.F.f.A.C.F.d.A.j.A.z.z.",
"C.A.S.z.z.F.z.k.b.F.z.j.j.j.C.z.z.z.z.z.z.j.A.z.A.j.j.A.j.A.z.z.z.j.z.z.A.j.j.A.j.A.z.z.A.z.j.z.j.z.A.j.z.j.z.z.j.j.f.z.m.z.m.b.F.b.S.A.A.j.C.A.j.z.j.",
"A.f.z.C.z.Z.l.l.A.S.m.9.j.z.z.m.A.z.A.S.A.A.A.z.A.z.A.A.A.z.z.S.A.A.A.A.A.A.z.A.z.A.c.S.A.z.A.A.A.A.A.A.z.A.A.S.z.j.F.A.c.k.G.A.j.S.j.b.C.z.f.b.A.z.A.",
"S.z.b.z.g.Z.m.k.h.S.v.Z.A.A.f.A.z.z.z.z.z.z.c.A.z.z.A.z.z.z.z.4.7.2.-.-.2.2.7.A.A.z.z.z.z.z.z.z.z.f.S.z.z.f.z.z.A.A.F.b.k.h.l.l.k.z.j.F.c.z.c.z.j.z.k.",
"z.z.S.C.9.oXoX(.)..XS.j.b.D.9.p.s.s.s.s.s.s.a.s.s.s.s.<.G 9 X               & 4 M G :.r.s.s.s.r.s.s.s.s.s.s.'.s.y.p.s._..XOXXX(..XJ.k.b.n.5..X}.}.|. X",
"j.A.z.b.l.#X#XXXXXoXM.j.A.F.A.K.p.p.p.p.p.p.p.p.p.1.M                               O 6 %.r.r.r.p.s.'.s.s.p.p.s.a.y.p._.XXXXOX/.#Xv.A.C.F.4.+X@X X}.}.",
"m.A.j.S.h.(.XX^.}.XXN.j.C.A.3.p.K.s.s.s.K.a.s.s.@.O                                     O A r.s.s.s.s.s.s.K.s.s.p.p.s.r.XX X X X(.x.j.Z.A.j.}.}.XX.XXX",
"S.j.m.z.4.). X}.XX(.v.j.z.F.j.r.s.s.s.s.s.s.s.G             . ; : : : ; ; % +               F r.s.s.s.s.s.s.s.s.a.p.r.p.XX#X}.^.+Xh.z.A.f.z.oXOXOX}.OX",
"d.C.F.A.S..X#X/.XX).c.z.z.F.F.r.s.s.s.s.s.s.#.        . w ! ' ] O.O.O.O.O.O.] ' ! w .         @.s.s.s.s.s.s.s.s.a.K.p.'..X.X(.XXoXk.j.j.F.z.).^.}.}.}.",
"j.j.C.b.v.S.M.m.b.S.v.S.d.C.F._.s.s.p.s.r.<.$       % ^ O.O.O.O.O.O.O.O.O.O.O.O.O.O.' ;       o 1.s.s.s.s.s.s.s.p.p.p.K.k.m.z.m.Z.v.b.5.A.M.}.|.}.}.}.",
"m.z.j.0.Z.j.j.j.z.h.z.S.A.j.A.r.p.a.r.s.s.Z       + ) O.O.O.O.O.O.O.O.O.O.O.O.O.O.O.O.) +       9 r.s.s.r.s.r.s.s.s.p.p.l.m.z.z.C.F.A.C.z.j.).^.}.OX}.",
"x.S.z.j.z.b.A.C.A.A.d.j.A.Z.A.`.s.s.s.y.<.X       w t w : r e p ! ~ ] O.O.O.O.O.O.O.O.O.!         =.s.s.s.s.s.s.r.y.u.p.j.j.0.z.A.j.d.B.l.m.XX@X}.XX}.",
"z.z.j.z.A.D.A.A.B.F.C.C.Z.d.z.a.a.p.s.r.P                           + t ^ O.O.O.O.O.O.O.O.r       3 r.s.s.s.s.s.r.s.s.p.z.z.j.F.F.f.5.S.j.k.}.{.}.}.}.",
"A.z.j.z.z.5.z.j.j.S.F.F.j.A.S.K.y.r.;.5                                 . e ] O.O.O.O.O.O.) +       ,.a.s.s.s.s.r.'.'.r.S.l.f.A.j.z.j.m.j.0.XX(.OXOX}.",
"5.F.C.b.S.p.K.p.p.u.p.].e.K.H.e.e.S                                         % ) O.O.O.O.O.O.e       G y.s.s.r.p.r.K.a.p.a.p.p.p.p.L.p.p.p.H.oX}.}.{.}.",
"z.A.A.z.A.s.p.s.s.r.s.s.s.s.r.i.5             * 8 L W P.P.I.P.Q K =           ; O.O.O.O.O.O.^       2 r.s.s.s.s.s.s.s.p.r.s.s.s.'.s.p.s.s.y..X{.}.}.XX",
"z.z.j.z.z.a.p.s.s.s.s.s.s.s.r.N         - J I.!.-X;X:X:X;X=X&X&X=X*XY.0         p O.O.O.O.O.] %       <.s.s.s.s.s.s.s.s.s.s.s.s.s.s.p.s.s.y.OX}. X}.}.",
"z.z.z.z.z.p.p.s.s.s.s.s.s.y.@.        8 Y.;X>X,X<X<X<X<X<X,X&X&X&X&X*X*XH       . ] O.O.O.O.O.w       =.a.s.s.s.p.s.s.s.s.s.s.r.s.s.p.s.s.y.OX}.}.OX}.",
"C.z.A.z.z.y.'.a.s.s.s.s.s.r.3       0 %X:X<X<X<X<X<X<X<X<X<X-X*X&X&X*X%XQ o       ! O.O.O.O.O.a     O G y.s.s.s.s.s.s.s.s.s.s.s.s.s.p.K.r._.OX}.}.}.}.",
"z.z.z.z.A.p.p.y.s.s.s.s.s.>..     - %X=X>X<X<X<X<X<X1X,X2X:X&X&X&X&X&XW.W 0       a O.O.O.O.O.!       M s.s.p.r.s.s.r.s.s.s.s.s.s.s.s.s._.r.OX}.}.OX}.",
"A.z.C.z.z.s.'.a.s.s.r.s.s.=.      K *X=X=X;X;X-X=X=X&X&X&X&X&X&X&X&X&XP.E H       y O.O.O.O.O.) .     o Z Z Z A #.q.s.s.s.s.p.s.s.s.p.s.r._.oX}.}.}.OX",
"j.A.z.z.z.s.p.s.s.s.s.s.s.;.      Q =X=X*X*X=X=X&X&X&X&X&X&X&X&X&X&XT.E E 0       p O.O.O.O.O.O.                  o @.r.s.s.s.s.p.s.p.s.y.t.XX}.}.}.}.",
"z.z.z.S.z.s.s.s.s.s.s.s.p.=.      C Y.*X&X=X*X*X&X&X&X&X&X&X&X&X*XT.W E E 7       s O.O.O.O.O.O.+                     ;.s.s.s.s.s.s.p.r.r._.}.{.XX}.}.",
"z.z.j.A.z.s.p.s.s.s.s.s.s.:.      = W W *.U.E.W.W.W.W.W.T.T.Q.Y.P.W E E U O       ~ O.O.O.O.O.O.;                     2 r.r.r.s.'.s.p.s.s.y.oX}.{.}.XX",
"z.A.z.z.z.s.p.a.s.s.s.s.s.q.        C E E E E E E W W E E E W E E E E E 8       : O.O.O.O.O.O.O.:       p s s a .       ,.r.s.s.s.s.p.s.s.y.OX}.OX}.}.",
"z.A.C.z.z.r.p.H.s.y.s.s.s.s.N         7 U E E E E E E E E E E E E E E H .       a O.O.O.O.O.O.O.e       ~ O.O.O.e       #.s.s.s.s.s.p.s.s.y.OX}.}.}.OX",
"j.z.z.z.S.p.p.s.s.s.s.s.s.s.8.o           7 L E E E E E E E E E E E 0 .       ; ] O.O.O.O.O.O.O.w       ^ O.O.O.s       P s.s.r.s.s.p.K.r.y.OX}.OX}.^.",
"A.z.A.z.z.p.p.s.s.s.s.s.s.s.s.>.$             = 8 L U E E E E E L =         . ~ O.O.O.O.O.O.O.O.e       d O.O.O.!       G r.u.s.s.s.p.s.r.r.OX}.}.}.OX",
"A.z.z.z.z.p.p.K.s.s.p.s.s.s.s.s.@.                  . - = = = o           . ! O.O.O.O.O.O.O.O.O.y       k b  .[ !       F r.s.s.s.s.r.s.y._.oX}.}.}.}.",
"j.z.z.z.z.s.p.s.s.s.s.s.s.s.p.s.@.                                      + ! O.O.O.O.O.O.O.O.O.O.y       h n n b j       Z s.s.s.s.s.p.s.r.t.OX}.}.}.XX",
"A.z.C.z.z.p.p.s.s.s.s.s.s.s.r.s.T       t r +                       . r ) O.O.O.O.O.O.O.O.O.O.O.y       f n n b l       B s.s.s.p.s.s.r.p._..X}.}..X}.",
"z.z.j.A.z.p.p.K.r.s.s.s.s.s.s.s.G       ! O.] ^ y : % .     . + ; y ~ O.O.O.O.O.O.O.O.O.O.O.O.O.p       g n n n z       9 s.s.s.s.s.s.s.s._.OX}.}. X}.",
"j.z.A.z.z.p.p.s.s.s.s.s.s.s.s.s.A       ! O.O.O.O.O.] ( ^ ! ^ ' O.O.O.O.O.O.O.O.O.O.O.O.O.O.O.O.j       < n n n c       5 s.s.s.s.s.p.s.s.y.OX}.}.}.OX",
"A.z.z.z.z.s.p.y.s.s.s.s.r.s.s.s.M       ^ O.O.O.O.O.O.O.O.O.O.O.O.O.O.O.O.O.O.O.O.O.O.O.O.O.O.[ k       1 n n n c O     4 a.s.s.p.s.p.K.s.y.OX}.}.OX}.",
"j.A.A.z.z.p.'.a.s.s.s.s.s.s.s.s.9       ( O.O.O.O.O.O.O.O.O.O.O.O.O.O.O.O.O.O.O.O.O.O.O.O.O.O.| z       , n n n v .     2 r.s.r.s.s.p.s.s.y..X}.}.}.}.",
"A.z.A.z.z.s.p.s.s.s.s.s.s.s.s.s.4       / O.O.O.O.O.O.O.O.O.O.O.O.O.O.O.O.O.O.O.O.O.O.O.O.O.] b c       # n n n v .     & i.p.s.s.s.s.s.r.y.}.}.}.}.OX",
"z.z.j.z.z.r.p.s.s.s.s.s.s.s.s.r.&       m O.O.O.O.O.O.O.O.O.O.O.O.O.O.O.O.O.O.O.O.O.O.O.O.O.| b n       X v n n n .     & w.s.s.'.s.p.s.r._.OX}.}.OX}.",
"z.z.A.z.A.p.s.s.s.s.s.p.r.s.s.s.o     . v ` O.O.O.O.O.O.O.O.O.O.O.O.O.O.O.O.O.O.O.O.O.O.O.` b b n .       v b b n @     o <.r.s.p.s.y.r.r.y.oX}.}.}.}.",
"A.z.C.z.z.s.p.s.s.s.s.s.p.s.s.s.X     X c o.O.O.O.O.O.O.O.O.O.O.O.O.O.O.O.O.O.O.O.O.O.O.O.X.n n n #       c b b b @     X ,.s.s.s.s.p.a.y.y.}.}.}.OX}.",
"j.A.A.z.A.p.p.r.r.s.s.s.s.s.s.s..     . v X.O.O.O.O.O.O.O.O.O.O.O.O.O.O.O.O.O.O.O.O.O.O. .b b n b ,       h n n n >     O :.p.s.s.s.p.s.s.y.oX^.}.XX}.",
"z.z.j.z.z.s.'.a.s.s.s.s.s.s.s.s.O     X b ..O.O.O.O.O.O.O.O.O.O.O.O.O.O.O.O.O.O.O.O.O.| n n b n n f       1 n n n >       >.s.s.s.s.p.s.s._.OX}.}.}.}.",
"z.z.z.z.S.p.p.y.s.s.s.s.s.s.p.s.O     . n n ` O.O.O.O.O.O.O.O.O.O.O.O.O.O.O.O.O.O.O.| b n n n n n l       > n n n ,       :.s.s.p.s.s.K.s.y.OX}.}.OXXX",
"C.z.z.A.z.s.s.s.s.s.s.s.s.s.s.s..     . n b | O.O.O.O.O.O.O.O.O.O.O.O.O.O.O.O.O.]  .n n n n n n n v       . b n b 1       %.s.p.p.s.s.s.s.y.OX}.}.}.}.",
"z.A.A.z.z.s.p.a.s.s.r.s.s.s.p.s.$     O n n ..[ O.O.O.O.O.O.O.O.O.O.O.O.O.O.O.` X.n n n n n n n n n @       l n b 1       #.r.r.s.s.p.s.r.r.}.}.}.}.}.",
"z.z.j.z.z.s.s.y.s.s.s.s.s.s.s.s.2       n n b o.O.O.O.O.O.O.O.O.O.O.O.O.O.O.o.b n n n n n n n n n n <       < b n u       T s.s.y.'.p.s.r._.|.}.OX}.OX",
"j.A.z.z.z.p.s.s.s.s.r.p.s.s.s.s.6       c n b { O.O.O.O.O.O.O.O.O.O.O.O.O.} b b n n n n n n n n n n k       @ b v #       #.r.s.s.s.a.p._.y.oX}.OX}.}.",
"A.z.z.z.S.s.'.s.s.s.s.s.s.s.s.s.N       g n b b [ O.O.O.O.O.O.O.O.O.O.O.[ b b b n n n n n n n n n n n .       1 @       X q.s.s.s.s.p.y.r.r..X}.}.}.}.",
"j.z.z.A.z.s.p.s.s.s.s.s.s.s.s.s.T       @ b n n ` O.O.O.O.O.O.O.O.O.O.O...n n n n n n n n n n n n n n <                 M <.8.<.1.:.%.@.P A +.~.$X}.}.",
"A.z.j.z.z.p.p.s.s.s.s.s.s.s.s.s.w.X       h n n ` O.O.O.O.O.O.O.O.O.O.[ n n n n n n n n n n n n n n n v O                 X $ o . O           & ~.}.}.",
"A.z.A.z.A.s.p.K.s.s.y.s.s.s.s.s.r.F       > n n ` O.O.O.O.O.O.O.O.O.O.` b n n n n n n n n n n n n n n n f                                       I }.}.",
"z.A.j.z.z.p.p.s.s.s.s.s.s.s.s.s.r.q.O     O v n o.O.O.O.O.O.O.O.O.O.O.` b n n n n n n n n n n n n n n n n c , .                                 N }.}.",
"j.A.A.z.z.s.p.y.s.s.s.s.s.s.s.s.s.s.5       k n ..] O.O.O.O.O.O.O.O.O.O.b n n n n n n n n n n n n n n n n n n c k u , > @ @ @ @ # > .         o R.}.}.",
"z.z.j.z.z.s.p.a.s.s.s.s.s.s.s.s.s.s.A       g n n ....n b ..| O.O.O.O.O. .n n n n n n n n n n n n n n n n n n n n n n n n n n n v 1         O I }.}.}.",
"A.z.z.A.A.p.p.s.r.s.s.s.s.r.s.s.s.s.T       < b n n n n b n n X.O.O.O.O.] n n n n n n n n n n n n n n n n n n n n n n n n n n l #         o +.OXXX}.XX",
"j.A.z.z.z.s.p.s.s.s.s.s.s.s.s.s.r.s.T       1 n n n n n b n n b X.O.O.O.O.o.n n n n n n n n n n n n n n n n n n n n n n n c <           & :.}.}.}.}.}.",
"z.z.j.z.A.y.y.r.a.s.p.a.]._.p.p.r.s.>.      . v n n n n n n n b n ..o.O.O.O.n n n n n n n n n n n n n n b b b v c c c j 1 .           q 1.r.}.).OX}.OX",
"j.z.j.C.A.p.p.r.s.K.p.p.a.y.s.K.s.s.a.=       @ h x z h g < u f x n n ..o.| n n n n n n n n n n n n n n j < # . .                   F w.p._.{..X^.}.}.",
"F.f.B.F.F.p.].y.`.s.p.p.s.p.'.a.s.s.r.@.                        X > j n n n n n n n n n n n n n n v f @                         2 >.p.L.a.'.{.}.XX.X}.",
"C.C.A.z.b.r.r.y.t.'.u.p.s.p.s.p.s.s.r.s.D                           . k n n n n n n n n n n n n x #                         2 $.r.u.p.p.p.p.^.}.}.}.}.",
"z.z.z.z.k..XXXOXXX.XZ.f.d.z.A.u.s.s.s.s.y.F .                           f n n n n n n n n n n c X               X = 4 6 I &.+X$X.XS.A.j.B.m.}.XX}.}.}.",
"j.k.x.j.h.}.XX X#XOXl.m.Z.S.l.'.s.s.s.s.s.y.w.T Z 9 M A @.$.@.N O         < n n n n n n n n v >         & G :.w.a.p.p.y.}. XOXXXXXb.A.0.C.l.}..X}.}.OX",
"A.C.D.l.m.OXOX}.}.(.z.z.5.C.z.p.s.s.s.s.s.s.s.s.s.s.s.s.r.s.s.r.%.X         # z b n n n n c 1         A w.s.s.s.p.s.`.a.}. XOX}.^.b.z.j.C.A.}.^.}.OX}.",
"A.j.D.A.z.(.^.}.}.}.M.A.A.B.A.y.p.s.s.s.s.s.s.s.s.s.s.s.s.s.s.p.a.;.$         O > < f f 1 @         N r.s.s.s.s.t.s.r.K.(. XXXXX}.F.z.f.C.S.}.OXXX}.}.",
"b.Z.5.m.6.#X.XXX+X[.Z.d.k.F.5.s.s.s.s.s.s.s.s.s.s.s.s.s.s.s.s.s.s.s.1.6                           2 w.s.s.s.s.s.s.y.t.].{..X^.}..Xk.m.z.S.b.OX X}.OX}.",
"B.C.C.B.d.S.5.j.4.k.n.z.C.z.m.L.s.s.s.s.s.s.a.s.s.s.s.s.K.s.s.s.s.s.s.i.A .                     4 q.s.s.'.K.s.s.a.p.p.u.S.F.m.z.S.g.j.9.C.b.XX{.}.}.}.",
"F.m.M.C.6.j.g.x.S.z.M.A.z.j.z.a.p.s.s.p.s.p.s.s.s.s.s.s.s.s.s.p.s.p.r.r.y.;.M               & R r.r.s.s.p.s.s.p.p.p.p.p.A.j.z.z.b.j.z.F.k.h.^.}.}.OX.X",
"j.m.M.h.h.m.M.k.C.3.5.j.A.C.A.r.a.s.a.s.s.s.s.s.s.s.s.s.a.s.s.s.a.s.s.s.r.y.s.i.:.=.;.;.=.1.r.r.r.r.a.a.s.s.a.s.p.r.H.p.A.9.j.b.z.5.m.F.C.6.(.@X}.}.}.",
"9.A.A.S.B.D.B.V.z.F.A.z.b.j.4.p.s.s.r.y.p.a.p.r.s.p.s.r.s.s.s.s.r.y.a.s.p.p.p.p.s.s.p.s.s.s.p.p.s.s.s.s.s.y.a.s.s.s.K.].B.C.C.C.A.j.A.C.n.z.|.#XOX}.}.",
"f.z.z.c.z.S.C.C.j.S.z.z.m.Z.0.H._._.y._.y._._.t._.t._._.'._._.y._._.r._.y._.t._.y.'._.t._.r._.t._.r.y.y._._._._.y._.s.r.F.m.m.f.m.l.j.5.z.Z.oX/.}.}.}.",
"}.{.{.}.}.}. XOXoXXX(.).XXOX}.oXOXOXoX}.}.OXOXOXOXXX}.oXOXOXOXXX}.oXOXOXOXXX.XoXOXOXOX XOXOXoXXXOXOX}.}.oXOXOXXXXX}. X}.|.}.}.}.XX.X(.^. X{.$X{.XX}.}.",
"}.OX X}.}.|.OX(.}.^.@X}.@X{.(.{.}.}.}.}.}.}.}.}.}.}.}.{.}.}.}.}.}.}.}.}.}.}.}.OX}.}.}.}.}.}.}.}.}.}.}.}.}.}.}.}.XXXXOX{.(.XX}.{. X^.}.@X@X}.}.}.OX{.}.",
"}.}.|.}.}.}.}.}.}.}.OXXXOX}.}.}.OX}.}..X}.OX}.XX}.}.OX}.}.}.}.}.}.}.OX}.XX}.^.{.}.}.}.}.}.}.}.OX}.}.}.}.}.}.}.}.}.}.{..X}.}.}.}.}.}.}.}.}.}.OX}.OX}.XX",
"}.}.}..X.X}.}.}.OX}.}.}.XX{.}.OX}.}.}.}.}.}.{.}.}.}.}.}.}.OXXXOXXX}.}.}.}.}.OX}.OX}.OX{.OX}.XX}.}.}.}.}.OX}.OX}.}.OX}.OXOX}.OXOX}.OXOX}.}.}.}.}.}.}.}.",
"}.}.}..XOX}.}.}.}.OX}.}.OX^.}.}.}.}.OX}.}.}.}.}.}.OX}.}.OX}.}.}.}.}.OXXXOX}.}.}.}.{.}.XX}.}.OX}.}.}.OX}.}.}.}.OX}.}.}.}.}.}.OX}.OX}.}.}.}.OX}.}.OX}.}."
};
