/* XPM */
static char *_4556bc0888d43038dc6a387f81cdfd4JHlvAoDuj78TdiYo[] = {
/* columns rows colors chars-per-pixel */
"75 75 111 2 ",
"   c #C254D3",
".  c #BE53CA",
"X  c #BD53C4",
"o  c #C35ACB",
"O  c #C155C5",
"+  c #C154CC",
"@  c #BE58D5",
"#  c #BB4ED1",
"$  c #BD52D2",
"%  c #BC4ECB",
"&  c #B752CC",
"*  c white",
"=  c #5A6988",
"-  c #BE59BE",
";  c #BB4EC6",
":  c #BF59CA",
">  c #BE5AC4",
",  c #C156BD",
"<  c #8B9BB4",
"1  c #C359D0",
"2  c #B64CCC",
"3  c #C15AC4",
"4  c #B754C3",
"5  c #B64BD7",
"6  c #C259BD",
"7  c #F09EAA",
"8  c #F4A4AD",
"9  c #F2AA9B",
"0  c #F6AC93",
"q  c #F1A1A4",
"w  c #C24FD2",
"e  c #DF7CB5",
"r  c #E07CB8",
"t  c #DE81B9",
"y  c #F4A4A3",
"u  c #F1AAA6",
"i  c #F3AAA3",
"p  c #F4AA9D",
"a  c #F1A7A4",
"s  c #C361C4",
"d  c #BF51D8",
"f  c #EEAAA5",
"g  c #EDA9AA",
"h  c #F4A7B1",
"j  c #F2A8B9",
"k  c #EFACA3",
"l  c #EFA7AA",
"z  c #F1A4AC",
"x  c #E17EC4",
"c  c #E17DB5",
"v  c #E381B5",
"b  c #E380BA",
"n  c #F3A8A3",
"m  c #F2ACA4",
"M  c #EBA69E",
"N  c #B452BF",
"B  c #F7ABAB",
"V  c #EDAAB2",
"C  c #EDACA6",
"Z  c #EFABA8",
"A  c #F5AD9E",
"S  c #EDAA9C",
"D  c #F0AAA2",
"F  c #B651D0",
"G  c #BA4FBE",
"H  c #E177B9",
"J  c #DC7EB9",
"K  c #B759CB",
"L  c #EAACA1",
"P  c #F3A990",
"I  c #EEABA2",
"U  c #DE7EAD",
"Y  c #F6ABA6",
"T  c #F1A9B4",
"R  c #EBAB9F",
"E  c #F9ABA9",
"W  c #F1A39F",
"Q  c #E580B8",
"!  c #F3AB9D",
"~  c #F3A3B0",
"^  c #B74ADB",
"/  c #BD54BD",
"(  c #F0A8B3",
")  c #EEA791",
"_  c #C14DCE",
"`  c #ECA5A3",
"'  c #EEA8A8",
"]  c #DB74BC",
"[  c #DC7DA7",
"{  c #E27DC9",
"}  c #DD7BC2",
"|  c #EDAAA4",
" . c #3A4466",
".. c #F1AAA8",
"X. c #181425",
"o. c #D77BBC",
"O. c #DF80AC",
"+. c #DE82B4",
"@. c #F4A4A5",
"#. c #F2A2A5",
"$. c #EDACA8",
"%. c #C24FC6",
"&. c #F3A0BE",
"*. c #F29FB1",
"=. c #F1A6A2",
"-. c #B44FC7",
";. c #BF4FD9",
":. c #F2AB95",
">. c #F9B3A9",
",. c #F1A9AC",
"<. c #F3B1A1",
/* pixels */
"  . X o O + X   o . . @ . . . O + X + . O . X + X . . + . O . + X + + X + X + . + X + . O . . + X . X + + X + . X X + O # X $ o X o + X O   # X + . + ",
"% O . % %   X X X X X o . & $ . . . . . * * = = + . . . . . . . . . . . . . . + . . . . . . . . . + . * * = = . o % % O . - O ;   % + O   ; + X . : . ",
"O + o . .   . > #   . X X X O . . . . . * * = = + X X + X + . . . X . . + X X + X + . . + . X . X . + * * = = . X X % . $ . $ #   # o + + X O + X . X ",
"+ % . O . > # & + o $ , X . . $ + . + o < < = = + . + + + . + o + + + + + + . + . + + o + . o + + + + < < = = o . X   + : > 1 + X o X # O . % $ + . + ",
"o . # . 2 3 $ > 4 o 5 3 + + % + . . < < * * < < = = . . . . . . . + . . . . . . . . . . . . . . . % < * * < < = = +   # > 4 & & X . X   : . : . X . > ",
". . o O 6 7 8 9 0 q o X # w , e r r < < * * < < = = r r r r r r r r r r r r r r r r r r r r r r r r < * * < < = = e r t y u i p a s > # d - q a f g g ",
"X + . # & h j k l z @ X +   + x c c < < * * < < = = v c c b c c c c r b c c c c c c v c c c c c c r < * * < < = = r e t n m u M h 5 + O   N B V g C Z ",
"$ + X o 4 A k S k D F X O + G c x r * * * * < < = = r x H r J x x r r r J x r H x H J x r H r r r r * * * < < = = c r J n g g g 9 K ; 3 + X u L n n n ",
"o X $ . 4 P g I u i F X .   X e r r * * * * < < = = r e r r r r r r r r r r r r r r e r r r r r r r * * * < < = = e U H Y T C R E N . o % . 8 k u f u ",
"; O   + o q h M n W : . .     e < < * * < < < < = = = = r e r r r r r r r r r r r r r r r r r < < < * < < < < = = = = Q q a ! n ~ > X X   . W S f f f ",
"X X . # 5 o @ $ $ : ^ o ; O   J < < * * < < < < = = = = r r r r r r r r r r r r r r r r e r r < < < * < < < < = = = = x > $ . $ 3 5 # / + @ I ( f f f ",
"$ . X 6 3 X X X . 4 . o + X + e * * * * < < < < = = = = r r r r r r r e e r r r r r r r r r r * * * * < < < < = = = = c & $ . . O   + O . X ) I f u f ",
"K 1 . X . # + O + + ; X + 3 < < * * < < < < = = = = = = = = r r r r r r r r r r c e r r r < < * * * < < < = = = = = = = = X 6 . + X ; _ # @ m V f n f ",
". . X . + w + + _   O O 3 ; < < * * < < < < = = = = = = = = r r r r r r r r r r r r r r r < < * * * < < < = = = = = = = = . X     % / o X X I ` f ' f ",
"+ . X . . / . X X o $   ; + < < * * < < < < = = = = = = = = r r r r r r r e r r r r r r r < < * * * < < < = = = = = = = = & % + X . X $ X 6 I ! u f f ",
"/   O # o e x c c ] e Q [ x < < * * < < < < = = = = = = = = r r r r e r r r r r r r e r r < < * * * < < < = = = = = = = = e c r c { c e e } 8 f f f f ",
". + + . + r c r r e r r r r < < * * < < < < = = = = = = = = r r r r r r r r r r H e r r r < < * * * < < < = = = = = = = = r r r b r c r r J a | f f u ",
". . X . . r c r r r r r * * < < < < < < = = = = = = = = = =  .r r r r r r r r r e c r r * < < < < < < = = = = = = = = = =  . .r r r c r r J ..| g f f ",
". . . . . c c r r r r X.< < < < = = = = = = = = = = = =  . . .X.X.X.r r * * = e r X.X.X.< < < = = = = = = = = = = = =  . . . .X.r r c r r J u f f u f ",
"O . + . . J b H r r r X.< < < < = = = = = = = = = = = =  . . .X.X.X.e r * * = r r X.X.X.< < < = = = = = = = = = = = =  . . . .X.r r c x e J ..f f f f ",
". . . . + c c J r r r X.= = = = = = = = = = = = = =  . . . . .X.X.X.r r < < = r r X.X.X.= = = = = = = = = = = = =  . . . . . .X.r r r r e e ..| f u I ",
"+ . O . . r b H r r e X.= = = = = = = = = = = = = =  . . . . .X.X.X.r e < < = r r X.X.X.= = = = = = = = = = = = =  . . . . . .X.r r c r e t z | f f u ",
"X + . . . r c r r r r X.= = = = = = = = = = = = = =  . . . . .X.X.X.r r < < = r r X.X.X.= = = = = = = = = = = = =  . . . . . .X.c r c r J o...f f f f ",
". . . o . r r r r r r r = = = = = = = = = = = =  . . . . . . .r r r < < * * < = = = r r = = = = = = = = = = =  . . . . . . . .r r r c r e t u f u f f ",
". . X + . r c r r r r r r r = = = = = =  . . . . . . . . . .r r r r * * * * < = = = r r r = = = = = =  . . . . . . . . . .r r r b r c r r J z L f f u ",
". + . . . r c H r r r r r r = = = = = =  . . . . . . . . . .r r r r * * * * < = = = r r r = = = = = =  . . . . . . . . . .r r r r r c r r J ..| u f f ",
". + O . . e c } r J r r r r e r r r e r r r r r r r r e r r e < < < * * < < < = = = = = c r r r r r r r r r r r e r r e r r r r r r c r r J ..f f f f ",
"X . . . o c c r r r r r r r r r r r r r r r e r r r r r r r r < < < * * < < < = = = = = e r r r r r r r r r r r r r r r r r r e r r c x e J u f u f I ",
"+ . + . . c c r r r r r r r r r r r r r r r r r r r r r r r r * * * * * < < < = = = = = r r r r r r r r r r e r r r e r r r r r r r c r e e ..| f f u ",
"+ . . . . c c x r r c r r r r r r r r r r r r r r r r r r r r * * * * * < < < = = = = = r r r r r r e c r r r r r r r r r r r r r r e r J t z | f f f ",
"X . . . . r c r r r r r r r c r r e r r r r r r r e r r r r < * * * < < < < = = = = = = = r r r e r r r r r c r r r r r r r e r r r c r e o...f f f f ",
"+ . O . . c c r r r r r r r e r r r r r e r r r r r r r e r < * * * < < < < = = = = = = = r r r r r r r r r e r r r r r r r r r c r r r c t a f f a f ",
". . X + . c c x e r r r r r r r r r r r r r r e r r r r r e < * * * < < < < = = = = = = = r e r r r r r r r r e r r H e r r r r r r r r r t a | f g f ",
"X . + . . c c r r r r r r r r r r r r e r r r r r r r r r c < * * * < < < < = = = = = = = r r r r r r r r r r r r r e c r r r r r r c r r J ..C f f u ",
"+ . . . . r c J r r r r e r r r r r r r r r r r r r r e * * < < < < < < = = = = = = = = =  . .r r r r r r r r r r r r r r r r r c r c x r J u f f u f ",
"X + + . . c b H r r r r r r r r r r r r r r r r r r r r * * < < < < < < = = = = = = = = =  . .r r e r r r r r e r r r r r r r e r r c r r J a f f f f ",
"+ . + . . r c r r r r r r r r r r r r r * * = = r X.X.X.< < < = = = = = = = = = = = = =  . . .X.X.X.r * * = = r r r e r r r r r r r r r e J ..L f f u ",
". . X . . e c r r r r r r r r e r e r r * * = = e X.X.X.< < < = = = = = = = = = = = = =  . . .X.X.X.r * * = = r r r r r r r r r b r c r e J a C f u f ",
". . + . + c r r r r r e e r r r r r r r < < = = r X.X.X.= = = = = = = = = = = = = =  . . . . .X.X.X.c < < = = r r r r r r r e r c r r r e J z k f f f ",
"+ . O . . r c r r r r r c r r r r r r r < < = = r X.X.X.= = = = = = = = = = = = = =  . . . . .X.X.X.e < < = = r r r r r r r r r r r c H J J u C f u f ",
"X + + . + c c e e r r r r r r r e r < < * * < < = = r r = = = = = = = = = = =  . . . . . . . .r r e < * * < < = = r r r r e r r r r c r r J z L f u f ",
". . X . . r b H r r r r r r r r r r < < * * < < = = r r = = = = = = = = = = =  . . . . . . . .e r r < * * < < = = r r r r c r r r r c r r t ..| f f ' ",
". . . . o c c J r r r r r r e r r r * * * * < < = = r r r r = = = = = =  . . . . . . . . .r r r r r * * * < < = = r r r r r r r c r r x r J a f f u u ",
"O . . + . r r r r r r r r r r r < < * * < < < < = = = = r r r r r r r r r r r r r e r r r r r < < < * < < < < = = = = r r r r e c r r r r J ..f f I f ",
". + + . . r c H r r e r r r e r < < * * < < < < = = = = r r r r r r r c e H r e r r r r r r r < < < * < < < < = = = = r r r r r r r c r e e u L f f f ",
". . X . . r r J r r r r r r r r < < * * < < < < = = = = r r r r r r r r r e r r r r r r r r r < < < * < < < < = = = = r r r r r J b c r e t z C a f u ",
"X + . . . c r r r r e c r r r r * * * * < < < < = = = = r e r r e r r r r r r r r r r r r r r * * * * < < < < = = = = r r r e r r r r r J J z C u f f ",
"+ . . . o r b r r r r r r r r r * * * * < < < < = = = = r r r r r r r r r r r r r r r e c e r * * * * < < < < = = = = r r r r r r r c r e e a f f f f ",
"X . . + . r c r r r r r r r < < * * < < < < = = = = = = = = r e e c r r r r r r e r r r r < < * * * < < < = = = = = = = = e r r b r c r r J ..| f f f ",
"+ . X . . c c r r r r r r r < < * * < < < < = = = = = = = = r r r r r r r r r r r r r r r < < * * * < < < = = = = = = = = r r r r r e r r t ..| f f f ",
"+ . + . + r c x r r J r r r < < * * < < < < = = = = = = = = r e r r r r e r r r r r r r e < < * * * < < < = = = = = = = = r r r r r c r r J ..f f f f ",
". + X . . c c r r r r r * * < < < < < < = = = = = = = = = =  .r r r r r r r r r r r r r * < < < < < < = = = = = = = = = =  . .r r r c x e J a f f f u ",
"X + + . . r c J r r r r * * < < < < < < = = = = = = = = = =  .r r r r r r r r r r r r c * < < < < < < = = = = = = = = = =  . .r r r e r J e g | u f f ",
". . X . . r c H r r r r * * < < < < < < = = = = = = = = = =  .r r e r r r r r e r r r e * < < < < < < = = = = = = = = = =  . .r r b c r e J u | f f f ",
"+ . . + + c c r e r r X.< < < < = = = = = = = = = = = =  . . .X.X.X.r r r r r r r X.X.X.< < < = = = = = = = = = = = =  . . . .X.r r r r r J u f u f u ",
"X + . . . r c r r r r X.= = = = = = = = = = = = = =  . . . . .X.X.X.r r r r r r e X.X.X.= = = = = = = = = = = = =  . . . . . .X.r r e r e e u C f f f ",
". . X . + J r e H r c X.= = = = = = = = = = = = = =  . . . . .X.X.X.e r r r r r e X.X.X.= = = = = = = = = = = = =  . . . . . .X.r r r v r e f W u f u ",
"X . X O + e c e r x c c = = = = = = = = = = = =  . . . . . . .e r r r r r r r r r r r r = = = = = = = = = = =  . . . . . . . .r e c c r r t ` y I f f ",
"  % _     r v J O.c c c = = = = = = = = = = = =  . . . . . . .r r r r r r e r r r r r r = = = = = = = = = = =  . . . . . . . .c o.c e x H b ` I ' n f ",
"O O + . # e e o.o.b ] c r c = = = = = =  . . . . . . . . . .r r r r r r r r r r r r r r r = = = = = =  . . . . . . . . . .J e ] +.] e b c c R I f f f ",
". . . . : @.m u Y q 3 % ; . = = = = = =  . . . . . . . . . .r r r r r r r r r r r e r r r = = = = = =  . . . . . . . . . .' n A #.1 + X _ @ f D f f f ",
"X > K X 4 I D g V ..& $ 3 o = = = = = =  . . . . . . . . . .r r r e r r r r c r r r r r r = = = = = =  . . . . . . . . . .g g | i # + 6 O & C y f f u ",
"+ O w & $ m Z g f p . . / O . c r r r r r r r r r r e r e r r r r r r r H r e r r r r r r e c e r r r r r r r r e r c H R g $.f R # . X %.. I I f u f ",
"+ X w + . p R f I I @ + + _ + r e r r r r r r r r r r r r r r r r r r r e r r r r r r r r r r r r r r r r r r r o.r c x 9 g f n I 1 . # O o I u f f f ",
"# 3 / $ - &.W u E *.3 ; X   / r r r r r r r r r r r r r r r r r r r r r r r r r r r r r r r r r r r r r r r r r r J o.v ` =.R I y > $ . + # ..g f u f ",
"_ O O _ ; o / > N > 5 . O . $ { r r r r r r H r r r r r x r r r r r r x r r r r x r b r r r r x r r r r b x r r H c c ] +   $ . : 2 X 6 O $ u L f f f ",
"  $ @ 3 - X -.K . . @ + . X . r c r r c r c r r r r r r r r r c r c e e r r c c c r r e c e e r r r c r c r r c c c c c + X . . # X . w X 4 S k f u a ",
"X $ @ N 4 $ @ 3 O G / X + O + r H r H r r r r r r r r r H r r r H r r r r r r H r H r r H r r r r r H r r r H r c e } c + , X $ . - $   O - 9 V f f f ",
", + + + _ w _ %.%   + . # X N e r r c r r r c r r c r e r r r r e J r r c c r c r r c r r r c c r r r r r r r r r r x v _ %.O O + X + O ;.. l ( u f f ",
"% . . : . o O O . o . . $ 3 , } t t J J J J t o.t o.t t b t t J t t e t J t o.t J t t o.t e t o.t e J J t J J t J t r e @ $ $ % $ & X / $ 3 z M f f f ",
"I ' ` k I f g ..8 D n :.i u I 8 ....z u u u u ..u i ..z ....u a ..z ..u u @.a z ........u ..z u u ..u u z ..u a f g g D l I I f @.n p S l ` >.` u f f ",
"I ..l I I g ,.p k S V C V ` <.` f | C L f f f | f f | | | | | f | | | f C C f I f f | | f | k | | f f C L C f f n m n ' D n I ' g R L V ( I | L f f f ",
"' I ' I f f f f f f f u f f f f u f f a f u f u f f u f f f f f f f u f u f I ' f f I ' f f f f f f f f f f f f f f ' n f f f f C f f f f f u f u f u ",
"I ' ' a n ' f f u f f f n ' f f f f f f f f ' f f f f f f u u f f f f f f f u f u f u f u f u f f f f f u f u f f u f f u f f u f u u f f f f f I f f ",
"I f I a u I f ' f u f f u I f f f f u I f f f f f u f f u f f f f f f n u f f f I ' f u f f u f f f u f f f f u f f f f f f u f u f f f f u f f u f f "
};
