/* XPM */
static char *c28050097e1f4b7293acf8f26c59ffacIrblILfhzQl42RiN[] = {
/* columns rows colors chars-per-pixel */
"75 75 165 2 ",
"   c #020204",
".  c #0A060A",
"X  c #0B0C0D",
"o  c #07090A",
"O  c #0F0812",
"+  c #140C13",
"@  c #171116",
"#  c #20141B",
"$  c #1E1F21",
"%  c #2F1B28",
"&  c #291723",
"*  c #341F2D",
"=  c #2D1430",
"-  c #331737",
";  c #361A39",
":  c #3A1A3E",
">  c #26272A",
",  c #2E2F32",
"<  c #3F3030",
"1  c #4F3B3A",
"2  c #523B39",
"3  c #5A413F",
"4  c #3E1C46",
"5  c #3F3B40",
"6  c #4F3144",
"7  c #53384A",
"8  c #5B2C5F",
"9  c #5D2C60",
"0  c #74337C",
"q  c #3C474C",
"w  c #574445",
"e  c #444B52",
"r  c #54555C",
"t  c #474348",
"y  c #6A4C48",
"u  c #7D5C5B",
"i  c #575A60",
"p  c #5B5E64",
"a  c #7E4669",
"s  c #5F676E",
"d  c #666A6E",
"f  c #686A6F",
"g  c #70676F",
"h  c #696D71",
"j  c #666B70",
"k  c #746F78",
"l  c #6C7175",
"z  c #6E7479",
"x  c #76787E",
"c  c #8A4D72",
"v  c #8F557B",
"b  c #93567B",
"n  c #94587D",
"m  c #A67573",
"M  c #7F4C83",
"N  c #737B82",
"B  c #975980",
"V  c #9A5B83",
"C  c #98469B",
"Z  c #A25E87",
"A  c #A4618B",
"S  c #A9638F",
"D  c #AB6197",
"F  c #9C47A7",
"G  c #9E4BB1",
"H  c #A44AAD",
"J  c #B64FBE",
"K  c #A751B9",
"L  c #A451B5",
"P  c #B452BF",
"I  c #BD54BD",
"U  c #BE59BE",
"Y  c #B455B4",
"T  c #C156BD",
"R  c #C259BD",
"E  c #CA6DA7",
"W  c #C870A3",
"Q  c #D07CAF",
"!  c #DF7CB5",
"~  c #D77BBC",
"^  c #DC7EB9",
"/  c #E17DB5",
"(  c #E177B9",
")  c #E07CB8",
"_  c #B44FC7",
"`  c #BB4EC6",
"'  c #BC4ECB",
"]  c #B64CCC",
"[  c #B754C3",
"{  c #BD53C4",
"}  c #BE5AC4",
"|  c #B752CC",
" . c #BE53CA",
".. c #B759CB",
"X. c #BF59CA",
"o. c #BB4ED1",
"O. c #BF4FD9",
"+. c #B64BD7",
"@. c #BD52D2",
"#. c #BE58D5",
"$. c #C24FC6",
"%. c #C14DCE",
"&. c #C155C5",
"*. c #C15AC4",
"=. c #C154CC",
"-. c #C35ACB",
";. c #C24FD2",
":. c #C254D3",
">. c #C359D0",
",. c #DD7BC2",
"<. c #E17EC4",
"1. c #778087",
"2. c #7C8389",
"3. c #7A8287",
"4. c #80858B",
"5. c #838B93",
"6. c #86939A",
"7. c #8A9098",
"8. c #939DA5",
"9. c #99A0A7",
"0. c #97A1A8",
"q. c #9BA4AB",
"w. c #A1A8AF",
"e. c #A7AFB7",
"r. c #A8AFB7",
"t. c #A8AFB8",
"y. c #A8B0B7",
"u. c #A9B1BA",
"i. c #C8918D",
"p. c #EEA791",
"a. c #EDAA9D",
"s. c #EBA69E",
"d. c #F3AA93",
"f. c #F4AB9D",
"g. c #F1A39F",
"h. c #DE81B9",
"j. c #F09EAA",
"k. c #E380BA",
"l. c #E381B5",
"z. c #ECA5A3",
"x. c #EEAAA5",
"c. c #EFA7AA",
"v. c #EEA8A9",
"b. c #F1A6A4",
"n. c #F1AAA5",
"m. c #F2A4AC",
"M. c #F1AAA8",
"N. c #F6B2A5",
"B. c #EDAAB2",
"V. c #F4A7B1",
"C. c #F0A8B3",
"Z. c #F2A8B9",
"A. c #AEB8C1",
"S. c #B3BDC7",
"D. c #B9C1CC",
"F. c #BFCAD6",
"G. c #BDC8D4",
"H. c #C2CEDA",
"J. c #C4D0DD",
"K. c #CAD6E4",
"L. c #CBD8E6",
"P. c #D2DFEF",
"I. c #D3E0EF",
"U. c #D5E2F1",
"Y. c #D9E6F4",
/* pixels */
":. .{ -.&.=.{ :.-. . .#. . . .&. . .=. .&. .{ =.{  . .=. .}  .=.{ =.=.{ =.{ =. .X.{ =. .=. . .=.{  .{ =. .{ =. .{ { =.&.o.{ @.-.{ -.=.{ &.:.o.{ =. .=.",
"' &. .' ' :.{ { { M                                                                                                                 X &.:.` =.{  .-. .",
"&.=.-. . .:. .} L                     o                                                                                                 =.{ &.=.{  .{ ",
"=.'  .&. .} @.K       o X X X X X X X o X X X X X X X X X X X X X X X X X X X X X X X X X X X X X X X X X X X X X X X X X X X X X         =.' @.=. .=.",
"-. .o. .] *.:.8     Y.I.I.I.I.I.U.P.P.I.I.I.I.P.U.I.I.I.I.I.I.I.I.I.I.I.I.I.I.I.I.I.I.I.I.I.P.P.I.I.I.I.I.I.I.I.I.I.P.P.I.I.I.I.I.I.D.    { X.=.{  .} ",
" . .-.&.R j.m.y     U.I.I.I.I.I.I.I.I.I.I.I.I.U.I.I.P.P.I.I.I.I.I.I.I.I.U.I.I.I.I.I.I.I.I.I.I.U.I.I.I.I.I.I.I.I.I.P.P.U.I.I.I.I.I.I.I.    Y b.n.v.c.x.",
"{ =. .o.| V.Z.y     I.I.I.I.I.I.I.I.I.I.I.I.P.I.I.U.P.P.I.I.I.I.I.I.I.I.I.I.I.I.I.I.I.I.I.I.U.P.I.I.I.I.I.I.I.I.I.I.P.I.I.I.I.I.U.I.U.    H M.B.v.x.x.",
"@.=.{ -.[ f.n.3     I.P.P.I.I.I.I.I.I.P.I.I.P.U.I.P.P.P.P.P.I.I.I.I.I.I.I.I.P.I.I.I.I.P.I.I.P.P.I.U.I.I.I.I.I.I.I.I.P.P.P.U.I.I.I.U.U.    H n.a.b.b.n.",
"-.{ o.=.[ d.v.w     I.P.I.I.I.I.P.P.P.P.P.P.U.U.I.U.I.I.U.U.I.U.I.U.I.U.U.U.I.U.U.P.U.I.P.P.P.P.I.U.U.U.I.I.I.I.P.I.P.P.I.I.I.I.P.I.U.    G m.n.n.x.n.",
"` &.:.=.-.b.V.2     I.P.I.P.P.P.P.P.P.D.e.e.e.e.e.e.e.e.e.e.e.e.e.y.e.e.e.e.e.e.e.e.e.e.e.e.e.e.e.e.e.e.e.e.e.e.e.I.P.P.I.P.I.I.P.P.U.    H g.a.x.x.x.",
"{ { { o.+.-.#.4     P.I.P.I.P.I.P.P.e.e.e.e.e.e.e.e.e.e.e.e.e.e.e.e.e.e.e.e.e.e.e.e.e.e.e.e.e.e.e.e.e.e.e.e.e.e.y.e.K.P.I.P.P.I.P.P.U.    G a.C.x.x.x.",
"@. .&.R *.` { :     P.I.P.I.P.I.I.e.e.e.e.e.e.e.e.e.e.e.e.e.e.e.e.e.e.e.e.e.e.e.e.e.e.e.e.e.e.e.e.e.e.e.e.e.e.e.e.e.e.P.I.I.I.I.I.U.Y.    F p.x.x.n.x.",
"..-. .{  .o.=.;     I.P.P.P.P.J.e.e.e.e.e.e.e.e.e.e.e.e.e.e.e.e.e.e.e.e.e.e.e.e.e.e.e.e.e.e.e.e.e.e.e.e.e.e.e.e.e.e.e.e.K.I.I.I.I.I.U.    F n.B.x.n.n.",
" . .{  .=.;.=.-     I.P.P.P.I.y.e.e.e.e.e.e.e.e.e.e.e.e.e.e.e.t.t.e.e.e.e.e.e.e.e.e.e.e.e.e.e.e.e.e.e.e.e.e.e.e.e.e.e.e.e.F.I.I.I.I.U.    C x.a.x.v.v.",
"=. .{  . .I  .%     I.I.P.P.I.I.P.P.P.P.P.I.I.I.I.I.I.I.I.I.I.I.P.I.I.P.P.I.U.P.I.P.I.I.I.I.I.I.I.I.P.U.I.I.I.I.I.I.I.I.I.I.I.I.I.I.U.    C n.f.n.x.x.",
"I :.&.o.-.^ ,.%     I.I.P.P.P.I.U.P.P.P.I.P.I.I.I.I.I.I.I.I.I.I.I.I.U.P.I.I.P.P.P.I.I.I.I.P.I.I.I.I.P.P.I.I.I.I.I.I.I.I.I.I.I.I.I.I.U.    D m.x.x.x.v.",
" .=.=. .=.) / &     I.P.P.I.I.U.P.P.I.U.I.P.I.I.I.I.I.I.I.I.I.I.I.I.I.I.I.I.I.I.I.I.I.I.I.I.I.I.I.I.I.I.I.I.I.I.I.I.I.U.I.I.I.I.U.I.U.    S n.x.x.x.n.",
" . .{  . .) / &     I.I.I.P.I.I.I.I.I.U.I.I.I.I.I.P.I.I.I.I.I.I.I.I.I.I.I.I.I.I.I.I.I.I.I.I.I.I.U.P.I.I.I.U.I.I.U.I.I.I.I.I.I.I.I.I.U.    S n.x.v.v.x.",
" . . . .=.) / #     I.I.P.I.P.I.I.P.U.u.r.r.r.r.e.e.e.e.y.e.e.e.e.e.e.e.e.e.e.e.e.e.e.u.e.e.e.e.e.e.e.e.e.e.e.e.e.I.I.I.I.I.I.U.I.I.U.    A M.x.v.n.x.",
"&. .=. .=.) ) @     I.I.I.I.I.I.I.I.u.r.e.r.r.r.e.e.e.e.y.y.e.e.e.e.e.e.e.e.e.e.e.e.e.e.e.e.e.e.e.e.e.e.e.e.e.e.e.A.I.I.I.I.I.I.U.U.U.    Z v.v.x.x.x.",
" . . . .=./ / +     I.P.P.I.P.P.I.e.e.y.e.e.e.e.e.e.e.e.y.y.e.e.e.e.e.e.e.e.e.e.e.e.e.e.e.e.e.e.e.e.e.e.u.e.e.e.e.e.e.I.I.I.I.I.P.I.U.    V x.x.x.b.x.",
"=. .&. . .) k.+     I.I.P.P.P.H.e.e.e.e.e.e.e.e.e.y.y.e.e.e.e.e.e.e.e.e.e.e.e.e.e.e.e.e.e.e.e.e.e.e.e.e.e.e.e.e.e.e.e.e.J.I.I.P.P.I.U.    Z m.x.x.x.n.",
"{ =. . . .) / X     I.I.I.I.P.r.e.y.y.y.y.e.e.e.y.y.u.e.e.e.e.e.y.e.u.e.e.u.u.e.e.e.u.e.e.e.e.e.e.e.e.e.e.e.e.e.e.e.e.e.e.F.I.P.I.I.Y.    V n.x.x.x.x.",
" . . .-. .) ) .     I.I.I.P.I.I.I.I.I.I.I.I.I.I.I.I.I.I.I.I.P.P.I.I.I.I.I.I.I.I.I.I.I.I.I.I.I.I.U.P.I.I.I.I.I.I.I.I.I.I.I.I.I.I.I.U.U.    V x.x.n.x.x.",
" . .{ =. ./ /       U.P.I.I.I.I.I.I.I.I.I.I.I.I.I.P.I.I.U.P.P.P.I.I.I.I.I.I.I.I.I.I.I.I.I.I.I.I.I.I.I.P.I.I.I.I.I.I.I.I.I.P.I.I.I.I.U.    V m.x.x.x.n.",
" .=. . .=.) /       P.P.I.P.I.P.P.I.I.P.P.P.P.I.P.U.I.P.P.I.P.P.I.I.I.I.I.I.I.I.I.I.I.P.P.I.I.P.P.I.I.P.P.I.P.I.I.I.I.I.I.I.I.I.P.P.U.    B x.x.n.x.x.",
" .=.&. .=./ )       I.U.I.I.I.P.I.I.U.P.L.I.P.P.U.L.P.P.L.I.U.U.I.I.I.I.I.I.I.I.I.I.I.I.P.P.I.P.I.P.P.P.P.I.P.P.I.P.I.I.I.I.I.I.P.P.Y.    B M.x.x.x.x.",
"{  . . .-./ /       P.P.I.I.I.I.I.P.P.K.e.e.e.e.e.e.e.e.e.e.e.e.e.e.e.w.e.w.e.e.e.e.e.e.w.e.e.w.w.e.w.e.e.e.e.e.G.P.I.I.I.I.I.I.U.U.U.    B n.v.n.v.x.",
"=. .=. . ./ /       I.I.I.I.I.I.I.I.u.y.t.t.e.e.e.e.e.e.e.e.e.e.e.e.e.e.e.e.e.e.e.e.e.e.e.e.e.e.e.e.e.e.e.e.e.e.e.A.U.I.I.I.I.I.I.I.U.    n n.x.x.x.n.",
"=. . . . ./ /       I.I.I.I.I.I.I.e.t.t.e.t.e.t.e.e.e.e.e.e.e.e.e.e.e.e.e.e.e.e.e.e.e.e.e.e.e.e.e.e.e.e.e.e.e.e.e.e.e.L.I.I.I.I.I.I.U.    n m.x.x.x.x.",
"{  . . . .) /       P.I.I.I.I.U.u.y.y.y.e.y.y.t.e.e.e.e.e.y.e.e.u.e.u.u.e.e.e.e.e.e.e.e.e.e.e.e.e.e.e.e.e.e.e.e.e.e.e.e.I.I.I.I.I.I.U.    v n.x.v.v.x.",
"=. .&. . ./ /       I.I.I.I.P.u.u.u.A.u.u.u.u.A.e.u.u.A.u.u.A.u.u.u.u.u.u.u.u.u.u.u.A.u.u.A.u.A.e.A.e.A.u.u.A.e.A.u.A.e.A.F.I.I.U.U.U.    b b.x.x.n.x.",
" . .{ =.=./ /       U.I.I.I.P.U.I.I.I.P.P.P.P.I.I.I.I.I.I.I.I.I.U.U.I.I.I.I.I.I.I.I.I.I.I.I.I.I.I.I.I.I.I.I.I.I.I.I.I.I.I.I.I.I.I.I.U.    b b.x.x.v.x.",
"{  .=. . ./ /       P.I.I.I.P.I.P.P.I.I.P.I.I.I.I.I.I.I.I.I.I.I.I.I.I.I.I.I.I.I.I.I.I.I.I.I.I.I.I.I.I.I.I.I.I.I.I.I.I.I.I.I.I.I.I.I.U.    v n.x.x.x.n.",
"=. . . . .) /       U.I.P.I.I.I.P.I.I.I.I.I.P.I.P.I.I.P.I.I.I.I.I.I.I.I.I.I.I.I.I.I.I.I.I.I.I.I.I.I.I.I.I.I.I.I.I.I.I.I.I.I.I.I.I.I.U.    v x.x.x.n.x.",
"{ =.=. . ./ k.      U.P.P.P.P.P.I.I.I.I.I.I.P.P.P.I.I.P.P.P.P.U.I.I.I.I.I.I.I.I.I.I.I.U.I.I.I.I.I.I.I.I.I.I.I.I.I.I.I.I.I.I.I.I.I.I.L.    v n.v.x.x.x.",
"=. .=. . .) / 7     N P.Y.Y.Y.Y.Y.Y.Y.Y.Y.Y.Y.Y.Y.Y.Y.Y.Y.Y.Y.Y.Y.Y.Y.Y.Y.Y.Y.Y.Y.Y.Y.Y.Y.Y.Y.Y.Y.Y.Y.Y.Y.Y.Y.Y.Y.Y.Y.Y.Y.Y.Y.Y.Y.L.>     ^ x.x.x.v.M.",
" . .{  . .! / )                                                                                                                         W h.n.x.x.n.x.",
" . .=. .=./ ) ) Q                                                                                                                       ! ^ v.x.x.x.x.",
"=. .&. . .) / ^ ! Z                                                                                                                   E ^ ^ x.x.x.n.x.",
"{ =.=. .=./ / 6                                                                                                                           ! m.x.x.n.x.",
" . .{  . .) k.  o o                                                                                                                       * M.x.x.x.v.",
" . . . .-./ /     < h 0.t.e.e.t.t.e.r.t.e.y.y.y.t.e.e.e.e.e.e.r.y.e.y.y.y.e.e.e.e.e.u.y.y.e.e.e.u.u.e.e.e.e.e.e.y.e.e.e.e.e.y.y.6.f l .     b.x.x.n.b.",
"&. . .=. .) a     l h z e.e.e.e.r.r.e.e.t.e.e.y.e.e.e.e.t.e.e.e.e.e.y.y.e.e.e.e.y.e.e.y.e.e.e.e.e.y.e.e.e.e.e.e.y.y.y.e.y.y.y.y.z l f 5.    n.x.x.x.x.",
" .=.=. . .) .     h h h e.e.e.e.e.e.e.e.e.e.e.e.e.e.e.e.e.e.e.e.e.e.e.e.e.e.e.e.e.e.e.e.e.e.e.y.e.e.y.e.e.e.e.e.e.e.e.e.e.e.e.y.d d d u.    m x.x.x.x.",
" . .{  . .)     + l h h e.t.e.e.e.t.e.y.e.e.t.e.e.e.e.e.e.e.e.e.e.e.e.e.e.y.e.e.e.e.y.e.e.e.e.e.e.e.e.e.e.e.e.e.e.e.e.e.e.e.y.q.h h l y.      x.b.x.n.",
"{ =. . . ./     6.2.h h e.e.e.e.e.e.e.e.e.e.e.e.e.e.e.e.e.e.e.e.e.e.e.y.e.e.e.e.e.e.e.e.e.e.e.e.e.e.e.e.e.e.e.e.y.e.e.e.y.e.e.3.h h 1.y.,     x.n.x.x.",
"=. . . .-.c     e.0.h d 6.e.e.t.e.e.e.e.e.e.e.e.e.e.e.e.e.t.e.e.y.e.e.e.e.e.y.e.e.y.e.e.e.e.e.e.e.e.y.e.e.e.e.e.e.e.e.e.e.y.y.z h h q.y.k     x.x.x.x.",
"{  . .=. .    q r.r.h h z r.e.e.e.e.e.e.e.e.e.e.e.t.e.e.e.e.e.e.e.e.e.e.e.t.e.e.e.e.e.e.e.e.e.e.e.e.e.e.e.e.u.t.t.t.e.e.e.e.e.j h d e.e.e.    1 x.x.x.",
"=. .{  .F     y.e.e.h h h r.e.e.e.e.e.e.t.e.e.e.e.e.e.e.e.e.e.e.e.e.e.e.e.e.e.e.e.e.e.e.e.e.e.r.e.e.e.e.e.e.t.t.e.e.e.e.e.e.t.h h z t.e.e.r     x.x.x.",
"=. .=. .-     e.r.e.l h h t.r.e.e.e.e.e.e.e.e.t.e.e.e.e.e.e.e.t.e.e.e.e.e.e.e.e.e.e.e.e.e.e.e.e.e.e.e.e.e.e.e.e.e.e.e.e.e.e.t.h d 5.e.e.e.q.    i.x.x.",
" .=.{  .      e.e.e.6.h h 8.e.e.e.e.e.e.e.e.e.e.e.e.t.e.e.e.e.e.e.e.e.e.e.e.t.e.e.r.r.e.e.e.e.e.e.e.e.e.e.e.e.e.e.t.e.e.e.e.6.h d e.e.e.e.e.      v.M.",
"{ =.=. .    , e.e.e.e.d h 2.t.e.e.e.e.e.e.e.e.e.e.e.e.e.e.e.e.e.e.e.e.e.e.e.e.e.e.e.e.e.e.e.e.e.e.e.e.e.e.e.e.e.e.e.e.t.e.e.N h h e.e.e.y.e.      x.x.",
" . .[ J     e.e.e.e.e.z h d e.e.e.e.e.r.e.e.e.e.e.e.e.e.e.t.e.e.e.e.e.e.e.e.e.e.e.e.e.e.e.e.e.e.e.e.e.e.e.e.t.e.e.e.e.e.e.e.d h h e.e.e.e.e.t     x.x.",
"=. . .O     e.e.e.e.e.6.h h 0.e.e.e.e.e.e.e.e.r.e.e.e.e.e.e.e.e.e.e.e.y.e.e.e.e.e.e.e.e.e.e.e.e.e.e.e.e.e.e.e.e.e.t.e.e.t.y.h h d r.e.e.e.e.e.    u v.",
"{ =. .      e.e.e.e.e.e.h h 5.e.e.e.e.e.r.e.e.e.e.e.e.e.e.e.e.e.e.e.e.e.e.e.e.e.e.e.e.e.e.e.e.e.e.e.e.e.e.e.e.e.e.e.y.e.t.y.h h N e.e.t.e.e.e.      v.",
" . .{     e e.e.e.e.e.e.h h j t.e.e.e.e.e.e.e.e.e.e.e.e.e.e.e.e.e.e.e.y.e.e.e.y.e.e.e.r.e.e.e.e.e.e.e.e.e.e.e.e.e.e.y.e.e.0.h h 8.y.r.r.r.e.r.X     b.",
"[ { F     e.t.e.e.e.e.e.h h h t.e.r.e.e.e.e.e.r.e.e.e.e.e.e.e.e.e.e.e.e.e.e.e.e.e.r.e.e.e.e.e.r.e.r.e.e.r.e.e.r.e.e.e.e.e.1.h h r.e.r.r.e.y.y.f     x.",
":.' -   + e.e.e.e.e.e.e.z h h t.e.e.e.r.e.e.r.e.e.e.e.e.e.e.e.e.e.e.e.e.e.e.e.e.e.e.e.r.e.e.e.e.e.e.e.e.e.e.e.e.e.e.y.e.e.j h l r.r.e.e.e.e.y.q.    u ",
"&.&.    5.y.r.e.e.e.e.e.q.h h 8.e.e.e.e.e.e.e.e.e.e.e.e.e.e.e.e.e.e.y.e.e.e.y.e.e.e.e.e.e.e.e.e.e.y.e.e.e.e.e.e.e.e.e.e.e.h l 2.e.e.e.e.e.e.e.y.$     ",
" .0     y.e.e.e.e.r.e.e.y.h h z e.r.r.r.e.e.e.e.e.e.e.e.e.e.e.e.e.e.e.e.e.e.e.e.e.e.e.e.e.r.e.e.e.e.e.e.e.e.e.e.y.e.t.t.5.h h w.e.e.e.e.e.e.e.e.8.    ",
"{ +     r.r.e.e.e.e.e.r.t.h h h e.r.r.r.e.e.e.e.e.e.e.e.e.e.e.e.e.e.e.e.e.e.e.e.e.e.e.e.e.e.e.e.e.e.e.r.e.e.e.r.e.t.e.y.N h h e.e.e.e.e.e.e.e.e.e.    ",
"=.    @ r.r.e.e.e.e.r.r.e.d h f 8.e.e.e.e.e.e.e.e.e.e.e.e.e.e.e.e.e.e.e.e.e.e.e.e.e.e.e.e.e.e.e.e.e.e.e.e.e.r.r.e.e.y.y.h h h e.e.e.e.e.e.e.e.e.e.    ",
"=.      x 7.7.7.7.7.7.6.5.s s w p 7.7.7.7.7.7.7.7.7.7.7.7.7.7.7.7.7.7.7.7.7.7.7.7.7.7.7.7.7.7.7.7.7.7.7.7.7.7.7.7.6.7.7.r r r 6.7.7.7.7.7.7.7.7.g     ",
"o.9                                                                                                                                                   ",
";.&.&.                                                                                                                                            1 x.",
":.@.:.*.U { _ .. . .#.=. .{  .) / ) ) / ) / ) ) ) ) ) ) ) ) ) / ) / ! / ) ) / / / ) ) ! / ! / ^ ^ ) / ) / ) ) / / / / / =.{  . .o.{  .;.{ [ a.v.v.b.n.",
"{ @.#.[ [ @.#.*.{ I I { =.&.=.) ( ) ( ) ) ) ) / ) ) ) ) ( ) ) ) ( ) ) ) ) ) ) ( ) ( ) ) ( ) / ! ) ) ( ) ) ) ( ) / ! ,./ =.T { @. .U @.:.&.U f.B.x.x.v.",
"R =.=.=.%.;.%.$. .:.=. .o.{ P / ) ) ! ! ^ / l.^ ^ / / ! ) ^ ) ) ! h.^ ^ / / ! l.) ) / / ) ) / / ) ) ) ^ ) ) ) ) ^ ) <.l.%.$.&.&. .{ =.{ O. .c.C.n.x.x.",
"'  . .*. .-.&.&.{ -. . .@.*.R ,.h.h.^ h.^ ^ h.~ h.~ h.h.) k.h.^ h.h.! h.! h.~ h.^ ^ h.~ h.! h.~ h./ ^ h.^ ^ ^ k.h.h.) / #.@.@. .@. .{ I  .*.m.s.x.x.x.",
"x.v.z.x.x.v.v.M.m.n.n.d.b.n.a.m.M.n.m.x.n.b.n.n.n.n.n.c.M.n.n.b.M.m.M.M.x.b.b.m.M.n.M.n.n.n.m.n.n.M.x.x.m.n.n.n.x.x.v.f.m.a.x.x.b.n.f.a.v.z.N.z.n.x.v.",
"x.n.v.x.x.v.M.f.n.a.B.x.B.z.N.z.v.v.x.x.v.v.x.x.v.n.x.v.x.x.x.v.x.x.x.x.x.x.x.x.v.x.v.x.v.x.x.x.x.v.x.x.x.x.x.v.n.n.b.v.n.b.x.v.v.a.x.B.B.x.x.x.x.x.x.",
"v.a.v.x.v.x.x.x.x.x.x.n.b.x.x.x.n.x.x.b.x.n.x.n.x.x.b.x.x.x.x.x.x.n.n.x.n.x.x.v.x.x.n.v.x.x.x.x.x.x.v.x.x.x.x.x.x.x.v.n.x.x.x.x.v.x.x.x.x.x.n.x.n.x.n.",
"x.v.v.b.f.v.x.x.n.v.x.x.n.v.x.x.x.x.x.x.x.x.v.x.x.x.x.x.x.n.n.x.x.x.x.x.x.x.n.v.n.x.n.x.n.x.n.x.x.x.x.x.n.x.n.x.x.n.x.n.n.x.x.n.v.n.n.x.x.x.x.x.x.x.x.",
"x.n.a.n.b.x.x.v.x.n.x.x.n.x.x.x.x.x.n.x.x.v.x.x.x.n.v.x.n.n.x.v.x.x.x.b.n.x.x.x.x.v.x.M.x.x.n.x.x.x.b.x.x.v.x.n.x.x.v.x.x.x.b.x.n.x.x.x.x.n.v.x.M.x.x."
};
