/* XPM */
static char *_e859e2dd4384eff984fddf1ad1ebe9ap8RAZnlbgt3IkX6J[] = {
/* columns rows colors chars-per-pixel */
"75 75 122 2 ",
"   c #C254D3",
".  c #BE53CA",
"X  c #BD53C4",
"o  c #C35ACB",
"O  c #C155C5",
"+  c #C154CC",
"@  c #BE58D5",
"#  c #BB4ED1",
"$  c #BD52D2",
"%  c #BC4ECB",
"&  c #B752CC",
"*  c #BE59BE",
"=  c #BB4EC6",
"-  c #BF59CA",
";  c #BE5AC4",
":  c #C156BD",
">  c #C359D0",
",  c #B64CCC",
"<  c #C15AC4",
"1  c #B754C3",
"2  c #B64BD7",
"3  c #C259BD",
"4  c #F09EAA",
"5  c #F4A4AD",
"6  c #F2AA9B",
"7  c #F6AC93",
"8  c #F1A1A4",
"9  c #C24FD2",
"0  c #DF7CB5",
"q  c #E07CB8",
"w  c #E380BA",
"e  c #DC7EB9",
"r  c #DE81B9",
"t  c #F4A4A3",
"y  c #F1AAA6",
"u  c #F3AAA3",
"i  c #F4AA9D",
"p  c #F1A7A4",
"a  c #C361C4",
"s  c #BF51D8",
"d  c #EEAAA5",
"f  c #EDA9AA",
"g  c #F4A7B1",
"h  c #F2A8B9",
"j  c #EFACA3",
"k  c #EFA7AA",
"l  c #F1A4AC",
"z  c #E17EC4",
"x  c #E17DB5",
"c  c #E381B5",
"v  c #F3A8A3",
"b  c #F2ACA4",
"n  c #EBA69E",
"m  c #B452BF",
"M  c #F7ABAB",
"N  c #EDAAB2",
"B  c #EDACA6",
"V  c #EFABA8",
"C  c #F5AD9E",
"Z  c #EDAA9C",
"A  c #F0AAA2",
"S  c #B651D0",
"D  c #BA4FBE",
"F  c #E177B9",
"G  c #B759CB",
"H  c #EAACA1",
"J  c #F3A990",
"K  c #EEABA2",
"L  c #DE7EAD",
"P  c #F6ABA6",
"I  c #F1A9B4",
"U  c #EBAB9F",
"Y  c #F9ABA9",
"T  c #F1A39F",
"R  c #E580B8",
"E  c #F3AB9D",
"W  c #F3A3B0",
"Q  c #B74ADB",
"!  c #BD54BD",
"~  c #F0A8B3",
"^  c #EEA791",
"/  c #E283AF",
"(  c #DB74BC",
")  c #C14DCE",
"_  c #ECA5A3",
"`  c #EEA8A8",
"'  c #DC7DA7",
"]  c #DD7BC2",
"[  c #E27DC9",
"{  c #EDAAA4",
"}  c #F1AAA8",
"|  c #D77BBC",
" . c black",
".. c #7E878A",
"X. c #B7C4C8",
"o. c #7F898B",
"O. c #909A9D",
"+. c #929CA0",
"@. c #6C7476",
"#. c #596472",
"$. c #919DA5",
"%. c #767F81",
"&. c #535D6C",
"*. c #585E60",
"=. c #61686A",
"-. c #B4C2C6",
";. c #B6C3C7",
":. c #B3C1C5",
">. c #89959E",
",. c #8D98A1",
"<. c #707B86",
"1. c #7B8791",
"2. c #5E6976",
"3. c #97A3AB",
"4. c #B44FC7",
"5. c #C24FC6",
"6. c #BF4FD9",
"7. c #F2AB95",
"8. c #F4A4A5",
"9. c #F9B3A9",
"0. c #F1A9AC",
"q. c #F3B1A1",
/* pixels */
"  . X o O + X   o . . @ . . . O + X + . O . X + X . . + . O . + X + + X + X + . + X + . O . . + X . X + + X + . X X + O # X $ o X o + X O   # X + . + ",
"% O . % %   X X X X X o . & $ . . . . . . . + . + . . . . . . . . . . . . . . + . . . . . . . . . + . . . + . . o % % O . * O =   % + O   = + X . - . ",
"O + o . .   . ; #   . X X X O . . . . . . X + . + X X + X + . . . X . . + X X + X + . . + . X . X . + X . X . . X X % . $ . $ #   # o + + X O + X . X ",
"+ % . O . ; # & + o $ : X . . $ + . + o + + + . + . + + + . + o + + + + + + . + . + + o + . o + + + + + . + + o . X   + - ; > + X o X # O . % $ + . + ",
"o . # . , < $ ; 1 o 2 < + + % + . . . . . . . . . . . . . . . . . + . . . . . . . . . . . . . . . % o . . % . . + +   # ; 1 & & X . X   - . - . X . ; ",
". . o O 3 4 5 6 7 8 o X # 9 : 0 q q q q q q q q q q q q q q q q q q q q q q q q q q q q q q q q q q q q q q w q e 0 q r t y u i p a ; # s * 8 p d f f ",
"X + . # & g h j k l @ X +   + z x x x x x x x x x q c x x w x x x x q w x x x x x x c x x x x x x q w q q x x q q q 0 r v b y n g 2 + O   m M N f B V ",
"$ + X o 1 C j Z j A S X O + D x z q q q z F q q q q q z F q e z z q q q e z q F z F e z q F q q q q q q q z q q q x q e v f f f 6 G = < + X y H v v v ",
"o X $ . 1 J f K y u S X .   X 0 q q q q q q q q q q q 0 q q q q q q q q q q q q q q 0 q q q q q q q q q q q q q F 0 L F P I B U Y m . o % . 5 j y d y ",
"= O   + o 8 g n v T - . .     0 q q q q q q q q q q q x q 0 q q q q q q q q q q q q q q q q q q q q q q q q q q F z x R 8 p E v W ; X X   . T Z d d d ",
"X X . # 2 o @ $ $ - Q o = O   e q q x q 0 q q q q q q q q q q q q q q q q q q q q q q q 0 q q q q q q q q q q q x x x z ; $ . $ < 2 # ! + @ K ~ d d d ",
"$ . X 3 < X X X . 1 . o + X + 0 0 F 0 q q q q q q 0 q q q q q q q q q 0 0 q q q q q q q q q q q q 0 q q 0 q 0 q q q x x & $ . . O   + O . X ^ K d y d ",
"G > . X . # + O + + = X + < + / q q q q 0 q q q q q q q 0 q q q q q q q q q q q x 0 q q q q q q q q q q q q q q 0 e ( x X X 3 . + X = ) # @ b N d v d ",
". . X . + 9 + + )   O O < = % F q 0 q q q q q q q q q q q q q q q q q q q q q q q q q q q q q q q q q q q q q q 0 q q q . . X     % ! o X X K _ d ` d ",
"+ . X . . ! . X X o $   = + o z q q q q q q q q q q q q q q q q q q q q q 0 q q q q q q q q 0 q q q q q q q q q 0 w R 0 o & % + X . X $ X 3 K E y d d ",
"!   O # o 0 z x x ( 0 R ' z ] ' q q q q q q q q q 0 q q q q q q q q 0 q q q q q q q 0 q q q q q q 0 q q q q 0 0 0 z q x F 0 x q x [ x 0 0 ] 5 d d d d ",
". + + . + q x q q 0 q q q q q q q q q q q q q q q q q q x 0 q q q q q q q q q q F 0 q q q q q q q q q q q q q q q q q x 0 q q q w q x q q e p { d d y ",
". . X . . q x q q q q q q q q q q q q q q q q 0 q q q q q q q q q q q q q q q q 0 x q q 0 q q q q q q q q q q q q q q q q q q q q q x q q e } { f d d ",
". . . . . x x q q q q q q q q q q q 0 q q q q q 0 q q q q q q 0 q q q q q q q 0 q q q q q q q q q q q q q q q q 0 q q q q q q 0 q q x q q e y d d y d ",
"O . + . . e w F q q q q q q q 0 q q q q q q q q q q q q q q q q 0 x 0 q q q q q q q q q q q q q q q q 0 0 q q q q q q q q q q q q q x z 0 e } d d d d ",
". . . . + x x e q q q q q q q q q q q q q q q 0 q q q q q 0 q q q q q q q q q q q q q q q q q q q q q q q q q q q q 0 q q q q q q q q q 0 0 } { d y K ",
"+ . O . . q w F q q 0 q q q q q q q q q q q q q q 0 q q q q q q q q q 0 q q q q q q q 0 q q 0 q q q q q q q q q q q q q q q 0 q q q x q 0 r l { d d y ",
"X + . . . q x q q q q q q q q q q q q 0 q q q q q q q q q q q q q q q q q q q q q q q q q q q q q q q q q 0 q q q q q q q q q q x q x q e | } d d d d ",
". . . o . q q q q q q q 0 q q 0 x q q q q q q q q q q q q q q q q q q q q 0 q q q q q q q q q q q q 0 q q q q q q q q q q q q q q q x q 0 r y d y d d ",
". . X + . q x q q q q q q q q q 0 q q q q q q q q q q q q 0 q q q q q q q 0 q q q q q q q q 0 q q q q q 0 q q q q q q q q q q q w q x q q e l H d d y ",
". + . . . q x F q q q q q q q q q q q q q q x 0 q q q q q q q q q q q q q q q q 0 q q q q q q q q 0 q q q q q q x q q q q q q q q q x q q e } { y d d ",
". + O . . 0 x ] q e q q q q 0 q q q 0 q q q q q q q q 0 q q 0 x q q q q q q q q q q q q x q q q q q q q q q q q 0 q q 0 q q q q q q x q q e } d d d d ",
"X . . . o x x q q q q q q q q q q q q q q q 0 q q q q q q q q q 0 q q q q q q q q q q q 0 q q q q q q q q q q q q q q q q q q 0 q q x z 0 e y d y d K ",
"+ . + . . x x q q q q q q q q q q q q q q q q q q q q q q q q q q q q q q q q q 0 q q q q q q q q q q q q q 0 q q q 0 q q q q q q q x q 0 0 } { d d y ",
"+ . . . . x x z q q x q q q q q q q q q q q q q q q q q q q q q q q 0 q 0 q q q q q q q q q q q q q 0 x q q q q q q q q q q q q q q 0 q e r l { d d d ",
"X . . . . q x q q q q q q q x q q 0 q q q q q q q 0 q q q q q q q q q q 0 x q q q q q q 0 q q q 0 q q q q q x q q q q q q q 0 q q q x q 0 | } d d d d ",
"+ . O . . x x q q q q q q q 0 q q q q q 0 q q q q q q q 0 q q q q q q q q q q q q q q q q q q q q q q q q q 0 q q q q q q q q q x q q q x r p d d p d ",
". . X + . x x z 0 q q q q q q q q q q q q q q 0 q q q q q 0 q q q q q q q 0 q q q q q q 0 q 0 q q q q q q q q 0 q q F 0 q q q q q q q q q r p { d f d ",
"X . + . . x x q q q q q q q q q q q q 0 q q q q q q q q q x q q q q q q q q q q q q q q q q q q q q q q q q q q q q 0 x q q q q q q x q q e } B d d y ",
"+ . . . . q x e q q q q 0 q q q q q q q q q q q q q q 0 q q q q q q q q q q q q q q q 0 q q q q q q q q q q q q q q q q q q q q x q x z q e y d d y d ",
"X + + . . x w F q q q q q q q q q q q q q q q q q q q q q q q q 0 q q q q q q q q q q q q q q q q 0 q q q q q 0 q q q q q q q 0 q q x q q e p d d d d ",
"+ . + . . q x q q q q q q q q q q q q q q q x q q q q q q q q q q q q q q q q q 0 q q q q q q q q q q q q q q q q q 0 q q q q q q q q q 0 e } H d d y ",
". . X . . 0 x q q q q q q q q 0 q 0 q q q q 0 q 0 q q q q q q 0 q q 0 q x 0 q q x q q q q q q q q q q q q 0 q q q q q q q q q q w q x q 0 e p B d y d ",
". . + . + x q q q q q 0 0 q q q q q  . . . . . . . . . . . . . . . . . . . . . . . . . . . . . . . . . . . . . . . . .q q q 0 q x q q q 0 e l j d d d ",
"+ . O . . q x q q q q q x q  . . . . ...X.X.X.X.X.X.X.X.X.X.X.X.X.X.X.X.X.X.X.X.X.X.X.X.X.X.X.X.X.X.X.X.X.X.X.X.X.o. . . . . .q q q x F e e y B d y d ",
"X + + . + x x 0 0 q q q  . . .O.X.X.X.X.X.X.X.X.X.X.X.X.X.X.X.X.X.X.X.X.X.X.X.X.X.X.X.X.X.X.X.X.X.X.X.X.X.X.X.X.X.X.X.X.X.+. . . .q x q q e l H d y d ",
". . X . . q w F q q q  . .@.#.X.X.X.X.X.X.X.X.X.X.X.X.X.X.X.X.X.X.X.X.X.X.X.X.X.X.X.X.X.X.X.X.X.X.X.X.X.X.X.X.X.X.X.X.X.X.X.$.%. . .x q q r } { d d ` ",
". . . . o x x e q q  . .X.X.X.X.X.X.X.X.X.&.&.&.&.&.&.&.&.&.&.&.&.&.&.&.&.&.&.&.&.&.&.&.&.&.&.&.&.&.&.&.&.&.&.&.X.X.X.X.X.X.X.X.X. . .z q e p d d y y ",
"O . . + . q q q q  . .X.X.X.X.X.&.&.&.&.&.&.&.&.&.&.&.&.&.&.&.&.&.&.&.&.&.&.&.&.&.&.&.&.&.&.&.&.&.&.&.&.&.&.&.&.&.&.&.&.&.X.X.X.X.X. . .q e } d d K d ",
". + + . . q x F q  . .X.X.X.X.X.X.X.X.X.X.X.X.X.X.X.X.X.X.X.X.X.X.X.X.X.X.X.X.X.X.X.X.X.X.X.X.X.X.X.X.X.X.X.X.X.X.X.X.X.X.X.X.X.X.X. . .0 0 y H d d d ",
". . X . . q q e  . . .X.X.X.X.X.X.X.X.&.&.&.&.&.&.&.&.&.&.&.&.&.&.&.&.&.&.&.&.&.&.&.&.&.&.&.&.&.&.&.&.&.&.&.&.&.&.&.X.X.X.X.X.X.X.X. . . .r l B p d y ",
"X + . . . x q q  . .X.X.X.X.X.&.&.&.&.&.&.&.&.&.&.&.&.&.&.&.&.&.&.&.&.&.&.&.&.&.&.&.&.&.&.&.&.&.&.&.&.&.&.&.&.&.&.&.&.&.&.&.X.X.X.X.X. . .e l B y d d ",
"+ . . . o q w q  . .X.X.X.X.X.X.X.X.X.X.X.X.X.X.X.X.X.X.X.X.X.X.X.X.X.X.X.X.X.X.X.X.X.X.X.X.X.X.X.X.X.X.X.X.X.X.X.X.X.X.X.X.X.X.X.X.X. . .0 p d d d d ",
"X . . + . q x  . . .X.X.X.X.X.X.X.X.&.&.&.&.&.&.&.&.&.&.&.&.&.&.&.&.&.&.&.&.&.&.&.&.&.&.&.&.&.&.&.&.&.&.&.&.&.&.&.&.&.X.X.X.X.X.X.X.X. . . .} { d d d ",
"+ . X . . x x  . .*.X.X.X.X.&.&.&.&.&.&.&.&.&.&.&.&.&.&.&.&.&.&.&.&.&.&.&.&.&.&.&.&.&.&.&.&.&.&.&.&.&.&.&.&.&.&.&.&.&.&.&.&.&.X.X.X.X.=. . .} { d d d ",
"+ . + . + q x  . .X.X.X.X.X.X.X.X.X.X.X.X.X.X.X.X.X.X.X.X.X.X.X.X.X.X.X.X.X.X.X.X.X.X.X.X.X.X.X.X.X.X.X.X.X.X.X.X.X.X.X.X.X.X.X.X.X.X.X. . .} d d d d ",
". + X . . x  . . .X.X.X.X.X.X.X.X.-.&.&.&.&.&.&.&.&.&.&.&.&.&.&.&.&.&.&.&.&.&.&.&.&.&.&.&.&.&.&.&.&.&.&.&.&.&.&.&.&.&.;.X.X.X.X.X.X.X.X. . . .d d d y ",
"X + + . . q  . .*.X.X.X.X.:.&.&.&.&.&.&.&.&.&.&.&.&.&.&.&.&.&.&.&.&.&.&.&.&.&.&.&.&.&.&.&.&.&.&.&.&.&.&.&.&.&.&.&.&.&.&.&.&.&.X.X.X.X.X.=. . .{ y d d ",
". . X . . q  . .X.X.X.X.X.X.X.X.X.X.X.X.X.X.X.X.X.X.X.X.X.X.X.X.X.X.X.X.X.X.X.X.X.X.X.X.X.X.X.X.X.X.X.X.X.X.X.X.X.X.X.X.X.X.X.X.X.X.X.X.X. . .{ d d d ",
"+ . . + +  . . .X.X.X.X.X.X.X.X.X.X.>.&.&.&.&.&.&.&.&.&.&.&.&.&.&.&.&.&.&.&.&.&.&.&.&.&.&.&.&.&.&.&.&.&.&.&.&.&.&.&.,.X.X.X.X.X.X.X.X.X.X. . . .y d y ",
"X + . . .  . . .X.X.X.X.X.X.<.&.&.&.&.&.&.&.&.&.&.&.&.&.&.&.&.&.&.&.&.&.&.&.&.&.&.&.&.&.&.&.&.&.&.&.&.&.&.&.&.&.&.&.&.&.&.&.1.X.X.X.X.X.X. . . .d d d ",
". . X . +  . .X.X.X.X.X.X.X.X.X.X.X.X.X.X.X.X.X.X.X.X.X.X.X.X.X.X.X.X.X.X.X.X.X.X.X.X.X.X.X.X.X.X.X.X.X.X.X.X.X.X.X.X.X.X.X.X.X.X.X.X.X.X.X. . .y d y ",
"X . X O  . . .X.X.X.X.X.X.X.X.X.X.X.X.X.X.2.&.&.&.&.&.&.&.&.&.&.&.&.&.&.&.&.&.&.&.&.&.&.&.&.&.&.&.&.&.&.&.&.&.2.X.X.X.X.X.X.X.X.X.X.X.X.X.X. . . .d d ",
"  % )    . . .X.X.X.X.X.X.X.X.X.&.&.&.&.&.&.&.&.&.&.&.&.&.&.&.&.&.&.&.&.&.&.&.&.&.&.&.&.&.&.&.&.&.&.&.&.&.&.&.&.&.&.&.&.&.X.X.X.X.X.X.X.X.X. . . .v d ",
"O O + .  . .X.X.X.X.X.X.&.&.&.&.&.&.&.&.&.&.&.&.&.&.&.&.&.&.&.&.&.&.&.&.&.&.&.&.&.&.&.&.&.&.&.&.&.&.&.&.&.&.&.&.&.&.&.&.&.&.&.&.&.X.X.X.X.X.X. . .d d ",
". . .  . . .X.X.X.X.X.X.X.X.X.X.X.X.X.X.X.X.X.X.X.X.X.X.X.X.X.X.X.X.X.X.X.X.X.X.X.X.X.X.X.X.X.X.X.X.X.X.X.X.X.X.X.X.X.X.X.X.X.X.X.X.X.X.X.X.X. . . .d ",
"X ; G  . . .X.X.&.&.X.X.X.X.X.X.X.X.X.X.X.X.X.X.X.X.X.X.X.X.X.X.X.X.X.X.X.X.X.X.X.X.X.X.X.X.X.X.X.X.X.X.X.X.X.X.X.X.X.X.X.X.X.X.X.X.X.&.&.X.X. . . .y ",
"+ O 9  . . .X.X.3.X.X.X.X.X.X.X.X.X.X.X.X.X.X.X.X.X.X.X.X.X.X.X.X.X.X.X.X.X.X.X.X.X.X.X.X.X.X.X.X.X.X.X.X.X.X.X.X.X.X.X.X.X.X.X.X.X.X.X.3.X.X. . . .d ",
"+ X 9  . . . .X.X.X.X.X.X.X.X.X.X.X.X.X.X.X.X.X.X.X.X.X.X.X.X.X.X.X.X.X.X.X.X.X.X.X.X.X.X.X.X.X.X.X.X.X.X.X.X.X.X.X.X.X.X.X.X.X.X.X.X.X.X.X. . . . .d ",
"# < ! $  . . . . . . . . . . . . . . . . . . . . . . . . . . . . . . . . . . . . . . . . . . . . . . . . . . . . . . . . . . . . . . . . . . . . .y d ",
") O O ) = o  . . . . . . . . . . . . . . . . . . . . . . . . . . . . . . . . . . . . . . . . . . . . . . . . . . . . . . . . . . . . . . . . .H d d d ",
"  $ @ < * X 4.G . . @ + . X . q x q q x q x q q q q q q q q q x q x 0 0 q q x x x q q 0 x 0 0 q q q x q x q q x x x x x + X . . # X . 9 X 1 Z j d y p ",
"X $ @ m 1 $ @ < O D ! X + O + q F q F q q q q q q q q q F q q q F q q q q q q F q F q q F q q q q q F q q q F q x 0 ] x + : X $ . * $   O * 6 N d d d ",
": + + + ) 9 ) 5.%   + . # X m 0 q q x q q q x q q x q 0 q q q q 0 e q q x x q x q q x q q q x x q q q q q q q q q q z c ) 5.O O + X + O 6.. k ~ y d d ",
"% . . - . o O O . o . . $ < : ] r r e e e e r | r | r r w r r e r r 0 r e r | r e r r | r 0 r | r 0 e e r e e r e r q 0 @ $ $ % $ & X ! $ < l n d d d ",
"K ` _ j K d f } 5 A v 7.u y K 5 } } l y y y y } y u } l } } y p } l } y y 8.p l } } } } y } l y y } y y l } y p d f f A k K K d 8.v i Z k _ 9._ y d d ",
"K } k K K f 0.i j Z N B N _ q._ d { B H d d d { d d { { { { { d { { { d B B d K d d { { d { j { { d d B H B d d v b v ` A v K ` f U H N ~ K { H d d d ",
"` K ` K d d d d d d d y d d d d y d d p d y d y d d y d d d d d d d y d y d K ` d d K ` d d d d d d d d d d d d d d ` v d d d d B d d d d d y d y d y ",
"K ` ` p v ` d d y d d d v ` d d d d d d d d ` d d d d d d y y d d d d d d d y d y d y d y d y d d d d d y d y d d y d d y d d y d y y d d d d d K d d ",
"K d K p y K d ` d y d d y K d d d d y K d d d d d y d d y d d d d d d v y d d d K ` d y d d y d d d y d d d d y d d d d d d y d y d d d d y d d y d d "
};
